<svg width="46" height="48" viewBox="0 0 46 48" fill="none" xmlns="http://www.w3.org/2000/svg">
<g filter="url(#filter0_dd_9_1825)">
<rect x="3" y="1" width="40" height="40" rx="20" fill="white"/>
<path d="M23 25.125C23.9375 25.125 24.7344 24.7969 25.3906 24.1406C26.0469 23.4844 26.375 22.6875 26.375 21.75C26.375 20.8125 26.0469 20.0156 25.3906 19.3594C24.7344 18.7031 23.9375 18.375 23 18.375C22.0625 18.375 21.2656 18.7031 20.6094 19.3594C19.9531 20.0156 19.625 20.8125 19.625 21.75C19.625 22.6875 19.9531 23.4844 20.6094 24.1406C21.2656 24.7969 22.0625 25.125 23 25.125ZM23 23.625C22.475 23.625 22.0313 23.4438 21.6688 23.0813C21.3063 22.7188 21.125 22.275 21.125 21.75C21.125 21.225 21.3063 20.7813 21.6688 20.4188C22.0313 20.0563 22.475 19.875 23 19.875C23.525 19.875 23.9688 20.0563 24.3313 20.4188C24.6938 20.7813 24.875 21.225 24.875 21.75C24.875 22.275 24.6938 22.7188 24.3313 23.0813C23.9688 23.4438 23.525 23.625 23 23.625ZM17 27.75C16.5875 27.75 16.2344 27.6031 15.9406 27.3094C15.6469 27.0156 15.5 26.6625 15.5 26.25V17.25C15.5 16.8375 15.6469 16.4844 15.9406 16.1906C16.2344 15.8969 16.5875 15.75 17 15.75H19.3625L20.75 14.25H25.25L26.6375 15.75H29C29.4125 15.75 29.7656 15.8969 30.0594 16.1906C30.3531 16.4844 30.5 16.8375 30.5 17.25V26.25C30.5 26.6625 30.3531 27.0156 30.0594 27.3094C29.7656 27.6031 29.4125 27.75 29 27.75H17ZM17 26.25H29V17.25H25.9625L24.5938 15.75H21.4062L20.0375 17.25H17V26.25Z" fill="#1F1F1F"/>
</g>
<defs>
<filter id="filter0_dd_9_1825" x="0" y="0" width="46" height="48" filterUnits="userSpaceOnUse" color-interpolation-filters="sRGB">
<feFlood flood-opacity="0" result="BackgroundImageFix"/>
<feColorMatrix in="SourceAlpha" type="matrix" values="0 0 0 0 0 0 0 0 0 0 0 0 0 0 0 0 0 0 127 0" result="hardAlpha"/>
<feMorphology radius="1" operator="dilate" in="SourceAlpha" result="effect1_dropShadow_9_1825"/>
<feOffset/>
<feComposite in2="hardAlpha" operator="out"/>
<feColorMatrix type="matrix" values="0 0 0 0 0.898039 0 0 0 0 0.898039 0 0 0 0 0.898039 0 0 0 1 0"/>
<feBlend mode="normal" in2="BackgroundImageFix" result="effect1_dropShadow_9_1825"/>
<feColorMatrix in="SourceAlpha" type="matrix" values="0 0 0 0 0 0 0 0 0 0 0 0 0 0 0 0 0 0 127 0" result="hardAlpha"/>
<feMorphology radius="5" operator="erode" in="SourceAlpha" result="effect2_dropShadow_9_1825"/>
<feOffset dy="4"/>
<feGaussianBlur stdDeviation="4"/>
<feComposite in2="hardAlpha" operator="out"/>
<feColorMatrix type="matrix" values="0 0 0 0 0 0 0 0 0 0 0 0 0 0 0 0 0 0 0.15 0"/>
<feBlend mode="normal" in2="effect1_dropShadow_9_1825" result="effect2_dropShadow_9_1825"/>
<feBlend mode="normal" in="SourceGraphic" in2="effect2_dropShadow_9_1825" result="shape"/>
</filter>
</defs>
</svg>
