<svg width="258" height="237" viewBox="0 0 258 237" fill="none" xmlns="http://www.w3.org/2000/svg">
<path d="M175.461 35.499C176.598 29.0373 179.516 22.1396 183.493 16.9134C190.654 7.50412 200.282 2.09316 211.99 0.524419C214.854 0.424114 217.658 0.353006 220.515 0.667506C228.963 1.59771 237.144 5.52693 243.33 11.3244C251.8 19.1502 256.786 30.0403 257.175 41.5661C257.508 52.6022 253.663 62.9599 246.057 70.9614C243.688 73.4546 240.867 75.6604 237.948 77.4861C236.679 78.2802 234.232 79.1298 233.274 80.1698C230.399 81.505 227.005 82.6158 223.863 83.0659C222.609 83.2457 221.021 83.0679 219.843 83.4504C209.496 83.7108 204.554 83.0067 194.983 78.5586C195.938 80.7861 196.987 83.0226 197.301 85.4507C197.611 87.849 197.483 90.3249 197.479 92.74L197.465 103.733L197.455 134.072C197.453 139.927 197.292 145.839 197.55 151.688C200.724 152.42 203.454 153.839 205.21 156.689C205.986 157.949 206.453 159.309 206.662 160.771C206.975 162.957 206.86 177.273 206.364 179.245C205.785 181.55 204.368 183.646 202.313 184.875C200.784 185.79 199.199 186.019 197.451 186.1L197.456 240.152L35.534 240.125C35.4265 233.969 35.5277 227.811 35.4482 221.655C26.3924 219.92 19.5119 216.514 12.7944 210.247C12.8921 216.602 12.9305 222.957 12.9097 229.313C12.9137 232.522 13.121 235.889 12.901 239.083C12.8739 239.479 12.7958 239.804 12.5374 240.115C12.2859 240.166 12.3105 240.225 12.1414 240.081C11.5563 239.582 11.6581 238.383 11.6618 237.686C11.6907 232.248 11.8939 226.698 11.6291 221.271C11.6959 217.15 11.6089 213.015 11.5965 208.893C6.57344 203.859 3.03315 196.814 1.56422 189.892C-0.669366 179.183 1.40076 168.025 7.32703 158.829C14.1006 148.451 23.4452 143.014 35.4254 140.483C35.5372 133.94 35.458 127.384 35.458 120.84L35.4346 85.5131L35.3941 70.6565C35.382 67.56 35.2071 64.3769 35.5479 61.296C35.8191 58.846 36.6154 56.4395 37.7601 54.2629C41.0476 48.0113 45.5711 44.6651 52.2285 42.5917C53.3782 42.5058 55.7852 42.0826 56.7061 42.8461C56.831 42.9495 56.9414 43.0675 57.0507 43.1866C51.1113 43.5534 46.0195 45.6089 42.0183 50.1541C36.5787 56.3331 36.6195 62.1297 36.6365 69.8604C36.6513 73.4823 36.6455 77.1043 36.6195 80.726L36.7258 80.4583C37.2563 79.0933 37.587 77.6842 38.1764 76.3264C40.7744 70.3411 45.1378 65.6172 51.1258 62.9269C53.6201 61.8062 56.4107 61.0232 59.1458 60.8442C61.5676 60.6858 64.0214 60.75 66.4481 60.7442L78.3445 60.7208L118.3 60.7728L156.923 60.7798C159.97 60.8009 163.018 60.7977 166.065 60.77C167.916 60.7535 169.792 60.6509 171.641 60.7503C173.419 60.846 175.066 61.2449 176.724 61.8933C177.837 62.3289 178.934 62.8382 180.009 63.3631C176.887 57.0512 174.672 50.4446 174.82 43.3036C174.942 40.6888 175.18 38.1008 175.461 35.499ZM154.791 99.1901L154.606 99.0126C154.266 99.0696 153.669 99.0623 153.461 99.3294C152.964 98.4446 152.231 97.5797 151.221 97.2701C150.601 97.0805 149.965 97.1927 149.411 97.5185C148.567 98.0136 148.017 98.9178 147.82 99.8613C147.609 100.872 147.701 102.117 148.324 102.975C148.786 103.609 149.465 103.921 150.229 104.019C151.111 104.133 151.896 104 152.585 103.413C152.965 103.09 153.238 102.651 153.479 102.221C153.973 102.054 154.333 102.049 154.612 101.597C154.829 102.247 155.108 102.992 155.637 103.456C156.243 103.987 157.361 104.099 158.127 104.017C158.764 103.95 159.331 103.678 159.73 103.169C160.374 102.348 160.507 101.075 160.33 100.078C160.155 99.0924 159.62 98.1902 158.781 97.6303C158.249 97.2756 157.599 97.088 156.968 97.2632C155.99 97.5346 155.289 98.359 154.791 99.1901ZM169.799 99.5708C170.252 99.5162 170.441 99.5884 170.733 99.221C170.756 98.7938 170.707 98.5302 170.402 98.2093C169.893 97.6748 169.026 97.269 168.28 97.2999C167.612 97.3277 166.451 97.8983 166.052 98.457C165.824 98.775 165.72 99.0823 165.807 99.474C165.946 100.105 166.494 100.549 167.04 100.833C167.901 101.281 169.22 101.238 169.594 102.216C169.47 102.565 169.402 102.593 169.103 102.821C168.032 103.037 166.361 101.597 165.708 102.045C165.648 102.433 165.673 102.701 165.913 103.028C166.404 103.7 167.071 103.938 167.873 104.025C168.663 104.11 169.639 104.115 170.297 103.594C170.68 103.29 170.85 102.87 170.882 102.389C170.917 101.845 170.778 101.351 170.384 100.959C170.216 100.792 170.028 100.642 169.843 100.493C169.956 100.115 169.885 99.9411 169.799 99.5708ZM97.7212 101.231C99.1905 100.963 100.871 101.111 102.367 101.097C102.299 99.8607 102.277 98.8233 101.256 97.957C100.655 97.4459 99.8574 97.2482 99.0801 97.3184C98.2302 97.3956 97.444 97.8069 96.9326 98.4955C96.3291 99.3078 96.2331 100.363 96.4219 101.331C96.595 102.221 97.0173 103.015 97.7868 103.525C98.5364 104.021 99.4799 104.131 100.349 103.944C100.911 103.823 101.505 103.572 101.835 103.079C101.984 102.857 101.954 102.67 101.973 102.412C101.697 102.038 101.554 102.167 101.184 101.978L101.125 101.552C100.541 100.974 98.7381 101.333 97.8813 101.249C97.8279 101.243 97.7744 101.237 97.7212 101.231ZM150.415 115.838C150.026 116.193 149.74 116.423 149.239 116.595C149.032 116.666 148.86 116.771 148.674 116.886C147.923 116.1 147.16 115.705 146.052 115.673C145.361 115.654 144.731 115.886 144.244 116.382C143.547 117.092 143.283 118.2 143.333 119.168C143.385 120.155 143.791 121.182 144.563 121.826C145.136 122.304 145.826 122.509 146.564 122.393C147.626 122.226 148.32 121.639 149.016 120.873C149.073 120.913 149.761 120.763 150.224 120.917C150.453 120.648 150.294 117.643 150.364 117.011C150.37 116.96 150.377 116.91 150.383 116.859C150.559 118.338 150.096 120.424 150.683 121.781C150.83 122.121 150.963 122.204 151.294 122.341L151.534 122.199C151.934 121.311 151.938 115.966 151.803 114.77C151.734 114.161 151.612 113.559 151.105 113.17L150.837 113.251C150.231 114.038 150.388 114.902 150.415 115.838ZM157.822 117.049L157.745 116.878C157.567 116.491 157.442 116.114 157.021 115.938C156.655 115.784 156.439 115.769 156.07 115.892C155.979 116.192 155.954 116.293 156.053 116.606C156.207 117.092 157.533 120.082 157.825 120.639C157.855 120.697 157.889 120.752 157.92 120.809C158.137 121.206 158.178 121.516 158.065 121.969C157.859 122.788 156.927 123.199 157.095 124.132C157.419 124.397 157.449 124.434 157.862 124.471C158.711 124.062 159.112 123.124 159.412 122.275C159.859 121.011 161.634 116.873 161.48 115.907C161.229 115.68 161.343 115.7 161.022 115.704C160.7 115.707 160.59 115.765 160.327 115.93C160.149 116.286 159.996 116.643 159.848 117.012L159.63 116.947C159.242 117.137 158.795 117.186 158.371 117.111C158.051 117.054 158.238 117.059 157.948 117.049C157.906 117.048 157.864 117.049 157.822 117.049ZM212.613 1.73501C201.458 2.83547 192.058 8.32159 185.018 16.9449C178.186 25.3141 175.147 36.8593 176.284 47.5367C176.695 51.3997 177.712 55.4229 179.364 58.9413C184.239 57.6576 189.104 56.3372 193.959 54.9797C198.066 53.857 202.217 52.7722 206.249 51.4C206.236 48.6146 206.149 45.8061 206.285 43.0238C205.398 41.423 204.415 39.8444 203.907 38.0742C201.954 37.5163 200.26 36.5118 199.226 34.6893C198.403 33.2373 198.283 31.6142 198.126 29.9894C200.107 25.4624 202.661 17.8349 205.639 14.1205C206.507 13.0376 207.575 12.1465 208.865 11.6077C210.076 11.1018 212.274 11.0422 213.482 11.6215C213.682 11.7175 213.824 11.8531 213.974 12.0112L214.057 12.35C213.129 13.0015 210.966 12.328 209.751 12.537C205.61 13.2484 202.321 22.888 200.849 26.4975C205.538 26.6733 209 25.7995 212.514 22.5756C213.712 21.4765 216.794 16.4113 217.999 16.3347C218.877 17.2909 219.447 19.0189 220.013 20.2116C221.627 23.0476 223.803 25.8142 227.097 26.7045C228.266 27.0205 229.52 27.0661 230.725 27.0531C230.091 22.0356 228.43 16.4055 224.231 13.1703C223.104 12.3017 221.328 11.5377 219.86 11.6923C218.654 11.8192 217.549 12.8104 216.35 12.8171L216.213 12.6295C216.373 12.0412 216.502 11.9031 217.031 11.5998C218.783 10.5956 220.64 10.4494 222.563 11.005C225.423 11.8311 227.486 14.4757 228.845 16.9903C230.072 19.2606 231.07 21.8572 231.503 24.4079C231.657 25.3127 231.664 26.2998 231.879 27.1838C232.473 29.6197 234.073 30.2372 233.179 33.2532C232.655 35.0206 231.372 36.4647 229.747 37.3088C229.08 37.6551 228.34 37.8727 227.613 38.0505C227.006 39.9754 226.186 41.5112 225.144 43.2192C225.123 45.9064 224.999 48.6559 225.217 51.3358L252.556 59.3209C256.945 48.8042 257.19 37.5871 252.841 27.0089C248.763 17.0903 240.656 8.62308 230.686 4.53314C225.795 2.52676 217.804 0.899623 212.613 1.73501ZM217.616 17.8196C214.447 22.4507 211.378 26.3698 205.573 27.5087C204.915 27.6379 204.243 27.7246 203.576 27.7937C203.904 33.3188 204.423 39.858 208.818 43.8011C210.316 45.1455 212.106 46.0003 214.058 46.4472C217.171 46.8256 220.039 45.9937 222.524 44.0647C226.472 40.9998 226.989 35.6747 227.533 31.0682C227.647 30.1068 227.757 29.1318 227.784 28.1643C224.174 27.2783 221.708 25.2283 219.79 22.0448C218.976 20.6946 218.459 19.1293 217.616 17.8196ZM201.533 27.711C200.672 27.9729 200.073 28.5094 199.625 29.2934C199.097 30.2187 199.217 31.5047 199.509 32.4846C200.026 34.1829 201.225 35.5906 202.819 36.3716C203.086 36.5046 203.361 36.6202 203.637 36.733C203.259 34.8807 202.907 33.0231 202.582 31.1607C202.071 31.3711 201.542 31.6738 200.979 31.5784L200.714 31.3865C200.728 31.0063 200.815 30.8107 201.091 30.5352C201.436 30.1895 201.947 30.0406 202.402 29.9073C202.41 29.4876 202.414 29.0676 202.427 28.6479C202.437 28.3053 202.404 28.1374 202.226 27.8431C201.979 27.748 201.796 27.72 201.533 27.711ZM229.642 28.1964C229.204 28.3895 229.051 28.3831 228.826 28.8187C228.85 29.2263 228.876 29.6333 228.905 30.0403C229.808 30.3886 230.451 30.554 230.946 31.4532L230.918 31.7929C230.625 31.938 230.435 31.9617 230.114 31.8591C229.646 31.7099 229.163 31.3165 228.763 31.0387C228.424 32.7959 228.263 34.5711 227.968 36.3329L228.19 36.5066C229.432 36.3184 230.484 35.4065 231.188 34.4089C232.067 33.1622 232.397 31.6836 232.086 30.1837C231.94 29.4789 231.614 28.9777 230.992 28.6092C230.564 28.3554 230.135 28.2261 229.642 28.1964ZM207.427 44.2197C207.426 46.2009 207.106 50.614 207.574 52.4056C207.698 52.8826 207.983 53.3055 208.332 53.6486C210.173 55.4587 213.994 55.7463 216.428 55.655C218.657 55.5712 221.788 55.0124 223.374 53.2936C223.609 53.0396 223.765 52.7774 223.9 52.4588C223.942 49.7966 223.95 47.1337 223.922 44.4715C221.111 46.5998 218.02 48.2166 214.376 47.7205C212.454 47.4589 210.554 46.5498 208.991 45.4254C208.464 45.0461 207.968 44.5639 207.427 44.2197ZM225.373 52.6349C223.824 54.9196 221.719 56.0605 219.042 56.5809C215.797 57.2113 211.177 57.0399 208.333 55.172C207.415 54.5687 206.72 53.7781 206.196 52.8167C197.449 55.4396 188.509 57.4556 179.798 60.1716C184.052 69.3823 191.495 76.4111 201.02 79.9336C202.03 80.2984 203.056 80.6164 204.094 80.8861C214.866 83.4524 226.689 82.9867 236.314 77.0852C242.725 73.1543 248.732 67.4528 251.96 60.5702C245.987 58.4563 239.762 56.8376 233.668 55.0931C230.922 54.3071 228.161 53.2341 225.373 52.6349ZM52.5468 75.4306C52.2583 75.8512 52.1401 75.924 52.1572 76.4473C52.7096 77.4382 53.6689 78.0166 54.4379 78.8251C53.7672 79.542 52.2352 80.9011 52.256 81.9233C52.2575 81.997 52.2893 82.0669 52.306 82.1386C52.8292 82.2135 53.4796 81.8206 53.8823 81.5015C54.4876 81.0217 55.0313 80.3539 55.5562 79.7859C56.4402 80.6517 57.3886 81.7929 58.4807 82.3863C58.7261 82.0337 58.9692 81.8438 58.875 81.383C58.6955 80.5034 57.1842 79.4911 56.5619 78.8514C57.3603 78.1229 58.3893 77.3543 58.9709 76.449C58.9704 76.031 58.9669 76.0538 58.6822 75.7445C58.2809 75.6575 58.1746 75.5968 57.8034 75.8275C56.9738 76.3429 56.3399 77.3072 55.5189 77.8963C54.6729 77.0424 53.6947 75.8307 52.5468 75.4306ZM181.983 78.3163C179.743 78.4617 178.046 80.3967 178.195 82.6361C178.343 84.8755 180.281 86.5696 182.52 86.4182C184.755 86.2667 186.445 84.334 186.297 82.099C186.148 79.864 184.218 78.1712 181.983 78.3163ZM81.4111 94.4142C81.0489 94.6027 80.896 95.0406 81.0622 95.4138C81.2288 95.787 81.6568 95.9659 82.0393 95.8222C82.3081 95.7214 82.4986 95.48 82.5341 95.195C82.5697 94.9102 82.4445 94.629 82.2087 94.4651C81.9731 94.3012 81.6658 94.2815 81.4111 94.4142ZM68.7285 94.8981C68.7268 97.5656 68.4377 100.941 68.8297 103.507C69.0844 103.708 69.2353 103.797 69.5882 103.749C69.705 103.734 69.8313 103.656 69.9339 103.601C70.2528 102.889 70.1004 101.484 70.1079 100.678L72.3748 100.662C73.2821 100.53 74.0178 100.415 74.6193 99.6543C75.1787 98.9464 75.4478 98.0333 75.2949 97.1366C75.181 96.4686 74.8107 95.9 74.2548 95.5144C72.8497 94.5403 70.3808 94.8718 68.7285 94.8981ZM140.927 95.1652C140.907 97.0814 140.582 102.064 141.247 103.578C141.707 103.935 142.807 103.767 143.432 103.928C144.126 104.107 144.78 104.005 145.395 103.629C145.707 103.438 145.939 103.214 146.175 102.938C146.704 101.673 146.825 100.259 146.291 98.967C146.016 98.303 145.551 97.6526 144.843 97.4132C144.263 97.2173 143.52 97.3375 142.997 97.6439C142.785 97.7682 142.603 97.9379 142.415 98.0951C142.365 98.1373 142.314 98.1784 142.263 98.22C142.265 97.602 142.264 96.9895 142.311 96.3726C142.34 96.0046 142.294 95.7826 142.172 95.4363C141.886 95.145 141.837 95.1288 141.405 95.127C141.268 95.1265 141.069 95.1505 140.927 95.1652ZM92.4857 95.9387C92.4623 96.3648 92.5296 97.0901 92.2484 97.3913L91.6792 97.4208C91.5402 97.7419 91.6049 97.8639 91.648 98.2033C91.9024 98.4961 92.0449 98.4279 92.3166 98.623C92.9098 99.0499 91.5922 104.097 94.1478 104.113C94.536 104.115 94.9592 103.982 95.3353 103.891C95.5454 103.578 95.5593 103.301 95.5969 102.939C95.5399 102.907 95.4842 102.874 95.4266 102.844C94.9563 102.6 94.3814 102.791 93.9842 102.42C93.7255 101.569 93.5156 99.5841 93.8614 98.7499C93.9154 98.6195 93.9171 98.6207 94.0588 98.5932C94.6158 98.4845 95.0026 98.8447 95.5212 98.5519C95.631 98.157 95.5914 98.1434 95.424 97.7619C94.8083 97.2979 93.977 97.5763 93.8799 97.0892C93.8732 97.0557 93.8588 96.792 93.857 96.7675C93.8356 96.4564 93.7761 96.2943 93.6024 96.0281C93.2274 95.8341 92.8889 95.9014 92.4857 95.9387ZM123.124 97.2462C122.283 97.428 121.66 97.6058 121.156 98.3472C120.888 98.7421 120.64 99.2398 120.783 99.7266C120.942 100.267 121.51 100.589 121.996 100.791C122.854 101.149 124.07 101.239 124.485 102.15C124.364 102.54 124.319 102.568 124 102.829C122.691 103.121 121.597 101.746 120.571 101.984C120.499 102.385 120.619 102.741 120.859 103.08C121.306 103.714 122.182 103.95 122.904 104.068C123.839 104.013 124.664 103.984 125.347 103.257C125.648 102.937 125.824 102.42 125.791 101.978C125.757 101.511 125.59 101.166 125.222 100.867C124.377 100.183 122.501 100.165 122.14 99.1494C122.282 98.8065 122.31 98.7022 122.683 98.5542C122.867 98.481 123.13 98.4877 123.327 98.4729C123.388 98.4683 123.449 98.453 123.51 98.4576C124.289 98.5183 124.765 99.596 125.707 99.4101C125.852 99.115 125.846 98.8736 125.711 98.568C125.425 97.9194 124.775 97.6188 124.133 97.419C123.803 97.3164 123.466 97.2777 123.124 97.2462ZM77.2934 97.2661C76.8934 97.5994 76.8081 97.6971 76.7622 98.2197C76.6795 99.1635 76.5612 103.29 76.9685 103.812C77.3958 103.83 77.6105 103.861 77.9886 103.627C78.2442 103.137 78.1219 102.447 78.0982 101.907C78.0887 101.125 77.9907 100.262 78.2514 99.5167C78.8252 98.9615 79.6392 98.5036 80.0447 97.8202L80.0144 97.5488C79.7438 97.3713 79.4996 97.23 79.1599 97.2835C78.855 97.3312 78.5173 97.6026 78.2667 97.7754C78.0031 97.6832 77.8961 97.5982 77.7111 97.3901L77.2934 97.2661ZM81.1319 97.3363C81.1175 99.3569 80.9012 101.612 81.1839 103.604C81.5828 103.8 81.9919 103.765 82.4252 103.768C82.4365 101.734 82.6452 99.4763 82.3653 97.4713C81.9702 97.282 81.5592 97.3297 81.1319 97.3363ZM84.3521 97.3083C84.3203 99.0482 83.924 101.9 85.1984 103.266C85.6945 103.798 86.3827 103.989 87.0912 104.003C87.7448 104.017 88.3382 103.588 88.8817 103.266C89.0707 103.418 89.2106 103.56 89.3766 103.74C89.5607 103.939 89.6205 103.996 89.8706 104.071C90.1255 103.869 90.2079 103.746 90.2553 103.416C90.4553 102.018 90.209 100.474 90.2354 99.0537C90.2469 98.4943 90.3475 97.9902 90.07 97.4942C89.7 97.3476 89.5511 97.3442 89.1655 97.4404C88.8701 97.715 88.7874 97.9662 88.7635 98.3593C88.6895 99.5656 89.1106 101.337 88.235 102.309C87.9558 102.62 87.306 102.941 86.8915 102.916C86.5504 102.896 86.3388 102.682 86.1506 102.42C85.0701 100.919 86.0781 98.5767 85.4814 97.3401C85.1048 97.3196 84.7293 97.291 84.3521 97.3083ZM109.443 97.3693C109.167 97.5607 108.903 97.7783 108.632 97.9677C108.589 97.9974 108.386 98.0865 108.332 98.1105L108.702 97.9026L108.344 98.1483L108.349 97.654C108.088 97.456 107.613 97.4427 107.283 97.5011C107.194 97.5167 107.11 97.5531 107.024 97.5792C106.801 98.5016 106.719 102.727 107.137 103.533C107.489 103.79 107.535 103.799 107.972 103.823C108.238 103.559 108.285 103.398 108.298 103.019C108.339 101.861 107.889 99.896 108.747 99.0051C108.946 98.7952 109.176 98.6178 109.43 98.4796C109.48 98.4822 109.53 98.4842 109.58 98.4871C110.075 98.5186 110.483 98.5522 110.794 98.9993C111.782 100.423 110.36 102.719 111.57 103.829C111.975 103.906 111.968 103.946 112.306 103.722C112.755 102.39 112.76 99.9535 112.152 98.6866C111.866 98.0891 111.431 97.6193 110.798 97.3933C110.414 97.256 109.846 97.3459 109.443 97.3693ZM115.98 97.3681C115.05 97.7708 114.493 98.1584 114.092 99.1207C113.684 100.097 113.675 101.304 114.099 102.277C114.415 103.002 114.989 103.558 115.733 103.834C116.465 104.106 117.396 104.148 118.109 103.804C118.609 103.564 119.259 103.173 119.456 102.622C119.53 102.415 119.482 102.44 119.389 102.194C119.067 102.011 118.818 102.045 118.459 102.05C117.964 102.55 117.634 102.869 116.905 102.879C116.416 102.886 115.886 102.717 115.553 102.345C115.312 102.077 115.121 101.704 115.125 101.344C116.072 100.535 119.674 102.032 119.761 100.225C119.797 99.4806 119.329 98.4507 118.779 97.9541C117.998 97.2491 116.955 97.321 115.98 97.3681ZM128.694 97.3647C127.921 97.8341 127.406 98.2524 127.167 99.156C126.893 100.189 126.695 101.683 127.284 102.631C127.628 103.185 128.244 103.494 128.871 103.612C129.271 103.687 131.147 103.48 131.156 103.485C131.226 103.52 131.25 103.612 131.297 103.675C131.225 104.28 130.934 104.77 130.452 105.145C130.279 105.279 130.115 105.31 129.904 105.338C129.01 105.102 128.085 104.25 127.217 104.222L127.023 104.42C127.058 104.747 127.141 104.955 127.289 105.248C127.961 105.989 128.698 106.587 129.745 106.631C130.501 106.656 131.232 106.357 131.755 105.811C133.138 104.346 132.76 100.624 132.649 98.7262C132.626 98.3273 132.615 97.8997 132.469 97.5254C132.123 97.3647 131.959 97.3511 131.581 97.3997C131.409 97.554 131.31 97.6647 131.172 97.8575C130.404 97.6824 129.881 97.2768 129.056 97.334C128.981 97.3392 128.906 97.3418 128.831 97.3482C128.785 97.3522 128.739 97.3592 128.694 97.3647ZM136.084 97.3705C135.159 97.7653 134.567 98.1691 134.167 99.1245C133.745 100.137 133.757 101.279 134.2 102.282C134.52 102.996 135.091 103.564 135.824 103.845C136.599 104.142 137.623 104.173 138.375 103.793C138.959 103.499 139.314 103.04 139.523 102.433L139.457 102.093C139.156 101.95 138.905 101.918 138.579 102.047C138.542 102.062 138.513 102.091 138.48 102.113C138.442 102.145 138.405 102.177 138.367 102.209C137.881 102.613 137.433 102.875 136.78 102.813C136.348 102.771 135.771 102.507 135.513 102.144C135.293 101.834 135.31 101.73 135.348 101.375C136.187 100.659 138.713 101.089 139.876 101.074C139.706 99.9084 139.582 98.5504 138.516 97.8231C137.788 97.326 136.93 97.3132 136.084 97.3705ZM164.125 97.341C163.609 97.5945 163.34 97.7983 162.76 97.774C162.544 97.6422 162.328 97.5118 162.111 97.3829L161.655 97.513C161.336 98.2434 161.429 102.887 161.634 103.762L161.857 104.026C162.078 103.974 162.485 103.949 162.618 103.759C163.525 102.459 161.717 99.345 163.749 98.7458C164.026 98.664 164.883 98.7221 165.029 98.6042C165.055 98.1576 165.062 98.0787 164.858 97.6852C164.607 97.5239 164.414 97.4156 164.125 97.341ZM153.522 113.533C153.52 116.269 153.251 119.426 153.602 122.11C154.04 122.241 154.39 122.25 154.845 122.236C154.847 120.748 155.172 114.429 154.603 113.621C154.223 113.503 153.912 113.515 153.522 113.533ZM76.3618 114.362C76.3693 115.011 76.4942 115.441 76.0034 115.945C75.8811 116.07 75.751 116.189 75.6224 116.307C75.6045 116.66 75.5472 116.659 75.7623 116.965L76.2491 117.085C76.9058 118.731 75.3374 121.374 77.6077 122.243C78.1976 122.468 78.7064 122.336 79.2851 122.15C79.4987 121.946 79.582 121.814 79.6802 121.535C78.8411 120.681 77.645 121.714 77.6554 119.946C77.6603 119.122 77.4663 117.905 77.7374 117.15C78.1025 116.988 78.4321 117.033 78.8188 117.056C79.0033 116.858 79.0929 116.711 79.1041 116.427C79.1105 116.267 79.0507 116.118 78.9116 116.041C78.4549 115.787 77.8863 116.03 77.4787 115.679C77.4481 115.363 77.4692 115.085 77.5042 114.77C77.3148 114.493 77.2504 114.413 76.8876 114.363C76.7529 114.344 76.504 114.357 76.3618 114.362ZM138.652 114.554C138.633 114.995 138.741 115.407 138.369 115.705C138.041 115.967 137.605 116.063 137.42 116.469C137.51 116.74 137.469 116.874 137.785 116.981C137.857 117.005 138.186 117.027 138.269 117.034C139.259 118.491 136.918 121.834 140.204 122.369C140.832 122.471 141.366 122.333 141.942 122.096C142.206 121.734 142.168 121.552 142.195 121.112C142.151 121.087 142.11 121.057 142.063 121.039C141.244 120.72 140.579 121.426 139.84 120.642C139.621 119.491 139.744 118.157 139.799 116.983C140.462 117.015 141.22 117.187 141.76 116.754C141.84 116.428 141.88 116.274 141.755 115.957C141.284 115.687 139.964 116.057 139.842 115.582C139.799 115.415 139.857 115.114 139.869 114.937C139.634 114.625 139.623 114.573 139.215 114.53C139.042 114.512 138.822 114.543 138.652 114.554ZM82.315 115.73C81.3345 116.093 80.6512 116.508 80.2098 117.5C79.8144 118.388 79.8462 119.423 80.2182 120.313C80.594 121.191 81.3204 121.871 82.2211 122.188C82.7272 122.362 83.2924 122.379 83.8231 122.353C84.7209 122.09 85.3392 121.73 85.8196 120.899C86.3209 120.031 86.3934 118.935 86.1127 117.982C85.8699 117.158 85.3031 116.427 84.535 116.029C83.8338 115.665 83.0822 115.672 82.315 115.73ZM92.932 115.725C92.0171 115.953 91.3665 116.237 90.8505 117.065C90.318 117.923 90.1544 118.959 90.3967 119.94C90.6002 120.782 91.0921 121.579 91.8495 122.024C92.5392 122.427 93.361 122.539 94.1334 122.335C94.9072 122.131 95.6099 121.551 95.9871 120.846C96.1684 120.506 96.1614 120.315 96.0614 119.958C95.679 119.748 95.5847 119.76 95.1433 119.773L94.8953 119.938L94.8659 120.12C94.5392 120.644 94.2892 121.046 93.6353 121.171C93.1234 121.268 92.6753 121.11 92.2909 120.774C91.811 120.354 91.6437 119.653 91.6451 119.043C91.6466 118.458 91.7509 117.603 92.2212 117.193C92.5374 116.917 92.9716 116.916 93.3581 117.002C94.3224 117.216 95.0575 117.998 96.0016 118.201L96.1712 118.012C96.0126 117.266 95.7859 116.658 95.1274 116.214C94.4672 115.768 93.7024 115.728 92.932 115.725ZM99.7923 115.753C98.8766 116.04 98.2487 116.36 97.7831 117.238C97.3139 118.124 97.2937 119.213 97.6053 120.154C97.8834 120.994 98.4835 121.739 99.2911 122.12C99.886 122.401 100.56 122.393 101.204 122.35C102.19 121.96 102.889 121.436 103.305 120.428C103.675 119.533 103.674 118.451 103.285 117.563C102.942 116.778 102.28 116.13 101.457 115.866C100.916 115.692 100.353 115.719 99.7923 115.753ZM107.733 115.733C107.363 115.967 106.998 116.208 106.618 116.425L106.459 116.289C106.148 116.028 105.9 115.744 105.476 115.716C105.217 115.852 105.053 115.877 105.002 116.199C104.858 117.089 104.886 121.279 105.222 121.933C105.558 122.2 105.616 122.204 106.047 122.249L106.3 122.137C106.711 120.75 105.722 117.877 107.367 117.089C107.723 116.919 108.171 116.829 108.547 116.967C108.791 117.057 108.892 117.244 109.006 117.47C109.667 118.786 108.55 120.698 109.488 121.988C109.846 122.149 109.926 122.179 110.315 122.149C110.645 121.701 110.515 121.001 110.512 120.444C110.498 119.379 110.275 118.135 111.1 117.31C111.322 117.089 111.633 116.865 111.954 116.84C112.294 116.815 112.551 116.979 112.762 117.234C113.823 118.513 112.326 120.921 113.519 122.089C113.877 122.146 113.954 122.174 114.284 122.038C114.731 121.183 114.476 118.102 114.173 117.149C113.998 116.597 113.661 115.98 113.102 115.74C112.458 115.465 111.571 115.655 110.981 115.987C110.674 116.16 110.388 116.387 110.108 116.6C109.185 116.002 108.918 115.624 107.733 115.733ZM119.103 115.729C118.599 115.816 118.367 115.908 117.966 116.219C117.793 116.352 117.646 116.376 117.435 116.401C117.166 116.056 117.103 115.89 116.679 115.751L116.274 115.927C116.082 116.576 116.142 121.408 116.383 122.058C116.679 122.212 116.844 122.179 117.168 122.132C117.585 121.758 117.672 121.456 117.694 120.902C117.735 119.862 117.256 118.176 118.045 117.358C118.363 117.028 118.757 116.849 119.217 116.88C119.583 116.905 119.784 117.029 120.059 117.257C120.456 118.034 120.096 122.043 120.635 122.223C120.954 122.33 121.164 122.228 121.436 122.091C121.786 121.56 121.654 120.771 121.645 120.155C121.649 119.176 121.522 118.151 122.261 117.38C122.511 117.119 122.959 116.92 123.333 116.94C123.674 116.958 123.948 117.038 124.165 117.318C125.027 118.435 123.87 121.906 124.988 122.281C125.402 122.168 125.455 122.135 125.751 121.823C126.136 120.588 125.919 117.827 125.365 116.707C125.144 116.259 124.806 115.808 124.321 115.627C123.743 115.412 122.914 115.678 122.423 116.014C122.149 116.201 121.965 116.409 121.749 116.657L121.467 116.74C120.631 116.102 120.204 115.722 119.103 115.729ZM133.093 115.744C132.238 115.936 131.815 116.048 131.309 116.798C131.185 116.982 131.133 117.152 131.091 117.368C131.263 117.718 131.32 117.677 131.696 117.807C132.732 117.713 133.212 116.142 134.424 117.191C134.664 117.399 134.979 117.778 135.032 118.098C135.042 118.154 135.018 118.21 135.011 118.267C133.753 118.852 131.517 117.661 130.792 119.465C130.622 119.886 130.7 120.489 130.8 120.916C131.22 121.529 131.763 122.17 132.535 122.317C133.396 122.482 134.552 121.414 135.2 121.948C135.416 122.126 135.508 122.148 135.777 122.186C136.014 122.082 136.03 122.132 136.138 121.869C136.577 120.797 136.492 118.246 136.019 117.2C135.752 116.61 135.306 116.103 134.684 115.887C134.208 115.723 133.594 115.714 133.093 115.744ZM127.442 115.829C127.573 116.422 127.717 117.028 127.753 117.636C127.798 118.4 127.561 121.785 128.022 122.162L129.161 122.173C129.17 120.728 129.669 117.046 128.686 116.047C128.372 115.727 127.853 115.807 127.442 115.829ZM38.7215 141.234C27.9941 142.201 18.0839 147.369 11.1499 155.611C4.11632 164.028 1.10577 174.443 2.10916 185.309C2.48763 189.409 3.55413 193.629 5.38077 197.33C14.7077 194.437 24.0869 191.538 33.284 188.255C33.3149 185.204 33.138 181.928 33.5779 178.915C32.6966 177.548 31.8236 176.226 31.1594 174.735C29.2024 174.632 27.584 174.237 26.2138 172.706C25.281 171.665 24.7798 170.324 24.8792 168.922C24.9509 167.913 25.3642 166.978 26.1363 166.311C26.9457 165.613 27.8005 165.33 28.8417 165.196C28.9027 163.011 28.5853 158.077 29.1825 156.323C29.4767 155.458 30.0953 154.73 30.7483 154.109C33.943 151.069 40.949 148.785 45.3069 148.937C46.3406 148.973 47.1197 149.203 47.9207 149.865C48.6872 150.842 49.0087 151.851 49.3671 153.016L49.5166 153.109C50.5667 153.756 51.468 153.97 52.6844 153.69C53.9071 153.408 55.3747 152.56 56.5945 153.273C57.2134 153.634 57.499 154.292 57.6511 154.964C57.9352 156.22 57.9494 157.506 57.2397 158.625C56.7203 159.444 55.9439 160.022 55.1614 160.568C55.1946 162.073 55.2088 163.577 55.2039 165.082C56.8316 165.235 58.3185 165.494 59.4404 166.819C60.1809 167.71 60.5382 168.859 60.4333 170.012C60.3258 171.293 59.6791 172.427 58.6891 173.236C57.6144 174.114 56.3899 174.416 55.0518 174.608C54.3587 175.77 53.6947 176.967 52.9457 178.093C52.8486 181.447 52.9292 184.812 52.9535 188.167C61.8873 191.265 70.7867 194.467 79.8005 197.323C80.7197 195.041 81.6216 192.795 82.2055 190.397C84.0708 182.738 83.2224 174.184 80.1413 166.962C75.5198 156.13 67.3416 148.271 56.4182 143.888C50.9454 141.692 44.6236 140.617 38.7215 141.234ZM44.0588 150.163C40.2157 150.569 33.667 152.43 31.0877 155.505C30.7168 155.947 30.4 156.475 30.2482 157.036C29.745 158.896 30.1329 163.384 30.0653 165.557C31.4054 164.859 32.4711 164.025 33.4271 162.844L33.5251 162.66C34.5726 160.651 33.4522 159.1 34.2697 158.233C35.0556 158.369 35.8173 158.743 36.5995 158.937C39.5199 159.66 42.8754 159.781 45.4619 158.007C46.7421 157.129 47.7267 155.789 48.0091 154.245C48.2002 153.203 48.0872 151.968 47.4425 151.094C47.0072 150.503 46.4898 150.269 45.7764 150.175C45.1948 150.099 44.6412 150.114 44.0588 150.163ZM141.194 152.778C137.253 152.845 133.818 153.176 130.938 156.197C127.578 159.723 127.934 163.999 127.944 168.518C127.949 170.703 127.889 172.903 127.96 175.086C128.036 177.943 129.269 180.646 131.376 182.575C132.751 183.842 134.467 184.678 136.312 184.982C138.661 185.35 141.169 185.143 143.542 185.121L153.117 185.11L192.492 185.086C196.234 185.103 200.364 185.549 203.242 182.631C204.257 181.603 204.929 180.258 205.245 178.855C205.876 176.056 205.534 172.704 205.531 169.826C205.527 167.373 205.619 164.913 205.574 162.461C205.523 159.738 204.578 157.162 202.583 155.262C201.346 154.084 199.594 153.23 197.909 152.97C196.064 152.687 194.022 152.848 192.156 152.849L181.412 152.851L155.041 152.779C150.434 152.777 145.799 152.633 141.194 152.778ZM55.2125 154.001C53.4785 154.837 52.0866 155.522 50.1461 154.829C49.8123 154.71 49.4891 154.566 49.1685 154.415C48.6046 156.597 47.57 158.316 45.5743 159.482C42.3524 161.366 38.9146 160.619 35.4641 159.988C35.5072 161.763 35.2028 163.008 33.9248 164.337C33.3958 164.887 32.8336 165.398 32.1803 165.796L32.1191 165.775L32.0754 166.01L32.0396 165.939C32.0526 167.143 32.3769 169.692 31.7164 170.637C31.3305 170.854 31.0137 170.843 30.6015 170.72C29.8323 170.489 28.5344 169.794 28.128 169.097C28.097 169.044 28.0768 168.986 28.0514 168.93L28.1583 168.681C29.0009 168.514 29.4689 168.704 30.2199 169.09L30.8249 169.4L30.8426 166.923C29.7334 166.624 28.5711 166.225 27.4946 166.862C26.5956 167.394 26.2574 168.431 26.008 169.38C26.2962 170.662 26.7263 171.921 27.8788 172.69C29.216 173.583 31.0281 172.917 31.6401 173.309C32.098 173.602 32.5376 174.818 32.7755 175.32C33.9274 177.754 35.8523 179.839 37.8633 181.598C39.6971 182.951 41.4471 183.94 43.8368 183.591C47.0332 183.123 49.7221 180.673 51.5357 178.135C52.4728 176.824 53.1203 174.65 54.3211 173.612C55.7753 172.356 57.9592 173.713 58.9056 170.9C59.1117 170.287 59.2291 169.604 59.1082 168.961C58.9406 168.069 58.3879 167.391 57.6222 166.928C56.8813 166.48 56.063 166.377 55.2166 166.303C55.1235 167.308 55.07 168.303 55.0437 169.311L55.1926 169.181C55.636 168.8 56.1005 168.386 56.7243 168.417C56.7787 168.42 56.8322 168.434 56.8862 168.443C57.0472 168.773 57.0461 168.832 56.9093 169.202C56.6449 169.919 55.7699 170.645 55.0524 170.866C54.7211 170.969 54.459 170.913 54.1332 170.83C53.8219 170.574 53.725 170.441 53.6981 170.024C53.6421 169.157 53.8788 168.251 53.9063 167.379C53.9777 165.128 53.9271 162.864 53.9112 160.612C52.7098 160.368 51.1983 159.951 50.4875 158.85C50.2915 158.543 50.1352 158.213 50.0218 157.868L50.2569 157.614C51.7802 158.112 53.4244 159.898 55.1547 159.037C55.7713 158.731 56.1182 158.114 56.3055 157.475C56.557 156.616 56.5867 155.46 56.1182 154.665C55.8988 154.294 55.614 154.119 55.2125 154.001ZM51.601 179.992C49.3981 182.454 46.9234 184.562 43.4752 184.788C40.8354 184.962 38.2978 183.735 36.3819 181.986C35.7589 181.417 35.1736 180.795 34.5871 180.189L34.5616 188.403L34.5379 191.721C39.9778 192.858 46.3464 193.249 51.6331 191.195C51.7036 188.722 51.7224 186.247 51.69 183.773C51.6837 182.548 51.7684 181.2 51.601 179.992ZM52.946 189.479C52.9197 190.161 53.0287 191.441 52.5075 191.948C50.4468 193.953 40.6912 193.876 37.8032 193.501C36.2743 193.303 34.7073 193.027 33.3002 192.376C33.2753 191.481 33.2802 190.573 33.2207 189.68C30.6711 190.411 28.1864 191.359 25.6559 192.156C19.0098 194.207 12.383 196.32 5.77679 198.495C10.4819 207.999 18.7245 215.28 28.7359 218.777C29.227 218.943 29.7216 219.098 30.2196 219.242C41.1106 222.344 52.6347 221.364 62.6221 215.854C69.3072 212.165 76.1048 205.677 79.1307 198.556C77.793 197.852 76.2392 197.431 74.8101 196.94L65.7836 193.929C63.3228 193.089 60.8695 192.225 58.4246 191.339C56.6229 190.685 54.8087 189.935 52.946 189.479Z" fill="#1C1741"/>
</svg>
