<svg width="296" height="228" viewBox="0 0 296 228" fill="none" xmlns="http://www.w3.org/2000/svg">
<g clip-path="url(#clip0_3_779)">
<path d="M148.744 81.5801C145.965 79.6012 127.556 64.6119 126.498 64.3925C126.291 64.3494 126.079 64.3147 125.87 64.2728L125.585 64.2176C124.636 63.2255 123.875 61.9854 123.133 60.8358C119.995 55.9752 117.811 50.588 117.614 44.753C117.354 37.0919 120.629 28.7257 125.85 23.1438C131.916 16.6581 139.934 13.393 148.709 13.0729C149.975 13.0417 151.28 13.0825 152.541 13.1944C160.888 13.9353 169.313 18.2686 174.654 24.7484C179.541 30.6774 182.165 38.7344 181.427 46.4081C181.006 50.7811 179.586 55.3636 176.996 58.9511C173.756 63.4394 168.782 66.5633 164.395 69.85C159.577 73.4603 154.613 77.0288 149.981 80.8739C149.58 81.124 149.155 81.3463 148.744 81.5801ZM157.018 37.8689C157.352 38.4728 157.421 39.1498 157.516 39.825C158.227 39.93 158.982 40.1025 159.699 40.1103C160.52 40.7931 161.125 41.6588 161.191 42.7602C161.258 43.847 160.758 44.9409 160.01 45.7098C159.068 46.6778 158.063 46.9472 156.798 47.2363C156.161 50.031 154.787 51.898 152.742 53.8249C152.965 54.8372 153.172 55.8469 153.346 56.8684C155.637 56.9488 157.932 56.7199 160.213 56.8144C163.853 59.1454 167.343 61.7562 171.017 64.0184C176.034 60.6196 179.283 54.9971 180.414 49.1146C181.891 41.4389 180.058 33.6304 175.677 27.2086C170.936 20.2594 163.151 15.6695 154.936 14.1633C146.507 12.6178 138.035 14.6313 131.039 19.5267C124.432 24.1798 119.971 31.2919 118.658 39.2657C117.263 47.3438 119.663 54.8887 124.349 61.4807C124.913 62.2742 125.506 63.0116 126.206 63.6906C128.217 62.1641 134.908 57.1335 136.985 56.8132C138.928 56.5138 141.47 56.8208 143.488 56.8141C143.588 55.7492 143.647 54.6586 143.816 53.6035C141.87 51.9778 140.669 50.2324 139.894 47.7925C138.422 47.3603 137.572 46.8201 136.547 45.6407C136.399 45.1305 136.242 44.5986 136.185 44.0682C136.091 43.192 136.192 42.2358 136.779 41.5377C137.571 40.5983 138.534 40.4763 139.675 40.3653C140.017 40.9755 139.928 41.8329 139.951 42.5243C140.06 45.8881 140.401 48.9973 142.675 51.6578C144.027 53.2387 145.92 54.4568 148.039 54.5857C149.939 54.7016 151.735 53.8547 153.099 52.577C157.038 48.8886 156.827 42.8504 157.018 37.8689ZM157.51 40.4587C157.407 42.4223 157.253 44.383 157.049 46.3385C157.852 46.2309 158.515 46.1636 159.201 45.6783C159.928 44.8478 160.472 43.8462 160.423 42.7053C160.394 42.0303 160.12 41.3998 159.596 40.9622C158.97 40.4384 158.281 40.4812 157.51 40.4587ZM138.915 40.8662C138.086 41.1322 137.492 41.4207 137.059 42.2127C136.638 42.9825 136.65 43.9098 136.939 44.7212C137.212 45.4881 137.644 46.0384 138.263 46.5532C138.681 46.7007 139.186 46.9472 139.628 46.8877C139.63 46.0326 139.37 45.2244 139.311 44.3731C139.236 43.2944 139.458 42.2136 139.277 41.1414C139.158 41.0388 139.056 40.9356 138.915 40.8662ZM144.467 54.0871C143.996 57.1113 142.896 63.2148 144.717 65.8355C145.44 66.8584 146.553 67.5386 147.793 67.7164C149.176 67.9025 150.463 67.3403 151.512 66.4731C151.583 66.4147 151.651 66.354 151.721 66.2945C152.075 65.8302 152.431 65.373 152.627 64.8156C153.421 62.5543 152.996 58.8268 152.686 56.4716C152.58 55.6683 152.455 54.8754 152.269 54.0868C150.181 55.15 148.302 55.5518 146.008 54.7716C145.471 54.5892 144.971 54.3443 144.467 54.0871Z" fill="#1C1741"/>
<path d="M52.688 56.185C52.5501 56.1255 52.4697 56.0385 52.3599 55.9382C52.3966 55.8162 52.4024 55.7705 52.4842 55.652C53.0294 54.8628 54.0665 54.1249 54.7906 53.4693C56.7325 51.7112 58.6404 49.9644 60.6623 48.2965C78.3443 33.6659 99.3467 23.5988 121.827 18.9783L122.031 19.132L122.011 19.4661C120.832 20.115 116.295 20.7619 114.602 21.2166C110.319 22.3936 106.091 23.7653 101.933 25.3272C88.012 30.4466 74.9897 37.7373 63.3492 46.9292C61.1997 48.6416 59.0534 50.3905 57.0129 52.2318C55.611 53.4967 54.3027 54.9117 52.823 56.0801L52.688 56.185Z" fill="#1C1741"/>
<path d="M224.038 39.8851C223.435 39.9233 222.984 39.6934 222.459 39.433C221.045 38.7314 219.712 37.7943 218.321 37.028C214.165 34.738 209.928 32.438 205.592 30.5099C200.092 27.999 194.462 25.7846 188.726 23.8762C186.364 23.0922 183.992 22.3415 181.609 21.6245C180.843 21.3939 179.714 21.2447 179.019 20.9016C178.794 20.7905 178.806 20.6118 178.729 20.3891C180.497 20.1801 186.632 22.4808 188.625 23.1358C199.453 26.8012 209.904 31.5 219.833 37.167C220.834 37.7261 223.549 38.9167 224.038 39.8851Z" fill="#1C1741"/>
<path d="M157.018 37.8689C155.445 36.6664 151.747 35.9556 149.815 35.951C147.929 38.1027 146.521 39.9556 143.382 40.1568C142.159 40.2352 140.94 39.9363 139.718 40.1213L139.597 40.2794L139.675 40.3652C138.534 40.4762 137.571 40.5982 136.779 41.5377C136.192 42.2358 136.092 43.192 136.185 44.0681C136.242 44.5986 136.399 45.1304 136.547 45.6406C135.406 45.3715 134.394 44.8445 133.617 43.9531C132.175 42.2985 131.732 39.4073 133.011 37.5266C133.614 36.6389 134.662 35.8911 135.012 34.8557C135.42 33.6468 135.223 32.2125 135.312 30.9499C135.45 28.9441 136.392 27.0789 137.925 25.7785C140.719 23.4467 143.555 24.1474 146.815 24.4859C148.942 23.6064 150.243 22.0364 152.803 22.3749C155.162 22.6867 156.985 24.7421 157.453 27.0163C157.632 27.8849 157.499 29.1493 157.966 29.9017C158.78 31.2121 160.532 31.8535 161.486 33.143C162.154 34.0466 162.574 35.2352 162.394 36.3661C162.132 38.005 160.964 39.165 159.699 40.1103C158.982 40.1025 158.227 39.9299 157.516 39.825C157.421 39.1497 157.352 38.4727 157.018 37.8689Z" fill="#6556FE"/>
<path d="M98.7498 33.6082L98.5359 33.3078L98.6203 33.009C101.895 31.148 108.33 29.2442 112.002 28.2129C112.189 28.3378 112.163 28.3993 112.226 28.6069C111.799 29.1922 109.705 29.5628 108.991 29.7625C105.522 30.7329 102.067 32.2129 98.7498 33.6082Z" fill="#1C1741"/>
<path d="M212.944 40.7867C211.687 40.6803 204.335 36.8563 202.329 35.9553C199.25 34.5721 196.124 33.2109 192.968 32.0113C191.348 31.3953 184.992 29.5415 184.088 28.8491C183.863 28.6763 183.916 28.5855 183.874 28.3186C185.134 28.3834 186.68 29.1221 187.89 29.5413C194.451 31.815 200.761 34.4443 207.028 37.4335C208.755 38.2574 210.564 39.0248 212.241 39.9411C212.713 40.199 212.776 40.2675 212.944 40.7867Z" fill="#1C1741"/>
<path d="M69.7366 49.7968L69.421 49.9095L69.0683 49.702C69.0801 49.6615 69.0865 49.619 69.1041 49.5806C69.3999 48.9336 71.0625 48.0219 71.6936 47.5852C77.4763 43.5828 83.3647 40.04 89.6227 36.821C89.8762 36.8358 89.949 36.8583 90.1687 36.9618C89.9242 37.6431 84.3753 40.3129 83.4113 40.8572C78.6484 43.5117 74.0789 46.4989 69.7366 49.7968Z" fill="#1C1741"/>
<path d="M153.74 38.7534C153.485 38.7658 153.232 38.7476 152.976 38.7366C152.639 38.5002 152.639 38.3958 152.492 38.0036C152.822 37.968 153.103 37.9888 153.431 38.0287C153.734 38.3033 153.694 38.34 153.74 38.7534Z" fill="#1C1741"/>
<path d="M144.037 43.0056C143.798 42.8802 143.68 42.7547 143.511 42.546C143.523 42.1003 143.714 41.9196 143.954 41.5508C144.269 41.7494 144.284 41.7852 144.438 42.1266C144.406 42.5561 144.297 42.6845 144.037 43.0056Z" fill="#1C1741"/>
<path d="M153.354 43.2721C153.212 43.2577 152.981 43.2363 152.847 43.2114C152.428 43.1328 152.4 43.0886 152.152 42.7625C152.154 42.3113 152.219 42.0014 152.353 41.5698C152.806 41.6323 153.003 41.6227 153.375 41.9005C153.574 42.3656 153.44 42.7946 153.354 43.2721Z" fill="#1C1741"/>
<path d="M148.707 46.7542L148.334 46.5903C147.857 45.7344 148.091 42.8215 148.287 41.8318L148.673 42.0125C149.141 43.0019 148.966 45.6882 148.707 46.7542Z" fill="#1C1741"/>
<path d="M219.734 124.749C217.689 123.429 215.727 121.922 213.747 120.501C208.059 116.459 202.548 112.172 197.231 107.652C190.347 101.695 186.099 93.2565 185.412 84.1785C184.692 74.5368 187.395 64.674 193.777 57.27C199.825 50.2507 208.09 46.0003 217.318 45.2982C219.931 45.0198 222.872 45.3167 225.44 45.7925C235.207 47.602 243.649 53.45 249.215 61.6201C254.408 69.2432 256.52 78.5042 254.779 87.586C253.523 94.1344 249.41 102.633 244.248 107.052C241.698 109.235 238.744 110.882 236.068 112.893C231.458 116.356 226.877 119.856 222.095 123.082L219.734 124.749ZM211.678 79.1589C211.134 79.028 210.568 78.8855 210.046 78.6826C209.201 78.3542 208.443 77.6015 208.093 76.7681C207.727 75.8937 207.711 74.8204 208.089 73.9463C208.368 73.2999 208.854 72.7938 209.517 72.5449C210.578 72.1469 211.423 72.5221 212.383 72.9814C212.705 73.6136 212.78 73.981 212.696 74.6846L212.512 74.7403C212.093 74.0454 211.608 73.0967 210.759 72.8744C210.307 72.7559 209.889 72.9294 209.537 73.2034C208.936 73.6723 208.415 74.3458 208.338 75.1254C208.261 75.9053 208.614 76.6805 209.129 77.2508C210.002 78.2186 210.875 78.4513 212.138 78.5646C212.707 81.84 213.61 84.6202 216.458 86.5983C217.775 87.5126 219.267 87.9467 220.86 87.6311C223.138 87.1799 225.074 85.3932 226.28 83.4758C227.259 81.918 227.658 80.2947 227.866 78.4872C229.254 78.5065 230.313 78.3314 231.347 77.293C231.843 76.7941 232.313 76.0006 232.225 75.2667C232.141 74.5666 231.708 74.109 231.162 73.7075C230.683 73.3546 230.105 73.0461 229.491 73.2236C228.673 73.4601 228.174 74.4053 227.738 75.0702C227.56 74.8863 227.516 74.6175 227.531 74.3608C227.543 74.142 227.623 73.9075 227.684 73.6977C227.873 73.2595 228.361 72.9473 228.789 72.76C229.454 72.4692 230.213 72.5385 230.86 72.8392C231.657 73.21 232.266 73.9506 232.541 74.7788C232.78 75.4988 232.78 76.2712 232.429 76.9543C231.938 77.9128 230.792 78.6019 229.783 78.8875C229.312 79.0208 228.833 79.0549 228.346 79.0725C227.855 81.4067 227.345 83.2631 225.862 85.1844C225.838 86.4514 225.838 87.7239 225.775 88.9891C228.392 89.5672 231.202 90.0849 233.721 90.9859C238.983 93.0631 241.81 95.6277 244.076 100.917C244.635 102.223 245.091 103.584 245.561 104.924C251.955 97.2502 255.492 87.9201 254.578 77.8561C253.734 68.5579 248.421 59.7189 241.289 53.8342C234.412 48.1596 225.066 45.1279 216.178 46.0153C207.467 46.9478 199.473 51.2705 193.924 58.0493C187.77 65.6967 184.959 75.5029 186.13 85.2492C187.075 93.6843 190.594 100.009 196.397 106.03C197.724 100.635 199.329 96.1983 204.293 93.1678C205.679 92.3217 207.18 91.9083 208.594 91.1805C210.783 90.5497 212.94 89.7881 215.169 89.3048L215.213 86.4699C212.941 84.3262 212.297 82.1311 211.678 79.1589ZM225.3 85.8296C223.676 87.2888 221.908 88.4766 219.619 88.3959C218.07 88.3413 216.719 87.6675 215.502 86.7538C215.509 87.7369 215.475 88.7408 215.543 89.7207C214.853 89.9442 214.173 90.1592 213.464 90.3168C213.683 92.999 214.159 95.4647 216.364 97.278C216.683 97.5404 217.043 97.7691 217.387 97.9977C219.708 99.0459 221.944 99.3985 224.403 98.4706C226.263 97.7691 228.015 96.3715 228.809 94.5215C229.346 93.2707 229.453 91.8959 229.501 90.5495C228.152 89.9976 226.738 89.7386 225.319 89.4354C225.321 88.2549 225.414 87.0006 225.3 85.8296ZM233.817 91.7086C234.223 98.7681 234.696 105.851 234.851 112.921L235.958 112.086L236.913 111.33C236.807 105.121 236.146 98.9424 235.956 92.7423L233.817 91.7086ZM208.117 92.1165C207.499 92.2517 206.873 92.3731 206.262 92.5388C205.68 99.2219 205.044 105.9 204.354 112.573C204.761 112.904 205.161 113.255 205.599 113.544L206.587 114.339C206.737 112.421 208.371 92.5949 208.186 92.1708L208.117 92.1165Z" fill="#1C1741"/>
<path d="M151.984 49.1049C151.414 49.8195 150.817 50.3707 149.928 50.6549C148.987 50.9561 147.941 50.9445 147.071 50.4349C146.246 49.9513 145.782 49.2202 145.53 48.3184C146.048 48.4516 146.448 49.0098 146.847 49.352C149.459 51.5949 150.157 48.9179 151.873 48.7791L151.984 49.1049Z" fill="#1C1741"/>
<path d="M77.4563 145.938C75.6136 144.13 73.8003 142.296 71.8387 140.617C68.9362 138.131 65.8314 135.876 62.8662 133.466C61.3214 132.21 59.8975 130.817 58.3481 129.565C55.7836 127.494 53.123 125.494 50.6495 123.315C43.0839 116.648 38.4898 107.238 37.8857 97.1721C37.2807 86.5291 41.2648 76.2231 48.3512 68.3537C56.2082 59.6286 64.9668 55.5691 76.7123 54.9834C78.4438 54.9262 80.2481 55.0279 81.9773 55.1505C92.4234 55.8911 101.886 60.2325 108.77 68.2236C115.772 76.3509 119.04 86.6207 118.205 97.3184C117.42 107.625 112.733 117.245 105.099 124.215C102.047 126.959 98.4021 129.305 95.125 131.8C89.5033 136.081 83.953 140.386 78.5762 144.971C78.2105 145.302 77.8304 145.617 77.4563 145.938ZM67.4871 83.6971C67.6106 83.9674 67.6872 84.0385 67.6551 84.3415C67.1322 84.4291 66.7891 84.5756 66.4546 84.9982C65.882 85.7215 65.7455 86.6878 65.8823 87.5793C66.0606 88.745 66.6694 89.5151 67.6256 90.1669C68.0861 90.4809 68.5518 90.7537 69.1241 90.6534C70.0728 89.788 68.9706 88.2768 69.3753 87.1867C69.6193 87.3474 69.6525 87.4104 69.7465 87.683C69.9612 88.3063 70.0014 89.074 70.1104 89.7331C70.3254 91.0341 70.6801 92.3635 71.2461 93.5591C72.1616 95.4944 73.7257 96.907 75.7517 97.61C77.835 98.3148 80.1143 98.1494 82.0741 97.1518C86.8934 94.7509 86.371 89.8042 87.8282 85.4544C87.8487 85.3931 87.8707 85.3324 87.8921 85.2711C88.1421 87.1575 87.7085 88.9572 87.3064 90.7881C88.5312 90.5364 89.5235 90.2245 90.2586 89.1466C90.7627 88.4074 91.1801 87.433 90.9946 86.5222C90.7023 85.0858 89.4654 84.8439 88.5115 84.027C88.284 83.8321 88.2652 83.3696 88.291 83.0881C88.3231 82.7372 88.3748 82.5186 88.6425 82.2787C88.95 82.6007 88.9732 83.0754 89.0544 83.4971C89.3856 83.6801 89.7181 83.8636 90.0384 84.066C90.8266 84.5646 91.3796 85.5113 91.5499 86.4178C91.7583 87.5321 91.4929 88.6832 90.8174 89.5937C89.8745 90.8642 88.6243 91.148 87.1628 91.4038C86.3664 93.5507 85.5645 95.1088 84.0441 96.8241C84.0311 98.3694 84.1577 99.4947 84.9104 100.867C89.2914 102.299 97.079 105.481 100.616 108.385C101.587 109.183 102.498 110.168 103.031 111.316C104.103 113.625 104.754 120.61 105.023 123.469C105.879 122.584 106.743 121.7 107.568 120.786C114.849 112.72 118.225 102.2 117.634 91.4108C117.018 81.3387 112.448 71.9176 104.918 65.1995C96.7906 57.9544 86.0062 54.9149 75.2464 55.6173C64.3326 56.3302 55.2474 61.3668 48.137 69.5287C41.3276 77.2889 37.879 87.4356 38.5503 97.7378C39.3538 108.457 44.2147 116.905 52.29 123.812C52.7065 120.898 52.8768 113.146 53.9966 111C56.1608 106.852 67.1036 102.293 71.7109 100.902C72.6449 99.4935 72.6648 98.2639 72.6755 96.6301C71.1374 95.1125 70.4336 93.4313 69.7577 91.4114C69.1079 91.3215 68.4014 91.2596 67.8016 90.9807C66.6734 90.4537 65.7967 89.5059 65.3596 88.3398C65.0235 87.4191 64.9359 86.2944 65.379 85.3931C65.832 84.4715 66.5341 83.9946 67.4871 83.6971ZM73.299 97.0646C73.2817 100.48 72.0147 100.98 70.3451 103.576C73.9494 105.662 78.6875 106.068 82.6725 104.984C83.1387 104.857 83.6105 104.726 84.0675 104.569L86.2574 103.773C84.7092 101.568 83.3653 99.965 83.3902 97.1125C80.8866 98.4203 78.7375 99.2201 75.8899 98.3275C74.9704 98.0323 74.098 97.6071 73.299 97.0646ZM59.185 112.761C59.0919 113.164 59.0789 113.536 59.1341 113.947C59.4171 116.057 62.6315 131.521 63.2628 132.7C63.466 132.808 63.6634 132.917 63.8762 133.005C63.964 131.923 60.3944 114.93 59.7643 113.053C59.553 112.907 59.4362 112.844 59.185 112.761ZM97.778 112.849C97.2458 114.706 97.0571 116.773 96.6966 118.679C95.9315 122.724 95.088 126.775 94.4622 130.842C94.683 131.17 94.9241 131.134 95.295 131.221C95.9133 127.678 96.5558 124.139 97.2224 120.604C97.6335 118.499 98.5966 115.255 98.5241 113.21C98.2972 112.976 98.0853 112.934 97.778 112.849Z" fill="#1C1741"/>
<path d="M212.383 72.9815C211.423 72.5221 210.578 72.1469 209.517 72.545C208.854 72.7939 208.368 73.3 208.089 73.9463C207.711 74.8205 207.727 75.8938 208.093 76.7682C208.443 77.6015 209.201 78.3543 210.046 78.6826C210.568 78.8856 211.134 79.0281 211.678 79.159C212.297 82.1311 212.941 84.3263 215.213 86.47L215.169 89.3048C212.94 89.7881 210.783 90.5498 208.594 91.1805C207.486 90.3605 205.494 90.5278 204.178 89.909C203.216 89.456 202.586 88.7169 202.241 87.7141C202.062 87.1947 202.03 86.6631 202.146 86.1257C202.655 83.762 205.24 82.5399 205.805 80.2022C206.567 77.052 204.658 74.0125 205.739 70.8623C205.818 70.6311 205.913 70.4056 206.023 70.1871C206.812 68.6215 208.325 67.7853 209.92 67.2482C210.257 64.6102 210.377 60.9119 212.125 58.7761C212.692 58.0826 213.874 57.8693 214.717 57.8048C216.846 57.6415 219.157 57.9297 221.288 58.0444C223.466 58.1618 225.929 58.0881 228.057 58.5778C228.874 58.7656 229.88 59.0894 230.505 59.6782C232.645 61.6959 232.545 67.056 232.57 69.787C235.065 72.4854 234.262 75.483 235.958 78.286C237.09 80.1566 239.284 81.1755 240.149 83.2198C240.581 84.243 240.527 85.3137 240.074 86.3188C238.924 88.8712 236.154 90.0439 233.721 90.986C231.202 90.085 228.392 89.5673 225.775 88.9892C225.838 87.7239 225.838 86.4515 225.862 85.1845C227.345 83.2631 227.855 81.4068 228.346 79.0726C228.833 79.0549 229.312 79.0208 229.783 78.8876C230.792 78.602 231.938 77.9129 232.429 76.9543C232.78 76.2713 232.78 75.4989 232.541 74.7788C232.266 73.9507 231.657 73.2101 230.86 72.8392C230.213 72.5386 229.454 72.4692 228.789 72.76C228.361 72.9473 227.873 73.2595 227.684 73.6977C227.676 73.6339 227.671 73.5694 227.661 73.5058C227.579 72.9757 227.174 72.4285 226.85 72.0186C223.975 68.3709 219.085 68.2423 215.463 65.7442C215.154 66.568 214.854 67.4118 214.467 68.203C213.704 69.7645 212.569 71.2193 212.383 72.9815Z" fill="#6556FE"/>
<path d="M67.4871 83.6971C66.6578 81.1398 66.3028 78.1326 67.5848 75.6614C68.461 73.9733 69.9485 72.8093 71.7647 72.2783C73.8939 71.6556 75.3901 72.4346 77.369 72.2034C80.7357 71.81 83.2142 69.0506 86.8899 71.0737C88.1404 71.762 88.9408 72.9061 89.2949 74.2774C89.7137 75.8991 89.54 79.9295 88.6693 81.2687C88.0773 82.1801 87.1205 82.4932 86.1646 82.8921C84.9 82.4342 83.6862 82.5067 82.3614 82.4992C82.4542 82.1431 82.7314 81.95 82.9933 81.7127C83.3587 81.7844 83.7235 81.8578 84.092 81.913C84.1374 80.7093 83.7376 77.6083 82.8205 76.7431C82.4591 76.4023 82.0752 76.3006 81.5916 76.3503C78.7429 76.6437 78.8392 81.3201 72.8553 78.7564C71.8971 79.3594 71.4525 79.8341 70.9114 80.8235L71.8147 82.2749C70.9489 82.6065 70.1219 82.9178 69.2085 83.0941C69.3053 83.9026 69.3947 84.6895 69.3929 85.5052C68.8174 85.1363 68.1702 84.7886 67.6551 84.3414C67.6872 84.0385 67.6106 83.9674 67.4871 83.6971Z" fill="#6556FE"/>
<path d="M217.319 75.2036C217.247 75.2186 217.176 75.2481 217.103 75.249C216.757 75.2527 216.643 75.0721 216.436 74.8414C216.282 74.272 216.339 73.8944 216.45 73.3201C216.512 73.3256 216.574 73.3287 216.636 73.3371C217.127 73.4033 217.29 73.5308 217.577 73.9057C217.651 74.4211 217.514 74.7298 217.319 75.2036Z" fill="#1C1741"/>
<path d="M222.972 75.3954C222.613 75.18 222.328 74.9439 222.23 74.514C222.133 74.0891 222.35 73.7067 222.532 73.3398C222.654 73.3612 222.835 73.3855 222.945 73.4378C223.305 73.609 223.35 73.7934 223.478 74.1362C223.429 74.6603 223.25 74.9548 222.972 75.3954Z" fill="#1C1741"/>
<path d="M221.078 78.359C220.877 78.4319 220.599 78.5643 220.389 78.5773C220.159 78.5917 220.026 78.5513 219.887 78.3732C219.392 77.7393 219.672 76.3174 219.717 75.5522C220.271 76.0202 220.127 77.2253 220.419 77.9049C220.648 77.9419 220.818 77.9835 221.04 78.0613L221.078 78.359Z" fill="#1C1741"/>
<path d="M221.874 82.8978C221.075 83.3771 220.229 83.5566 219.302 83.4048C218.563 83.2837 217.802 82.9712 217.387 82.313C217.072 81.8112 216.964 81.2386 217.082 80.6651C218.524 80.6064 220.226 80.3598 221.645 80.5801C222.123 80.6544 222.377 80.7865 222.658 81.1744C222.713 81.8884 222.292 82.3645 221.874 82.8978ZM217.647 81.2354C217.883 81.8601 218.165 82.3399 218.806 82.6108C219.712 82.9929 220.67 82.7336 221.537 82.3847C221.732 81.9847 221.908 81.8265 221.789 81.3869C220.756 80.7735 218.822 81.1683 217.647 81.2354Z" fill="#1C1741"/>
<path d="M74.5836 82.3861C74.2451 82.4557 73.9824 82.476 73.6378 82.4479C73.3687 82.1311 73.3933 82.0661 73.36 81.6446C73.5421 81.6374 73.7263 81.6267 73.9087 81.6293C74.2787 81.6345 74.4047 81.6053 74.6666 81.8808L74.5836 82.3861Z" fill="#1C1741"/>
<path d="M18.1409 145.475C18.0034 145.379 17.8317 145.312 17.7717 145.147C17.4079 144.148 18.0279 139.487 18.1177 138.115C19.3888 118.682 25.0444 98.7668 34.4941 81.7251C34.695 81.8332 34.7262 81.9078 34.8453 82.0954C34.7632 83.197 31.5555 88.8644 30.8063 90.5109C28.0561 96.5875 25.7551 102.858 23.9217 109.271C21.0307 119.117 19.2671 129.26 18.665 139.505C18.5777 141.029 18.7177 144.128 18.1409 145.475Z" fill="#1C1741"/>
<path d="M278.709 158.373L278.281 158.196C277.882 157.664 278.074 154.234 278.061 153.419C277.997 147.999 277.647 142.585 277.012 137.201C275.064 121.36 270.761 105.898 264.244 91.3288C263.57 89.7875 260.062 83.0786 260.012 82.0007C260.248 82.0875 260.408 82.1594 260.566 82.3638C262.191 84.469 264.27 89.6733 265.358 92.2278C273.048 109.888 277.515 128.781 278.548 148.015C278.71 151.395 279.027 154.999 278.709 158.373Z" fill="#1C1741"/>
<path d="M78.8982 89.4646L78.4178 89.2987C77.8466 88.4222 78.3649 85.8244 78.5143 84.7532L78.7805 84.9015C79.0835 85.6299 79.1344 88.6451 78.8982 89.4646Z" fill="#1C1741"/>
<path d="M74.1141 86.444C73.7502 86.6686 73.2736 86.5619 73.0397 86.2038C72.8061 85.8456 72.9007 85.3663 73.2527 85.1238C73.4886 84.9614 73.7939 84.9394 74.0506 85.0669C74.307 85.1941 74.4743 85.4505 74.4876 85.7366C74.5006 86.0228 74.3578 86.2934 74.1141 86.444Z" fill="#1C1741"/>
<path d="M83.5145 86.455C83.1858 86.6177 82.7869 86.5012 82.5976 86.1867C82.4083 85.8725 82.4918 85.4655 82.7895 85.251C83.0052 85.0958 83.2899 85.075 83.5258 85.197C83.7616 85.3193 83.9091 85.5638 83.9065 85.8295C83.9041 86.0951 83.7527 86.3371 83.5145 86.455Z" fill="#1C1741"/>
<path d="M126.924 94.5325C127.1 93.809 127.273 93.0664 127.67 92.4258C127.898 92.0593 128.209 91.7757 128.56 91.5294C129.536 90.844 130.653 90.3856 131.67 89.7693C132.772 89.1004 133.77 88.2431 134.912 87.6372C135.48 87.3363 136.136 87.1868 136.755 87.027C137.1 86.9819 137.434 86.9752 137.783 86.9781C140.821 87.0041 142.086 89.0545 143.99 90.9978C145.203 90.9137 146.448 90.7461 147.544 91.4054C148.684 92.0919 149.012 93.3771 149.324 94.5753C146.086 94.7594 142.821 94.6282 139.581 94.5634C135.362 94.529 131.143 94.5186 126.924 94.5325Z" fill="#F8F7FE"/>
<path d="M82.0987 91.7014C82.0631 91.7774 82.027 91.8529 81.9926 91.9292C81.6656 92.6573 81.4162 93.1831 80.7545 93.6636C79.9064 94.29 78.8377 94.5388 77.8 94.3524C76.8935 94.1949 76.0211 93.7564 75.5208 92.9606C75.136 92.348 74.9458 91.8254 75.1028 91.1123C75.5953 91.4297 75.7861 92.0032 76.1431 92.4504C76.6559 93.0924 77.7324 93.9535 78.5952 93.9812C80.3487 94.0379 80.7837 92.196 81.7951 91.2117L82.0044 91.2557L82.0987 91.7014Z" fill="#1C1741"/>
<path d="M264.423 107.788L263.911 107.687C263.619 107.381 260.383 98.2514 260.072 97.1709C260.317 97.1995 260.462 97.2567 260.678 97.3761C261.576 99.0576 264.068 106 264.423 107.788Z" fill="#1C1741"/>
<path d="M180.556 104.592C178.418 104.538 168.823 104.898 167.618 104.42C167.585 104.335 167.538 104.255 167.518 104.166C167.434 103.792 167.631 103.185 167.849 102.895C168.17 102.467 168.585 102.115 169.023 101.813C169.855 101.24 170.842 100.891 171.701 100.351C172.792 99.6651 173.754 98.6887 174.918 98.1259C175.423 97.8819 175.996 97.8177 176.545 97.7423C180.53 97.2413 181.082 99.2197 184.059 100.778C184.74 101.134 185.568 101.264 186.309 101.456C187.361 101.729 188.332 102.207 188.875 103.202C189.088 103.593 189.275 104.142 189.134 104.576C186.308 104.779 183.391 104.613 180.556 104.592Z" fill="#F8F7FE"/>
<path d="M138.719 134.947C138.689 129.642 138.6 124.325 138.683 119.02C142.43 119.059 146.177 119.069 149.925 119.051C149.919 116.121 149.898 113.192 149.861 110.263C152.882 110.51 155.999 110.375 159.03 110.362C159.037 108.933 158.869 101.656 159.262 100.852L159.525 100.68L159.723 100.817C160.053 103.919 159.703 107.273 159.727 110.407C163 110.401 166.335 110.271 169.602 110.421C169.751 113.297 169.696 116.214 169.677 119.093C173.672 119.131 177.683 119.096 181.675 119.238C181.649 124.817 181.672 130.396 181.744 135.974C183.951 135.977 198.782 135.699 199.679 136.232C200.113 137.204 199.775 156.331 199.871 159.394C205.973 156.088 213.037 154.926 219.767 156.931C225.373 158.61 230.08 162.452 232.848 167.607C235.825 173.206 235.985 179.836 234.106 185.816C233.054 189.167 231.438 192.199 229.196 194.899C230.494 195.975 231.566 197.031 231.702 198.822C231.81 200.255 231.239 201.578 230.286 202.626C230.056 202.879 229.801 203.102 229.536 203.318C231.583 206.479 232.627 210.438 233.635 214.032C241.531 217.927 248.226 222.709 251.128 231.404C251.859 233.596 252.162 236.001 252.55 238.277L254.257 248.198C255.46 254.871 256.624 261.552 257.748 268.239C258.261 271.316 259.034 274.594 259.209 277.704C259.253 278.49 259.111 279.237 258.762 279.948C258.263 280.953 257.383 281.717 256.318 282.07C254.309 282.738 250.957 282.232 248.78 282.244L247.133 266.359C246.794 262.892 246.626 259.31 246.045 255.882C245.962 255.388 245.826 254.988 245.593 254.547L245.379 254.432C244.939 254.936 244.984 255.469 245.03 256.109C245.141 257.675 245.445 259.241 245.607 260.804L246.637 271.494C247.017 275.078 247.504 278.654 247.683 282.255L219.046 282.234C214.298 282.23 209.462 282.407 204.722 282.207C205.008 279.306 205.538 276.407 205.976 273.523C206.569 269.588 207.139 265.649 207.684 261.707C208.027 259.326 208.591 256.779 208.684 254.39C208.697 254.041 208.696 253.787 208.475 253.499C208.265 253.523 208.186 253.475 208.054 253.667C207.824 253.998 207.738 254.403 207.671 254.795C206.782 259.996 206.183 265.281 205.45 270.507C204.9 274.421 204.185 278.322 203.689 282.241L182.495 282.212C179.219 282.221 175.809 282.469 172.548 282.293C172.007 282.264 171.374 282.204 170.916 281.895C171.03 281.668 170.949 281.713 171.135 281.656C171.744 281.467 172.316 281.501 172.942 281.521C173.299 278.797 173.873 276.083 174.362 273.379C175.415 267.516 176.523 261.662 177.686 255.819C179.392 246.96 180.44 237.849 183.702 229.381C180.221 226.459 176.082 225.653 171.624 226.059C166.381 226.536 161.269 228.943 157.305 232.363C156.717 232.871 152.968 236.869 152.669 236.937C152.587 236.619 152.537 236.445 152.704 236.127C152.815 235.916 153.097 235.688 153.269 235.52C143.528 235.531 133.73 235.755 123.997 235.456L123.925 234.719C133.875 234.814 143.826 234.824 153.776 234.748C158.309 230.054 163.713 226.544 170.262 225.577C175.342 224.826 179.949 225.585 184.113 228.655C187.534 222.679 191.518 220.948 197.888 219.161C200.786 218.371 203.673 217.544 206.55 216.679C206.726 214.533 206.634 212.328 206.604 210.177L155.527 210.252C135.906 210.118 116.284 210.136 96.6631 210.309C98.3573 210.848 100.029 211.505 101.701 212.111C101.665 212.131 101.631 212.157 101.592 212.169C100.722 212.445 92.7931 209.826 91.7831 209.266C91.7311 209.183 91.7071 209.04 91.6796 208.945L92.0869 208.708C92.8133 209.141 93.5363 209.356 94.3743 209.458C96.9819 209.776 99.7716 209.574 102.401 209.557L116.382 209.456C116.443 207.702 116.405 205.935 116.405 204.18C114.132 203.641 112.131 202.433 110.489 200.783C108.882 199.168 107.79 197.195 107.545 194.911C107.126 190.999 108.983 187.218 109.151 183.363C109.289 180.208 109.042 176.92 109.03 173.751L108.976 149.312L111.786 149.277C114.638 149.395 117.534 149.296 120.39 149.306L138.746 149.323L138.719 134.947ZM139.425 209.417L155.214 209.414L167.167 209.427L189.184 209.472L189.066 136.675C183.29 136.568 177.505 136.803 171.731 136.66L171.694 119.728C167.224 119.479 162.623 119.707 158.139 119.714C151.879 119.724 145.599 119.585 139.342 119.739L139.334 128.502C141.915 128.488 144.496 128.492 147.077 128.512C147.18 131.215 147.099 133.944 147.092 136.649C144.57 136.834 141.951 136.685 139.418 136.678C139.294 141.313 139.421 145.976 139.435 150.614C141.936 150.79 144.49 150.72 146.998 150.74C147.019 153.314 147.019 155.888 146.998 158.462C144.491 158.488 141.981 158.45 139.475 158.439L139.474 171.296C141.982 171.277 144.49 171.284 146.997 171.317C147.09 173.945 147.006 176.588 146.974 179.216C144.482 179.348 141.956 179.275 139.459 179.279C139.437 183.404 139.441 187.529 139.47 191.654L147.003 191.654C147.096 194.28 147.122 196.982 147.004 199.606C144.495 199.751 141.956 199.675 139.442 199.672C139.415 202.92 139.409 206.168 139.425 209.417ZM150.627 111.061C150.621 112.137 150.603 113.214 150.612 114.29C156.707 114.273 162.807 114.209 168.902 114.263C169.109 113.28 168.998 112.134 168.943 111.131C162.845 110.986 156.727 111.046 150.627 111.061ZM157.124 114.976L150.613 115.003L150.611 119.064L162.445 119.078L168.975 119.083L168.973 114.999C165.023 114.94 161.073 114.933 157.124 114.976ZM172.337 119.791C172.316 125.196 172.331 130.6 172.381 136.004L181.077 135.986C181.079 130.598 181.025 125.205 181.083 119.818L172.337 119.791ZM139.404 129.192C139.373 131.462 139.374 133.732 139.406 136.002L146.408 136.001C146.417 133.732 146.454 131.459 146.403 129.191L139.404 129.192ZM189.767 136.617L189.757 209.573C193.089 209.574 196.425 209.613 199.756 209.569L199.786 203.632C198.034 202.844 196.739 202.125 196 200.244C195.881 199.941 195.792 199.632 195.715 199.316C194.943 196.172 194.987 192.773 196.051 189.701C195.198 189.582 193.452 189.436 192.965 188.677C192.837 188.477 192.921 188.345 192.96 188.128C194.863 185.633 198.335 185.432 197.81 181.415C197.63 180.038 195.29 178.948 194.304 178.128C190.077 174.61 189.854 170.638 192.919 166.212C194.685 163.663 196.776 161.428 199.45 159.814C199.178 157.205 199.298 154.509 199.296 151.885C199.29 146.813 199.365 141.729 199.26 136.659C196.112 136.53 192.918 136.574 189.767 136.617ZM129.99 149.895L129.96 166.49C129.962 169.071 129.837 171.735 130.029 174.306C130.17 176.202 130.722 178.076 131.121 179.931C131.713 182.682 132.053 185.417 132.03 188.236C132.01 190.75 131.858 193.375 130.891 195.731C130.574 196.502 129.893 197.362 129.721 198.162C129.44 199.464 129.585 201.039 129.59 202.363C129.612 204.719 129.62 207.075 129.615 209.431L136.618 209.456L138.804 209.462C138.897 196.35 138.909 183.238 138.841 170.126L138.841 157.049C138.841 154.67 138.927 152.252 138.793 149.878C135.86 149.884 132.922 149.855 129.99 149.895ZM109.617 149.998C109.853 160.347 109.314 170.832 109.826 181.152C110.831 177.977 112.471 172.994 115.649 171.297C116.423 170.884 117.28 170.782 118.118 171.057C119.983 171.669 121.239 173.726 122.026 175.416C124.012 179.682 126.505 189.927 124.905 194.418C123.883 197.287 121.43 199.459 118.771 200.791C118.242 200.99 117.725 201.195 117.171 201.315L117.184 203.663C121.08 203.659 124.851 202.229 127.643 199.462C130.684 196.448 131.43 192.207 131.426 188.084C131.424 185.185 131.025 182.333 130.378 179.512C130.039 178.032 129.488 176.486 129.368 174.98C129.127 171.939 129.329 168.787 129.348 165.73L129.355 150.043C122.784 150.027 116.184 149.822 109.617 149.998ZM139.541 151.326L139.524 157.793L146.273 157.785C146.303 155.635 146.308 153.486 146.29 151.336C144.041 151.331 141.789 151.298 139.541 151.326ZM210.522 156.727C204.651 157.331 198.632 159.976 194.86 164.645C193.217 166.678 191.289 169.413 191.54 172.162C191.747 174.422 193.219 176.465 194.953 177.85C197.372 179.783 200.121 180.47 203.131 180.772C203.501 180.809 203.771 180.84 203.878 181.219C203.51 181.545 203.196 181.545 202.713 181.508C201.22 181.394 199.741 180.918 198.325 180.457C198.562 182.316 198.366 183.749 197.675 185.478C196.543 186.17 194.525 187.084 193.857 188.236C193.87 188.446 193.821 188.535 193.996 188.685C194.648 189.248 195.953 189.173 196.775 189.223C196.444 190.577 196.073 191.93 195.917 193.317C198.549 193.363 199.847 192.741 202.145 192.544C202.528 192.512 202.795 192.555 203.145 192.725C203.354 193.039 203.398 193.113 203.326 193.511C203.109 194.716 201.367 196.369 200.347 196.874C199.608 197.239 198.791 197.446 198 197.15C197.651 197.02 197.361 196.92 197.18 196.579C197.45 196.319 197.615 196.296 197.981 196.295C199.223 196.289 199.972 196.653 201.01 195.68C201.739 194.998 202.239 194.155 202.658 193.26L202.698 193.178C200.328 193.692 198.234 194.12 195.798 193.837C195.765 196.263 195.72 199.604 197.516 201.486C199.298 203.352 202.415 203.411 204.814 203.407C206.223 203.405 207.662 203.349 209.047 203.068C209.856 202.904 210.676 202.599 211.488 202.49L211.694 202.729C210.794 203.734 208.521 203.867 207.255 204L207.263 216.491C212.089 215.156 216.978 213.189 221.91 212.368C222.544 209.426 223.239 206.498 223.994 203.585C222.752 202.557 221.668 201.494 221.504 199.793C221.346 198.149 222.069 196.824 223.11 195.62C222.112 193.315 221.143 190.942 219.882 188.764C218.896 189.639 217.896 190.277 216.516 190.208C215.685 190.166 214.999 189.896 214.31 189.448C214.01 189.108 213.749 188.855 213.651 188.397L213.823 188.146L214.138 188.096L214.248 188.236C214.304 188.304 214.36 188.371 214.415 188.44C214.449 188.482 214.48 188.525 214.513 188.567C214.946 189.117 215.442 189.412 216.142 189.508C217.129 189.644 218.097 189.32 218.869 188.707C219.855 187.925 220.541 186.716 220.66 185.458C220.787 184.123 220.292 182.896 219.439 181.884C218.666 180.966 217.577 180.292 216.357 180.236C214.241 180.138 213.809 181.766 212.203 182.465L212.138 182.333C212.48 181.428 213.142 180.918 213.75 180.202C213.027 179.896 212.317 179.614 211.565 179.382C208.722 180.609 205.182 180.691 202.282 179.546C200.054 178.666 198.136 176.994 197.191 174.767C196.781 173.801 196.401 172.514 196.55 171.472L196.717 171.284C197.348 171.966 197.545 173.699 197.861 174.591C199.069 177.999 203.039 179.499 206.357 179.637C208.069 179.708 209.665 179.423 211.299 178.937C208.498 177.432 204.483 174.376 203.525 171.166C203.431 170.85 203.439 170.767 203.549 170.473L203.831 170.416C204.402 170.88 204.877 172.24 205.279 172.909C206.848 175.516 209.843 177.529 212.494 178.887C214.613 179.972 215.01 179.392 217.078 179.711C219.348 180.062 221.019 182.316 221.256 184.498C221.409 185.917 221.055 187.048 220.276 188.217C221.672 190.472 222.679 192.973 223.756 195.39C225.387 194.585 226.748 194.493 228.535 194.635C232.942 189.435 235.129 182.71 234.624 175.912C234.131 170.291 231.393 165.107 227.03 161.53C222.679 157.927 216.279 156.079 210.668 156.703C210.619 156.708 210.571 156.719 210.522 156.727ZM116.664 171.558C113.587 173.033 112.075 176.606 111.015 179.653C109.788 183.18 108.048 190.782 108.234 194.421C108.293 195.578 108.564 196.623 109.071 197.662C110.461 200.511 113.119 202.452 116.069 203.435L116.359 203.53C116.387 201.826 116.555 199.982 116.345 198.292C116.011 195.603 113.76 191.486 112.573 188.981C112.407 188.63 111.582 187.128 111.663 186.872C111.698 186.761 111.828 186.709 111.911 186.628C112.249 186.692 112.145 186.604 112.309 186.854C112.689 187.432 112.911 188.192 113.21 188.823L116.394 195.682L116.444 192.19C116.447 190.785 116.147 183.79 116.441 182.884L116.723 182.824C117.324 183.526 117.153 188.849 117.126 190.032C117.563 188.519 117.858 186.565 118.581 185.205L118.77 185.18C119.115 185.776 118.816 186.729 118.645 187.364C118.246 188.85 117.626 190.327 117.335 191.834C116.801 194.596 117.145 197.872 117.205 200.685C120.182 199.57 122.85 197.501 124.16 194.537C125.821 190.776 123.349 180.35 121.761 176.513C121.058 174.815 119.929 172.55 118.154 171.782C117.672 171.573 117.183 171.542 116.664 171.558ZM139.48 171.975L139.476 178.616C141.735 178.618 144.007 178.666 146.263 178.544C146.332 176.354 146.366 174.163 146.365 171.972C144.072 171.97 141.773 171.935 139.48 171.975ZM139.465 192.349C139.463 194.569 139.432 196.793 139.463 199.013C141.729 199.032 144.108 199.186 146.359 198.967C146.372 196.769 146.427 194.563 146.382 192.366C144.079 192.352 141.768 192.299 139.465 192.349ZM128.883 199.155C125.639 202.448 121.985 204.239 117.317 204.265H117.185C117.178 205.187 116.933 208.846 117.376 209.436L128.978 209.431C128.982 208.164 129.197 199.709 128.883 199.155ZM229.033 203.684C227.383 204.128 226.268 204.248 224.575 203.859C223.718 207.088 223.057 210.356 222.28 213.603C221.48 216.949 220.126 220.454 220.118 223.914C220.1 225.681 220.567 227.418 221.467 228.938C222.402 230.489 223.675 231.408 225.409 231.868C227.546 232.095 229.667 232.04 231.456 230.656C233.242 229.273 234.087 227.047 234.325 224.863C234.533 222.943 234.398 220.937 234.111 219.032C233.643 215.935 230.993 206.018 229.136 203.79C229.104 203.752 229.067 203.719 229.033 203.684ZM200.476 203.755L200.469 209.471C202.434 209.475 204.67 209.674 206.602 209.392L206.638 204.089C204.562 204.103 202.541 204.011 200.476 203.755Z" fill="#1C1741"/>
<path d="M25.8098 128.077L25.4742 127.805C25.2516 126.926 25.6678 125.448 25.8293 124.533C27.0273 117.869 28.8218 111.326 31.1913 104.983C31.6972 103.615 32.1403 102.102 32.8572 100.83L33.1364 101.114C33.1699 101.864 30.3293 109.074 29.82 110.742C28.7872 114.123 27.8239 117.604 27.1292 121.07C26.7207 123.108 26.5117 126.251 25.8098 128.077Z" fill="#1C1741"/>
<path d="M271.978 162.149L271.521 161.971C271.231 160.931 271.393 150.829 271.331 148.716C271.169 144.457 270.836 140.205 270.333 135.972C269.814 131.76 269.113 127.573 268.229 123.422C267.798 121.352 265.924 115.687 266.026 114.082C266.221 114.142 266.345 114.209 266.519 114.312C267.254 116.131 267.632 118.232 268.1 120.144C271.173 132.694 272.741 149.211 271.978 162.149Z" fill="#1C1741"/>
<path d="M172.381 136.004C172.331 130.6 172.316 125.196 172.337 119.791L181.083 119.818C181.025 125.205 181.079 130.598 181.077 135.986L172.381 136.004Z" fill="#6556FE"/>
<path d="M165.487 136.648C163.815 136.721 159.98 136.918 158.476 136.748C158.082 136.703 157.842 136.593 157.53 136.355C156.897 135.365 157.244 130.077 157.249 128.478C159.978 128.398 162.728 128.476 165.46 128.487C165.291 131.191 165.395 133.942 165.487 136.648ZM157.945 129.183C157.942 131.448 157.906 133.718 157.954 135.982L164.726 135.961C164.698 133.723 164.766 131.442 164.626 129.209C162.399 129.169 160.172 129.16 157.945 129.183Z" fill="#1C1741"/>
<path d="M115.732 149.108C115.221 146.724 115.089 143.208 116.143 140.937C118.412 136.045 123.309 135.897 127.959 135.835C130.18 135.791 132.403 135.786 134.624 135.822C135.741 135.84 137.369 136.088 138.391 135.641C138.618 135.541 138.649 135.175 138.719 134.947L138.746 149.323L120.39 149.306C117.534 149.296 114.638 149.395 111.786 149.277C112.981 148.971 114.5 149.119 115.732 149.108Z" fill="#F8F7FE"/>
<path d="M189.757 209.573L189.767 136.617C192.918 136.574 196.112 136.53 199.26 136.659C199.365 141.729 199.29 146.813 199.296 151.885C199.298 154.509 199.178 157.205 199.45 159.814C196.776 161.427 194.685 163.663 192.919 166.212C189.854 170.638 190.077 174.61 194.304 178.128C195.29 178.948 197.63 180.038 197.81 181.415C198.335 185.432 194.863 185.633 192.96 188.128C192.921 188.345 192.837 188.477 192.965 188.677C193.452 189.436 195.198 189.582 196.051 189.701C194.987 192.773 194.943 196.172 195.715 199.316C195.792 199.632 195.881 199.94 196 200.244C196.739 202.125 198.034 202.844 199.786 203.632L199.756 209.569C196.425 209.613 193.089 209.573 189.757 209.573Z" fill="#6556FE"/>
<path d="M182.346 145.787C180.737 144.802 179.147 144.316 177.275 144.777C176.765 144.903 176.301 145.085 175.769 144.997L175.701 144.827L175.838 144.531C176.379 144.152 176.957 144.019 177.584 143.843C179.137 143.777 180.668 144.036 182.061 144.751C182.68 145.069 183.499 145.589 183.724 146.285L183.539 146.451C183.094 146.407 182.844 146.17 182.502 145.908L182.346 145.787Z" fill="#1C1741"/>
<path d="M176.282 166.706C176.114 166.939 175.985 167.066 175.74 167.217L175.41 167.074C173.167 164.205 169.488 159.049 168.582 155.586C168.076 153.655 168.349 151.701 169.393 149.993C170.635 147.962 172.441 146.81 174.748 146.291C176.859 146.128 178.602 146.541 180.356 147.756C181.956 148.865 182.982 150.253 183.304 152.21C184.065 156.832 178.911 163.035 176.282 166.706ZM175.315 149.607C174.016 149.929 173.039 150.402 172.302 151.571C171.644 152.617 171.524 153.876 171.834 155.059C172.219 156.528 173.124 157.899 174.487 158.621C175.157 158.976 175.672 159.035 176.421 158.989C177.786 158.523 178.743 157.493 179.38 156.212C179.995 154.975 180.251 153.597 179.769 152.27C179.399 151.229 178.611 150.389 177.595 149.953C176.886 149.649 176.08 149.576 175.315 149.607Z" fill="#1C1741"/>
<path d="M129.615 209.431C129.62 207.075 129.612 204.719 129.59 202.363C129.585 201.039 129.44 199.463 129.721 198.162C129.893 197.362 130.574 196.502 130.891 195.73C131.858 193.375 132.01 190.75 132.03 188.236C132.053 185.417 131.713 182.682 131.121 179.931C130.722 178.076 130.17 176.202 130.029 174.306C129.837 171.735 129.962 169.071 129.96 166.49L129.99 149.895C132.922 149.855 135.86 149.883 138.793 149.878C138.927 152.252 138.841 154.67 138.841 157.049L138.841 170.126C138.909 183.238 138.897 196.35 138.804 209.462L136.618 209.456L129.615 209.431Z" fill="#6556FE"/>
<path d="M91.1379 202.052L90.3427 202.688C87.2596 204.55 84.9638 204.319 81.5734 204.995C78.5368 205.601 75.7274 206.865 72.5738 206.072C71.9832 205.923 71.4181 205.591 70.8822 205.308C70.557 205.764 70.6798 206.511 70.7006 207.053C69.8673 207.263 69.02 207.423 68.2673 207.851C60.5635 210.961 52.4556 213.115 44.7026 216.095C42.709 216.861 40.6945 218.659 38.6156 219.018C42.25 215.529 54.3802 212.037 59.4 210.319C62.9945 209.088 66.5321 207.784 70.0797 206.426C70.4254 203.388 70.6541 200.338 70.7651 197.282C69.2186 194.565 68.5318 192.308 68.0563 189.238C67.8404 189.266 67.6239 189.288 67.4068 189.307C65.7432 189.44 64.1204 189.035 62.861 187.901C61.7134 186.859 61.0379 185.395 60.9896 183.845C60.9127 181.726 61.9403 180.314 63.3359 178.871C61.3639 175.818 59.5905 171.708 59.8458 167.992C59.9984 165.774 61.1124 163.746 62.7849 162.309C65.2174 160.221 67.7213 160.072 70.7824 160.316C73.0045 157.023 75.3886 154.873 79.6052 155.066C80.4027 155.103 81.4156 155.281 82.1764 154.99C84.0365 154.281 85.7692 152.112 88.0533 151.138C91.0888 149.818 94.5252 149.765 97.6002 150.989C100.836 152.295 102.956 154.724 104.305 157.905C105.991 161.88 106.2 167.449 104.553 171.471C103.454 174.156 101.625 175.445 99.0386 176.549L99.1051 178.401C100.338 178.557 101.52 178.906 102.509 179.687C103.609 180.555 104.245 181.848 104.367 183.235C104.498 184.732 104.048 186.262 103.043 187.391C101.654 188.951 99.5716 189.378 97.5852 189.516C96.1618 194.285 94.7399 198.457 91.1379 202.052ZM73.4164 171.821C72.213 173.579 71.2727 175.375 70.4555 177.339C70.0927 178.211 70.3445 179.498 69.7181 180.206C68.0592 180.502 67.3299 178.041 64.4497 179.362C63.6544 179.727 63.0763 180.178 62.5644 180.895C61.8328 181.919 61.5793 183.405 61.8163 184.632C62.0753 185.918 62.8341 187.048 63.9262 187.775C65.0113 188.503 66.3488 188.752 67.6233 188.463C67.9785 188.383 68.3309 188.284 68.6815 188.187C69.3652 193.062 70.3743 197.182 74.5625 200.308C77.8677 202.775 82.3814 204.254 86.5173 203.6C86.9465 203.533 87.355 203.436 87.7666 203.298C91.9661 201.262 94.2286 197.564 95.7288 193.259C97.7797 187.372 98.2743 182.785 98.3894 176.584C96.6451 176.69 94.8457 176.714 93.1221 176.999C93.6496 177.213 94.1722 177.381 94.5801 177.794L94.5919 178.077C94.3835 178.223 94.3991 178.277 94.1274 178.239C93.5941 178.164 92.9373 177.705 92.4659 177.433C92.1846 177.271 91.9181 177.135 91.5964 177.072C90.4349 176.846 89.155 176.852 87.9727 176.744C86.6479 176.624 85.3278 176.384 84.0253 176.118C80.079 175.31 76.8502 173.88 73.4164 171.821ZM99.0871 179.114C98.9727 182.42 98.6044 185.449 97.7947 188.662C99.1528 188.563 100.249 188.375 101.481 187.765C102.556 186.979 103.377 185.971 103.62 184.628C103.849 183.373 103.553 182.079 102.798 181.05C101.863 179.78 100.568 179.369 99.0871 179.114Z" fill="#1C1741"/>
<path d="M157.308 158.418C157.194 155.844 157.159 153.154 157.336 150.585C159.977 150.748 162.653 150.647 165.301 150.677C165.321 153.255 165.29 155.833 165.208 158.41C162.579 158.49 159.939 158.429 157.308 158.418ZM157.947 151.324L157.933 157.774C160.145 157.777 162.357 157.796 164.569 157.774C164.608 155.624 164.616 153.473 164.595 151.322L157.947 151.324Z" fill="#1C1741"/>
<path d="M116.586 167.775C116.584 165.143 116.519 162.493 116.652 159.865C119.197 159.839 121.742 159.852 124.286 159.904C124.339 161.448 124.641 166.34 124.267 167.592C121.977 168.04 118.957 167.768 116.586 167.775ZM117.285 160.573L117.263 167.069C119.384 167.057 121.505 167.03 123.625 166.987C123.643 164.849 123.646 162.71 123.633 160.573C121.518 160.57 119.4 160.545 117.285 160.573Z" fill="#1C1741"/>
<path d="M157.401 179.15C157.369 178.039 157.12 171.917 157.59 171.335C160.118 171.29 162.647 171.277 165.176 171.295C165.239 173.612 165.41 176.194 165.191 178.491C165.156 178.86 165.149 178.886 164.877 179.112C162.511 179.452 159.794 179.244 157.401 179.15ZM157.965 171.973C157.969 174.146 157.93 176.329 157.995 178.501C160.17 178.534 162.344 178.537 164.519 178.509L164.515 171.957C162.332 171.96 160.146 171.938 157.965 171.973Z" fill="#1C1741"/>
<path d="M176.079 171.389L178.228 171.339C180.113 171.325 181.997 171.291 183.88 171.399C183.858 173.99 183.863 176.582 183.895 179.172L182.001 179.197C179.994 179.199 177.946 179.277 175.948 179.081C175.823 176.612 175.768 173.838 176.079 171.389ZM176.776 172.004C176.497 174.093 176.629 176.315 176.661 178.422C178.798 178.464 180.935 178.483 183.072 178.48C183.32 176.38 183.158 174.117 183.127 172C181.01 172 178.892 171.981 176.776 172.004Z" fill="#1C1741"/>
<path d="M75.495 179.483C75.1366 179.434 75.1334 179.452 74.8952 179.184C74.9172 179.151 74.9357 179.115 74.9611 179.085C75.711 178.193 79.5723 177.445 80.854 177.231C81.0612 177.244 81.1612 177.298 81.3462 177.385L81.3191 177.591C80.2432 178.326 76.9828 178.954 75.495 179.483Z" fill="#1C1741"/>
<path d="M66.5454 184.368C66.3601 184.633 66.382 184.588 66.1086 184.693L65.8296 184.325C65.7478 183.584 65.4576 182.796 65.5599 182.067C65.8372 182.136 66.0667 182.252 66.317 182.387C66.874 182.688 67.1122 182.87 67.2984 183.484C67.1657 184.011 66.9717 184.051 66.5454 184.368Z" fill="#1C1741"/>
<path d="M92.2867 184.902C91.8721 184.964 91.4426 185.055 91.0581 184.827C90.7379 184.637 90.5442 184.309 90.48 183.947C90.358 183.258 90.6272 182.627 91.0261 182.089C91.5377 182.052 91.9641 182.038 92.3904 182.389C92.6945 182.639 92.8651 182.994 92.8827 183.387C92.9105 183.999 92.6442 184.435 92.2867 184.902Z" fill="#1C1741"/>
<path d="M79.3572 185.315C78.9935 185.272 78.6212 185.233 78.3301 184.988C78.0269 184.732 77.9003 184.391 77.8807 184.004C77.8489 183.387 78.209 182.917 78.6129 182.5C78.9493 182.579 79.3167 182.646 79.5905 182.872C79.8682 183.101 80.0492 183.473 80.0585 183.833C80.0744 184.447 79.7648 184.896 79.3572 185.315Z" fill="#1C1741"/>
<path d="M202.153 185.739C202.01 185.699 201.855 185.607 201.721 185.543C201.336 184.872 201.607 184.04 201.758 183.33C202.015 183.457 202.089 183.526 202.276 183.73C202.535 184.488 202.474 185.011 202.153 185.739Z" fill="#1C1741"/>
<path d="M217.892 186.72C217.798 186.213 217.731 185.633 217.407 185.211C216.818 184.444 215.906 184.758 215.11 184.642C215.003 184.279 215.1 184.219 215.23 183.877C216.264 183.793 216.94 183.915 217.78 184.572C218.142 184.856 218.42 185.261 218.415 185.741C218.411 186.234 218.193 186.389 217.892 186.72Z" fill="#1C1741"/>
<path d="M84.1562 188.907C83.8614 188.824 83.6579 188.843 83.4694 188.591C83.8582 188.072 84.6745 187.873 85.279 187.608C85.8215 186.827 85.3839 185.656 85.5082 184.752C85.5209 184.66 85.5368 184.568 85.5512 184.475C85.6067 184.496 85.6657 184.51 85.718 184.539C86.1158 184.752 86.293 185.128 86.378 185.559C86.5491 186.431 86.328 187.356 85.8079 188.076C85.3717 188.679 84.8569 188.768 84.1562 188.907Z" fill="#1C1741"/>
<path d="M155.214 209.414C155.175 203.455 155.037 197.456 155.255 191.501C159.162 191.427 163.151 191.214 167.05 191.498C167.309 197.457 166.769 203.489 167.167 209.427L155.214 209.414Z" fill="#6556FE"/>
<path d="M176.046 199.459C176.049 196.906 175.812 194.069 176.181 191.544C178.778 191.579 181.376 191.567 183.972 191.507C183.988 192.811 184.281 198.697 183.814 199.485C181.243 199.618 178.62 199.548 176.046 199.459ZM176.778 192.234L176.767 198.841L183.361 198.84L183.333 192.261C181.148 192.236 178.963 192.227 176.778 192.234Z" fill="#1C1741"/>
<path d="M87.9424 196.793C87.81 196.91 87.6732 197.022 87.533 197.129C86.4444 197.948 84.9477 198.184 83.6249 197.954C82.3967 197.741 81.2347 197.099 80.538 196.044C79.8058 194.936 79.7492 193.796 80.0038 192.527C80.939 192.474 88.6017 192.79 89.0448 192.994C89.2128 193.071 89.3163 193.318 89.3547 193.485C89.5993 194.549 88.5881 196.025 87.9424 196.793ZM80.7554 193.153C80.4293 193.628 80.4863 194.221 80.61 194.767C80.7947 195.581 81.4347 196.173 82.1261 196.586C83.2581 197.26 84.6754 197.48 85.9522 197.124C86.5101 196.968 87.0249 196.655 87.4825 196.306C87.9372 195.731 88.6092 194.802 88.6043 194.032C88.6032 193.882 88.5624 193.799 88.5144 193.669C88.0811 193.513 81.829 193.237 80.7554 193.153Z" fill="#1C1741"/>
<path d="M90.3427 202.688L91.1379 202.052L91.3455 204.485C91.5351 205.458 91.7019 206.435 91.8458 207.416C91.9638 207.855 92.1072 208.25 92.0869 208.708L91.6796 208.944C91.7071 209.04 91.7311 209.183 91.7831 209.266L91.6224 209.443L91.0949 207.753L90.7951 205.891C90.6595 204.821 90.5089 203.753 90.3427 202.688Z" fill="#4118C8"/>
<path d="M38.6156 219.018C40.6945 218.659 42.709 216.861 44.7026 216.095C52.4556 213.115 60.5635 210.961 68.2673 207.851C68.0855 209.736 67.786 211.656 67.7435 213.547C73.6057 217.314 82.1741 220.365 89.122 218.868C90.9668 218.482 92.7286 217.772 94.326 216.772C93.5022 214.421 91.8733 211.931 91.6224 209.444L91.7831 209.266C92.7931 209.826 100.722 212.445 101.592 212.169C101.631 212.157 101.665 212.131 101.701 212.111C109.073 214.997 117.969 217.033 121.488 225.05C122.72 227.854 123.324 231.676 123.925 234.719L123.997 235.456C125.702 242.419 127.002 249.527 128.384 256.563C129.723 263.377 131.164 270.186 132.388 277.021C130.834 275.198 128.866 269.829 127.803 267.415C125.218 261.551 122.582 255.74 120.204 249.786C119.241 247.375 117.821 242.943 116.362 241.057C115.077 239.395 109.568 238.729 107.414 238.427C108.075 236.36 110.392 231.306 109.462 229.406C109.197 228.865 108.713 228.345 108.114 228.194C106.202 227.713 95.4834 227.589 93.3576 227.785C92.6971 227.845 91.7981 228.002 91.2353 228.374C89.8082 229.317 87.9042 237.271 87.4148 239.256C86.7066 239.174 85.9967 239.109 85.2856 239.061C83.35 238.942 80.5767 238.907 78.8195 239.877C77.097 240.828 70.9093 247.571 69.0212 249.485C64.2797 254.314 59.4864 259.093 54.6429 263.82C51.406 267.033 48.2454 270.364 44.8203 273.38C42.8824 272.929 40.8176 272.783 38.8419 272.542C36.3314 272.235 33.8564 271.864 31.3696 271.401C30.1177 271.167 28.6773 270.995 27.5452 270.395C27.3264 270.045 27.0953 269.969 26.7394 269.771C26.7298 269.503 26.7566 269.244 26.7843 268.978C27.0441 266.483 27.5676 263.998 27.9256 261.512C28.8784 254.685 29.8997 247.868 30.9892 241.062C31.6101 237.048 32.1044 230.526 33.3087 227.021C34.2929 224.157 36.245 220.938 38.6156 219.018Z" fill="#6556FE"/>
<path d="M101.701 212.111C100.029 211.505 98.3573 210.848 96.6631 210.309C116.284 210.136 135.906 210.118 155.527 210.252L206.604 210.177C206.634 212.328 206.726 214.533 206.55 216.679C203.673 217.544 200.786 218.371 197.888 219.161C191.518 220.948 187.534 222.679 184.113 228.655C179.949 225.585 175.342 224.827 170.262 225.577C163.713 226.544 158.309 230.054 153.776 234.748C143.826 234.824 133.875 234.814 123.925 234.719C123.324 231.676 122.72 227.854 121.488 225.05C117.969 217.033 109.073 214.997 101.701 212.111Z" fill="#F8F7FE"/>
<path d="M26.7394 269.77C27.0953 269.969 27.3265 270.045 27.5452 270.395C26.8741 273.878 26.5987 277.498 26.1259 281.019L69.8202 280.997L83.1928 264.201C81.6278 263.698 77.4783 262.253 76.6053 260.782C76.516 260.632 76.5047 260.525 76.4715 260.366L76.5735 260.191C77.1757 260.259 77.9102 261.086 78.4403 261.42C79.1563 261.872 79.9639 262.245 80.7308 262.606C85.8996 265.037 93.9855 264.129 98.4466 260.568C99.1036 260.043 99.7017 259.437 99.9529 258.616L99.887 258.385C99.0189 258.306 97.6867 258.958 96.812 259.192C95.6109 259.514 90.6697 260.673 89.7319 259.819C89.8213 259.586 89.76 259.592 89.9597 259.511C90.7945 259.177 92.3107 259.311 93.2467 259.205C96.9206 258.788 102.168 257.315 103.96 253.772C104.21 253.279 104.352 252.962 104.184 252.426C103.854 252.295 103.617 252.356 103.288 252.45C102.004 252.818 100.781 253.391 99.4904 253.746C97.6051 254.265 91.8042 255.245 90.171 254.667L90.4332 254.168L90.4422 254.183C94.6596 253.924 102.781 253.243 105.768 249.987C106.238 249.474 106.75 248.721 106.645 247.983C106.576 247.501 106.241 247.187 105.844 246.954C105.482 246.742 105.201 246.669 104.785 246.786C103.752 247.076 102.846 247.743 101.805 248.067C98.7461 249.021 95.6123 249.173 92.4277 249.118C91.8467 249.108 90.8457 249.184 90.3185 248.942C90.1606 248.869 90.1577 248.853 90.0493 248.751L90.1337 248.505C90.7974 248.187 92.3647 248.448 93.1533 248.444C96.8478 248.429 100.477 248.173 103.801 246.39C104.498 246.016 105.52 245.423 105.758 244.611C105.866 244.242 105.748 243.928 105.537 243.624C105.284 243.26 104.809 243.019 104.374 242.992C102.559 242.881 100.348 243.707 98.531 243.998C95.4753 244.488 85.9027 245.189 83.4827 243.738C83.374 243.427 83.3356 243.446 83.4278 243.107C83.6651 243.079 83.6954 243.046 83.9215 243.149C84.4349 243.381 84.9647 243.634 85.5324 243.398C86.5355 242.979 86.8613 240.691 87.2191 239.748C84.2175 239.583 80.4921 239.127 78.105 241.283C74.5816 244.466 71.3476 248.074 67.9991 251.446C61.2096 258.279 54.3599 265.051 47.4511 271.763C46.1136 273.046 44.0997 275.609 42.5081 276.272L42.3451 276.162C42.528 275.204 44.1375 274.066 44.8203 273.38C48.2454 270.364 51.406 267.033 54.6429 263.82C59.4865 259.093 64.2797 254.314 69.0212 249.484C70.9094 247.57 77.097 240.828 78.8195 239.876C80.5768 238.906 83.35 238.942 85.2856 239.06C85.9967 239.109 86.7066 239.174 87.4148 239.256C87.9042 237.271 89.8083 229.316 91.2354 228.374C91.7982 228.002 92.6972 227.845 93.3577 227.784C95.4834 227.589 106.202 227.713 108.114 228.194C108.714 228.345 109.197 228.865 109.462 229.406C110.392 231.306 108.075 236.36 107.414 238.426C109.568 238.729 115.077 239.394 116.362 241.057C117.821 242.943 119.241 247.375 120.204 249.786C122.582 255.74 125.218 261.55 127.803 267.415C128.866 269.829 130.834 275.197 132.388 277.021C132.827 278.584 133.236 280.162 133.792 281.689C130.237 281.822 126.639 281.705 123.08 281.703L104.887 281.75C78.3634 281.619 51.8396 281.634 25.3166 281.794C25.7987 277.807 26.5397 273.78 26.7394 269.77ZM107.188 239.013C106.781 240.17 106.358 241.322 105.922 242.468C106.253 243.194 106.528 243.777 106.222 244.566C106.017 245.096 105.864 245.426 105.853 246.005C106.511 246.705 107.524 247.214 107.477 248.319C107.431 249.393 106.424 250.425 105.652 251.069C105.373 251.303 105.07 251.515 104.774 251.727C104.985 252.866 104.924 253.879 104.243 254.858C103.771 255.539 103.145 256.037 102.493 256.532C103.271 257.696 104.213 259.484 105.673 259.833C107.359 260.235 110.107 258.435 111.638 257.687C114.708 256.225 117.761 254.73 120.797 253.2C119.916 250.911 118.999 248.637 118.046 246.377C117.459 244.954 116.939 243.321 116.082 242.036C115.71 241.479 115.294 241.073 114.687 240.782C112.533 239.748 109.546 239.443 107.188 239.013ZM120.894 253.937L113.071 257.74C110.93 258.795 108.772 259.964 106.542 260.815C107.076 263.896 107.919 266.928 108.601 269.98C109.42 273.651 110.098 277.381 111.077 281.013L118.624 281.008C123.383 281.016 128.176 281.151 132.93 281.035C130.481 274.85 127.61 268.798 124.922 262.711C124.13 260.93 123.348 259.144 122.575 257.355C122.099 256.245 121.685 255.032 121.06 253.998L120.894 253.937ZM101.85 257.097L101.675 257.192C101.314 257.394 100.871 257.577 100.728 257.995C100.57 258.462 100.55 258.986 100.343 259.437C99.8867 260.432 98.4163 261.435 97.484 261.986C93.3181 264.446 88.5176 265.029 83.8099 264.284C80.7204 268.769 76.9883 272.958 73.5982 277.227C72.6009 278.483 71.4846 279.722 70.5868 281.043C73.4346 281.072 76.2827 281.081 79.1309 281.07L110.427 281.094C109.142 274.275 107.079 267.589 105.857 260.75C105.421 260.551 104.927 260.349 104.553 260.046C103.809 259.442 102.52 257.337 101.85 257.097Z" fill="#1C1741"/>
</g>
<defs>
<clipPath id="clip0_3_779">
<rect width="296" height="296" fill="white"/>
</clipPath>
</defs>
</svg>
