<svg width="48" height="48" viewBox="0 0 48 48" fill="none" xmlns="http://www.w3.org/2000/svg">
<rect width="48" height="48" rx="10" fill="#6556FE"/>
<path d="M20.75 34.425C19.9833 34.425 19.2958 34.225 18.6875 33.825C18.0792 33.425 17.6083 32.875 17.275 32.175C17.0083 32.525 16.6708 32.7959 16.2625 32.9875C15.8542 33.1792 15.4333 33.275 15 33.275C14.15 33.275 13.4375 32.9834 12.8625 32.4C12.2875 31.8167 12 31.1084 12 30.275C12 29.5584 12.2333 28.9125 12.7 28.3375C13.1667 27.7625 13.7583 27.4334 14.475 27.35C14.2417 27.0167 14.0625 26.6625 13.9375 26.2875C13.8125 25.9125 13.75 25.5167 13.75 25.1C13.75 24.4334 13.9208 23.8084 14.2625 23.225C14.6042 22.6417 15.0833 22.1667 15.7 21.8C15.7833 22.1 15.8958 22.4209 16.0375 22.7625C16.1792 23.1042 16.3417 23.4 16.525 23.65C16.2917 23.8334 16.1083 24.0542 15.975 24.3125C15.8417 24.5709 15.775 24.8417 15.775 25.125C15.775 26.0584 16.1583 26.6334 16.925 26.85C17.6917 27.0667 18.4167 27.2417 19.1 27.375L19.575 28.175C19.3917 28.7084 19.2333 29.1625 19.1 29.5375C18.9667 29.9125 18.9 30.25 18.9 30.55C18.9 31.05 19.0792 31.4875 19.4375 31.8625C19.7958 32.2375 20.2333 32.425 20.75 32.425C21.3833 32.425 21.9083 32.1417 22.325 31.575C22.7417 31.0084 23.0833 30.3417 23.35 29.575C23.6167 28.8084 23.8208 28.0334 23.9625 27.25C24.1042 26.4667 24.2167 25.8667 24.3 25.45L26.25 25.975C26.1 26.725 25.9167 27.5834 25.7 28.55C25.4833 29.5167 25.1792 30.4375 24.7875 31.3125C24.3958 32.1875 23.8792 32.925 23.2375 33.525C22.5958 34.125 21.7667 34.425 20.75 34.425ZM15 31.275C15.2833 31.275 15.5208 31.1792 15.7125 30.9875C15.9042 30.7959 16 30.5584 16 30.275C16 29.9917 15.9042 29.7542 15.7125 29.5625C15.5208 29.3709 15.2833 29.275 15 29.275C14.7167 29.275 14.4792 29.3709 14.2875 29.5625C14.0958 29.7542 14 29.9917 14 30.275C14 30.5584 14.0958 30.7959 14.2875 30.9875C14.4792 31.1792 14.7167 31.275 15 31.275ZM22.1 27.325C21.3333 26.6417 20.6375 26.0042 20.0125 25.4125C19.3875 24.8209 18.85 24.2459 18.4 23.6875C17.95 23.1292 17.6042 22.5709 17.3625 22.0125C17.1208 21.4542 17 20.875 17 20.275C17 19.1917 17.3708 18.2792 18.1125 17.5375C18.8542 16.7959 19.7667 16.425 20.85 16.425C20.9167 16.425 20.975 16.4292 21.025 16.4375C21.075 16.4459 21.1333 16.45 21.2 16.45C21.1333 16.2834 21.0833 16.1167 21.05 15.95C21.0167 15.7834 21 15.6084 21 15.425C21 14.5917 21.2917 13.8834 21.875 13.3C22.4583 12.7167 23.1667 12.425 24 12.425C24.8333 12.425 25.5417 12.7167 26.125 13.3C26.7083 13.8834 27 14.5917 27 15.425C27 15.6084 26.9833 15.7792 26.95 15.9375C26.9167 16.0959 26.8667 16.2584 26.8 16.425H27.15C28.15 16.425 29 16.7459 29.7 17.3875C30.4 18.0292 30.8167 18.825 30.95 19.775C30.65 19.725 30.3125 19.7 29.9375 19.7C29.5625 19.7 29.2167 19.7167 28.9 19.75C28.7833 19.3667 28.5708 19.05 28.2625 18.8C27.9542 18.55 27.5833 18.425 27.15 18.425C26.5667 18.425 26.1125 18.5959 25.7875 18.9375C25.4625 19.2792 25.0167 19.775 24.45 20.425H23.525C22.9417 19.7417 22.4875 19.2375 22.1625 18.9125C21.8375 18.5875 21.4 18.425 20.85 18.425C20.3167 18.425 19.875 18.6 19.525 18.95C19.175 19.3 19 19.7417 19 20.275C19 20.6584 19.1083 21.0542 19.325 21.4625C19.5417 21.8709 19.8458 22.3042 20.2375 22.7625C20.6292 23.2209 21.1042 23.7084 21.6625 24.225C22.2208 24.7417 22.8417 25.3 23.525 25.9L22.1 27.325ZM24 16.425C24.2833 16.425 24.5208 16.3292 24.7125 16.1375C24.9042 15.9459 25 15.7084 25 15.425C25 15.1417 24.9042 14.9042 24.7125 14.7125C24.5208 14.5209 24.2833 14.425 24 14.425C23.7167 14.425 23.4792 14.5209 23.2875 14.7125C23.0958 14.9042 23 15.1417 23 15.425C23 15.7084 23.0958 15.9459 23.2875 16.1375C23.4792 16.3292 23.7167 16.425 24 16.425ZM27.225 34.425C26.8583 34.425 26.4958 34.375 26.1375 34.275C25.7792 34.175 25.4333 34.0167 25.1 33.8C25.2833 33.5667 25.4667 33.2917 25.65 32.975C25.8333 32.6584 26 32.3667 26.15 32.1C26.3333 32.2167 26.5167 32.3 26.7 32.35C26.8833 32.4 27.0667 32.425 27.25 32.425C27.7833 32.425 28.2292 32.2375 28.5875 31.8625C28.9458 31.4875 29.125 31.0417 29.125 30.525C29.125 30.2084 29.0583 29.8667 28.925 29.5C28.7917 29.1334 28.6333 28.6834 28.45 28.15L28.925 27.35C29.625 27.2167 30.3542 27.0417 31.1125 26.825C31.8708 26.6084 32.25 26.0334 32.25 25.1C32.25 24.4334 32.0042 23.95 31.5125 23.65C31.0208 23.35 30.4833 23.2 29.9 23.2C29.2 23.2 28.3833 23.3334 27.45 23.6C26.5167 23.8667 25.425 24.2084 24.175 24.625L23.65 22.675C24.95 22.2584 26.1083 21.9084 27.125 21.625C28.1417 21.3417 29.075 21.2 29.925 21.2C31.075 21.2 32.0833 21.5417 32.95 22.225C33.8167 22.9084 34.25 23.8667 34.25 25.1C34.25 25.5167 34.1875 25.9125 34.0625 26.2875C33.9375 26.6625 33.7583 27.0167 33.525 27.35C34.2417 27.4334 34.8333 27.7625 35.3 28.3375C35.7667 28.9125 36 29.5584 36 30.275C36 31.1084 35.7125 31.8167 35.1375 32.4C34.5625 32.9834 33.85 33.275 33 33.275C32.5667 33.275 32.1458 33.1792 31.7375 32.9875C31.3292 32.7959 30.9917 32.525 30.725 32.175C30.3917 32.875 29.9208 33.425 29.3125 33.825C28.7042 34.225 28.0083 34.425 27.225 34.425ZM33.025 31.275C33.3083 31.275 33.5417 31.1792 33.725 30.9875C33.9083 30.7959 34 30.5584 34 30.275C34 29.9917 33.9042 29.75 33.7125 29.55C33.5208 29.35 33.2833 29.25 33 29.25C32.7167 29.25 32.4792 29.3459 32.2875 29.5375C32.0958 29.7292 32 29.9667 32 30.25C32 30.5334 32.1 30.775 32.3 30.975C32.5 31.175 32.7417 31.275 33.025 31.275Z" fill="white"/>
</svg>
