<svg width="46" height="48" viewBox="0 0 46 48" fill="none" xmlns="http://www.w3.org/2000/svg">
<g filter="url(#filter0_dd_14_7870)">
<rect x="3" y="1" width="40" height="40" rx="20" fill="white"/>
<path d="M23.6663 21C23.6663 20.6318 23.3679 20.3333 22.9997 20.3333C22.6315 20.3333 22.333 20.6318 22.333 21C22.333 21.3682 22.6315 21.6667 22.9997 21.6667C23.3679 21.6667 23.6663 21.3682 23.6663 21Z" stroke="#0A0A0A" stroke-width="1.5" stroke-linecap="round" stroke-linejoin="round"/>
<path d="M28.3333 21C28.3333 20.6318 28.0349 20.3333 27.6667 20.3333C27.2985 20.3333 27 20.6318 27 21C27 21.3682 27.2985 21.6667 27.6667 21.6667C28.0349 21.6667 28.3333 21.3682 28.3333 21Z" stroke="#0A0A0A" stroke-width="1.5" stroke-linecap="round" stroke-linejoin="round"/>
<path d="M18.9998 21C18.9998 20.6318 18.7014 20.3333 18.3332 20.3333C17.965 20.3333 17.6665 20.6318 17.6665 21C17.6665 21.3682 17.965 21.6667 18.3332 21.6667C18.7014 21.6667 18.9998 21.3682 18.9998 21Z" stroke="#0A0A0A" stroke-width="1.5" stroke-linecap="round" stroke-linejoin="round"/>
</g>
<defs>
<filter id="filter0_dd_14_7870" x="0" y="0" width="46" height="48" filterUnits="userSpaceOnUse" color-interpolation-filters="sRGB">
<feFlood flood-opacity="0" result="BackgroundImageFix"/>
<feColorMatrix in="SourceAlpha" type="matrix" values="0 0 0 0 0 0 0 0 0 0 0 0 0 0 0 0 0 0 127 0" result="hardAlpha"/>
<feMorphology radius="1" operator="dilate" in="SourceAlpha" result="effect1_dropShadow_14_7870"/>
<feOffset/>
<feComposite in2="hardAlpha" operator="out"/>
<feColorMatrix type="matrix" values="0 0 0 0 0.898039 0 0 0 0 0.898039 0 0 0 0 0.898039 0 0 0 1 0"/>
<feBlend mode="normal" in2="BackgroundImageFix" result="effect1_dropShadow_14_7870"/>
<feColorMatrix in="SourceAlpha" type="matrix" values="0 0 0 0 0 0 0 0 0 0 0 0 0 0 0 0 0 0 127 0" result="hardAlpha"/>
<feMorphology radius="5" operator="erode" in="SourceAlpha" result="effect2_dropShadow_14_7870"/>
<feOffset dy="4"/>
<feGaussianBlur stdDeviation="4"/>
<feComposite in2="hardAlpha" operator="out"/>
<feColorMatrix type="matrix" values="0 0 0 0 0 0 0 0 0 0 0 0 0 0 0 0 0 0 0.15 0"/>
<feBlend mode="normal" in2="effect1_dropShadow_14_7870" result="effect2_dropShadow_14_7870"/>
<feBlend mode="normal" in="SourceGraphic" in2="effect2_dropShadow_14_7870" result="shape"/>
</filter>
</defs>
</svg>
