<svg width="20" height="20" viewBox="0 0 20 20" fill="none" xmlns="http://www.w3.org/2000/svg">
<path d="M10.8337 9.99999C10.8337 9.53976 10.4606 9.16666 10.0003 9.16666C9.54009 9.16666 9.16699 9.53976 9.16699 9.99999C9.16699 10.4602 9.54009 10.8333 10.0003 10.8333C10.4606 10.8333 10.8337 10.4602 10.8337 9.99999Z" stroke="#0A0A0A" stroke-width="1.5" stroke-linecap="round" stroke-linejoin="round"/>
<path d="M16.6667 9.99999C16.6667 9.53976 16.2936 9.16666 15.8333 9.16666C15.3731 9.16666 15 9.53976 15 9.99999C15 10.4602 15.3731 10.8333 15.8333 10.8333C16.2936 10.8333 16.6667 10.4602 16.6667 9.99999Z" stroke="#0A0A0A" stroke-width="1.5" stroke-linecap="round" stroke-linejoin="round"/>
<path d="M5.00016 10C5.00016 9.53976 4.62707 9.16666 4.16683 9.16666C3.70659 9.16666 3.3335 9.53976 3.3335 10C3.3335 10.4602 3.70659 10.8333 4.16683 10.8333C4.62707 10.8333 5.00016 10.4602 5.00016 10Z" stroke="#0A0A0A" stroke-width="1.5" stroke-linecap="round" stroke-linejoin="round"/>
</svg>
