<svg width="56" height="59" viewBox="0 0 56 59" fill="none" xmlns="http://www.w3.org/2000/svg">
<g filter="url(#filter0_dd_64_4023)">
<rect x="4" y="2.00012" width="48" height="48" rx="24" fill="white"/>
<g clip-path="url(#clip0_64_4023)">
<path d="M40 26.0001C40 19.3727 34.6274 14.0001 28 14.0001C21.3726 14.0001 16 19.3727 16 26.0001C16 31.9896 20.3882 36.9542 26.125 37.8543V29.4689H23.0781V26.0001H26.125V23.3564C26.125 20.3489 27.9166 18.6876 30.6576 18.6876C31.9705 18.6876 33.3438 18.922 33.3438 18.922V21.8751H31.8306C30.3399 21.8751 29.875 22.8002 29.875 23.7492V26.0001H33.2031L32.6711 29.4689H29.875V37.8543C35.6117 36.9542 40 31.9897 40 26.0001Z" fill="#1877F2"/>
<path d="M32.6711 29.4689L33.2031 26.0001H29.875V23.7492C29.875 22.8001 30.3399 21.8751 31.8306 21.8751H33.3438V18.922C33.3438 18.922 31.9705 18.6876 30.6575 18.6876C27.9166 18.6876 26.125 20.3489 26.125 23.3564V26.0001H23.0781V29.4689H26.125V37.8543C26.7453 37.9515 27.3722 38.0003 28 38.0001C28.6278 38.0003 29.2547 37.9515 29.875 37.8543V29.4689H32.6711Z" fill="white"/>
</g>
</g>
<defs>
<filter id="filter0_dd_64_4023" x="0.4" y="0.800122" width="55.2" height="57.6" filterUnits="userSpaceOnUse" color-interpolation-filters="sRGB">
<feFlood flood-opacity="0" result="BackgroundImageFix"/>
<feColorMatrix in="SourceAlpha" type="matrix" values="0 0 0 0 0 0 0 0 0 0 0 0 0 0 0 0 0 0 127 0" result="hardAlpha"/>
<feMorphology radius="1.2" operator="dilate" in="SourceAlpha" result="effect1_dropShadow_64_4023"/>
<feOffset/>
<feComposite in2="hardAlpha" operator="out"/>
<feColorMatrix type="matrix" values="0 0 0 0 0.898039 0 0 0 0 0.898039 0 0 0 0 0.898039 0 0 0 1 0"/>
<feBlend mode="normal" in2="BackgroundImageFix" result="effect1_dropShadow_64_4023"/>
<feColorMatrix in="SourceAlpha" type="matrix" values="0 0 0 0 0 0 0 0 0 0 0 0 0 0 0 0 0 0 127 0" result="hardAlpha"/>
<feMorphology radius="6" operator="erode" in="SourceAlpha" result="effect2_dropShadow_64_4023"/>
<feOffset dy="4.8"/>
<feGaussianBlur stdDeviation="4.8"/>
<feComposite in2="hardAlpha" operator="out"/>
<feColorMatrix type="matrix" values="0 0 0 0 0 0 0 0 0 0 0 0 0 0 0 0 0 0 0.15 0"/>
<feBlend mode="normal" in2="effect1_dropShadow_64_4023" result="effect2_dropShadow_64_4023"/>
<feBlend mode="normal" in="SourceGraphic" in2="effect2_dropShadow_64_4023" result="shape"/>
</filter>
<clipPath id="clip0_64_4023">
<rect width="24" height="24" fill="white" transform="translate(16 14.0001)"/>
</clipPath>
</defs>
</svg>
