<svg width="297" height="228" viewBox="0 0 297 228" fill="none" xmlns="http://www.w3.org/2000/svg">
<g clip-path="url(#clip0_3_697)">
<path d="M43.3609 23.8434C42.0286 24.4536 40.7273 25.0831 39.4574 25.8181C31.2503 30.5558 25.0809 38.1561 22.1315 47.1618C21.4349 49.2367 21.2433 51.4033 20.5883 53.455C20.4634 53.8464 20.3477 53.9383 19.9935 54.1257L19.7941 53.9964C19.7147 53.8091 19.661 53.6273 19.6402 53.4235C19.5358 52.4005 19.9066 51.1917 20.1209 50.1958C21.4242 44.1385 24.6319 38.1217 28.6462 33.4198C35.7305 25.1222 45.5777 20.4085 56.4051 19.5725C57.0278 19.4947 57.6996 19.5095 58.3271 19.5013C69.0638 19.3614 79.0454 23.6848 86.6512 31.1608C88.0841 32.5691 91.78 36.5414 91.8023 38.5657L91.6369 38.7258C91.2542 38.6172 90.9961 38.359 90.742 38.0636C90.0783 37.2921 89.5817 36.3778 88.9917 35.5511C88.1193 34.3289 87.103 33.1822 86.0473 32.1164C82.2017 28.271 77.6203 25.2407 72.5767 23.2066C63.1796 19.3207 52.6202 20.0354 43.3609 23.8434Z" fill="black"/>
<path d="M22.4935 208.742C19.5213 206.264 17.6423 203.706 17.2563 199.751C16.9371 196.478 17.963 193.216 20.0981 190.715C22.3234 188.064 25.3678 186.77 28.7575 186.4L28.7277 159.66C25.1497 159.293 22.1087 158.111 19.7784 155.257C17.8048 152.837 16.8855 149.726 17.2266 146.622C17.5625 143.535 19.0914 140.701 21.4873 138.725C23.5587 137.067 26.1194 136.14 28.7719 136.087L28.7403 109.426C25.13 109.063 21.9636 107.792 19.6316 104.9C17.6442 102.414 16.7239 99.2413 17.0723 96.0775C17.433 92.9131 19.0532 90.0274 21.567 88.0716C23.6655 86.4445 26.3431 85.6016 28.9853 85.5149L28.9953 68.054C28.9953 64.1187 28.7936 60.0863 29.1531 56.1698C29.808 48.8915 32.9847 42.0708 38.1347 36.8859C43.9922 31.0089 51.968 27.9595 60.2112 28.0004C68.3911 28.1029 76.197 31.4422 81.9201 37.2874C91.7913 47.3456 90.7125 57.2009 90.6856 69.9263L251.887 69.9315C256.008 69.9364 286.864 69.7219 287.724 70.1122C287.906 70.3876 287.916 70.4116 287.91 70.7414C287.192 71.4239 281.218 71.1051 279.844 71.1138L280.021 211.065L280.014 234.597L279.996 242.566C279.99 243.614 280.075 244.693 279.997 245.736C279.968 246.128 279.918 246.405 279.637 246.701L279.296 246.8C278.758 246.272 278.829 245.045 278.822 244.328L278.833 221.257L265.365 221.29L265.397 232.367C265.39 234.789 265.62 237.533 265.025 239.892C264.614 241.521 263.777 243.011 262.601 244.211C260.508 246.321 257.655 247.099 254.755 247.088C253.296 247.082 251.833 247.02 250.375 247.053L50.7626 247.027C47.5347 247.002 44.3067 247.007 41.0788 247.041C37.4941 247.055 34.4508 246.852 31.7866 244.167C30.4982 242.866 29.581 241.244 29.1298 239.47C28.5111 237.009 28.8237 234.128 28.8277 231.598L28.8451 220.484L28.8384 210.616C26.4657 210.546 24.549 209.881 22.4935 208.742ZM103.895 145.683C102.888 143.546 101.904 141.366 101.07 139.155L98.2079 139.179C99.5862 141.8 100.753 144.509 101.956 147.212C102.413 148.24 103.084 149.361 103.399 150.43C103.486 150.726 103.458 151.002 103.367 151.294C103.217 151.773 102.936 152.153 102.484 152.385C101.409 152.936 100.117 152.56 99.0375 152.243L98.2946 154C99.6639 154.732 101.195 155.053 102.721 154.606C104.189 154.175 104.908 153.109 105.565 151.816C107.628 147.753 109.373 143.377 111.097 139.162L108.633 139.149C107.794 141.362 106.869 143.542 105.861 145.684C105.275 145.448 104.494 145.503 103.895 145.683ZM148.106 139.149C147.334 139.13 146.443 139.011 145.699 139.235C145.658 139.645 145.627 140.052 145.603 140.463C144.885 140.416 143.864 139.502 143.135 139.2C142.021 138.739 140.293 138.938 139.201 139.39C137.896 139.939 136.862 140.984 136.328 142.296C135.767 143.685 135.779 145.239 136.363 146.618C137.111 148.345 138.478 149.095 140.149 149.719L140.292 150.038C141.696 150.312 144.201 149.701 145.312 150.522C144.864 151.362 144.227 151.948 143.304 152.229C141.341 152.827 139.208 152.065 137.461 151.186C137.164 151.745 136.916 152.345 136.647 152.919C138.096 153.844 139.691 154.324 141.406 154.399C143.198 154.476 145.177 154.151 146.516 152.864C147.225 152.182 147.667 151.296 147.892 150.346C148.482 147.86 148.119 142.046 148.106 139.149ZM139.562 177.147C139.642 177.353 139.632 177.478 139.847 177.581C140.963 178.115 144.27 176.893 144.746 177.976C144.774 178.039 144.796 178.104 144.82 178.168C144.436 178.896 143.826 179.396 143.054 179.673C141.06 180.39 138.808 179.567 136.984 178.745C136.706 179.343 136.46 179.958 136.203 180.565C137.697 181.576 139.459 182.117 141.263 182.12C143.019 182.133 144.87 181.695 146.123 180.388C146.738 179.746 147.14 178.962 147.356 178.102C147.973 175.649 147.599 169.499 147.588 166.682L145.102 166.71L145.205 168.34C144.675 167.908 144.088 167.492 143.463 167.206C142.074 166.572 140.498 166.442 139.063 167.002C137.752 167.515 136.702 168.532 136.149 169.826C135.566 171.203 135.583 172.915 136.178 174.285C136.866 175.869 138.046 176.535 139.562 177.147ZM59.8242 29.1136C51.6021 29.3532 44.0602 32.2747 38.359 38.343C33.8346 43.1617 31.0061 49.3257 30.3038 55.8987C29.8977 59.9354 30.1093 64.1283 30.0837 68.187L30.0197 85.4923C33.5079 86.0222 36.5757 87.521 38.722 90.3986C40.2067 92.3888 40.8741 94.6724 41.0019 97.134C42.6663 97.1372 52.3097 96.9068 53.0029 97.4312C52.954 97.7379 52.9196 97.8572 52.6259 98.0362C51.999 98.4177 42.5813 98.1365 40.9851 98.1402C40.4634 101.728 39.2351 104.727 36.252 106.954C34.3257 108.393 32.2788 109.056 29.9252 109.398L29.8781 136.093C33.1524 136.384 36.058 137.779 38.1699 140.339C40.1769 142.773 41.0741 146.078 40.7518 149.201C40.4307 152.313 38.7703 155.243 36.3361 157.195C34.439 158.716 32.3161 159.35 29.9302 159.605L29.9384 186.407C33.4183 186.808 36.4211 188.193 38.6506 190.969C40.3717 193.112 41.1302 195.723 41.3086 198.432C43.5852 198.436 50.2345 198.128 52.0475 198.718L52.2074 199.056C52.0319 199.34 52.0371 199.347 51.7255 199.42C50.3467 199.743 43.2106 199.479 41.2918 199.458C40.7481 203.017 39.1883 206.113 36.2416 208.279C34.3526 209.667 32.2811 210.318 29.9769 210.623C29.9085 216.906 29.8791 223.19 29.8885 229.473C29.8848 232.337 29.5582 236.521 30.1136 239.18C30.4321 240.704 31.2914 242.117 32.3641 243.232C34.3794 245.326 36.6593 245.958 39.4985 245.996C44.7134 246.065 49.9394 245.952 55.1558 245.956L94.7967 245.957L214.497 245.947L243.745 245.961L251.889 245.977C253.75 245.98 255.743 246.118 257.574 245.76C259.109 245.459 260.628 244.526 261.735 243.434C262.718 242.465 263.481 241.303 263.868 239.972C264.629 237.356 264.273 234.028 264.275 231.308L264.279 221.315L264.278 221.249C258.717 221.51 253.134 221.399 247.567 221.384L222.685 221.318L148.817 221.336L90.1399 221.287L72.5473 221.318C69.241 221.338 65.7508 221.582 62.465 221.291C60.2789 221.098 58.3476 220.127 56.737 218.653C54.724 216.811 53.8308 214.339 53.7449 211.658C53.642 208.446 53.7172 205.21 53.7195 201.995L53.823 180.06L53.8553 125.991L53.8802 95.8566L53.8623 86.2274C53.8628 84.0603 53.7912 81.8582 54.0383 79.7033C54.2985 77.4327 55.4703 75.2277 57.0437 73.5829C59.527 70.9872 62.7035 70.0052 66.2269 69.9468C73.9908 69.8176 81.7765 69.935 89.5427 69.9376C89.5554 57.5483 90.6215 47.6867 81.0081 37.9878C75.4775 32.3805 67.9529 29.1899 60.0774 29.1127L59.8242 29.1136ZM265.215 70.9976L265.15 121.374L278.817 121.393L278.893 71.0337L265.215 70.9976ZM64.3492 71.1406C61.364 71.6928 58.5561 73.0696 56.7942 75.6281C55.8736 76.9655 55.394 78.4525 55.1841 80.0536C54.9448 81.8799 55.0243 83.7568 55.0226 85.5964L55.0174 93.8404L55.0009 121.189L254.815 121.287L264.059 121.292L264.078 71.0791L125.185 71.0646L82.6199 71.0875L70.6843 71.0698C68.6334 71.0652 66.3758 70.8837 64.3492 71.1406ZM27.2397 86.5743C21.2202 87.5594 17.1387 93.2372 18.123 99.2569C19.1072 105.277 24.7846 109.359 30.8043 108.375C36.8252 107.392 40.9085 101.713 39.924 95.6922C38.9394 89.6716 33.2602 85.5891 27.2397 86.5743ZM265.231 122.532L265.238 142.767C265.227 146.69 265.119 150.628 265.189 154.549L278.705 154.569C279.077 153.567 278.799 126.224 278.801 122.546C274.278 122.517 269.754 122.513 265.231 122.532ZM114.683 134.428C114.124 134.66 113.645 134.86 113.4 135.463C113.248 135.835 113.282 136.14 113.445 136.498C113.596 136.831 113.943 137.13 114.28 137.251C114.584 137.36 114.934 137.356 115.254 137.365C115.807 137.107 116.273 136.905 116.528 136.307C116.671 135.971 116.679 135.638 116.515 135.309C116.284 134.847 115.843 134.602 115.355 134.508C115.134 134.466 114.907 134.446 114.683 134.428ZM68.0067 136.019L67.9309 150.83C71.0875 150.857 78.1334 151.555 80.4228 149.24C80.6991 148.961 80.9228 148.661 81.1272 148.328C81.4692 147.402 81.6496 146.472 81.2408 145.533C80.6745 144.231 79.3423 143.618 78.1103 143.111C79.0283 142.788 79.9958 142.306 80.4167 141.365C80.7948 140.519 80.7087 139.274 80.3387 138.44C79.9218 137.502 79.0581 136.861 78.1143 136.513C75.7067 135.624 70.6993 136.007 68.0067 136.019ZM27.2154 137.061C21.2556 138.055 17.228 143.69 18.2162 149.651C19.2044 155.611 24.8348 159.645 30.7965 158.662C36.7668 157.679 40.807 152.039 39.8176 146.069C38.8278 140.1 33.1836 136.066 27.2154 137.061ZM113.638 139.067C113.65 143.017 113.64 146.968 113.611 150.919L116.152 150.916L116.217 139.062L113.638 139.067ZM126.549 139.049L126.375 139.092C125.391 139.346 124.59 139.863 123.723 140.369L123.564 140.255L123.508 139.312C123.071 138.989 121.675 139.14 121.08 139.154L121.07 150.907L123.624 150.906C123.625 148.798 123.068 143.474 124.616 142.024C124.964 141.698 125.409 141.52 125.85 141.359C126.844 141.239 127.805 141.161 128.633 141.829C129.392 142.44 129.67 143.406 129.738 144.343C129.894 146.483 129.682 148.681 129.724 150.831L132.33 150.846C132.351 147.996 133.041 142.278 130.999 140.24C130.002 139.244 128.638 138.969 127.275 139.012C127.032 139.02 126.791 139.032 126.549 139.049ZM84.9914 139.17C84.9723 142.003 84.3433 147.606 86.2954 149.686C87.2432 150.695 88.5047 150.957 89.8361 150.961C91.4222 150.966 92.229 150.371 93.5234 149.554C93.7341 150.012 93.4979 150.394 93.8656 150.743C94.5464 150.811 95.208 150.79 95.8899 150.77L95.9047 142.719L95.9159 139.181L93.3332 139.188C93.3262 141.791 93.8437 145.705 92.503 147.946C91.6716 148.44 90.5128 148.917 89.5222 148.689C88.9105 148.548 88.4324 148.112 88.1295 147.575C87.1218 145.79 87.662 141.351 87.6135 139.167L84.9914 139.17ZM265.203 155.633C265.105 166.097 265.292 176.568 265.23 187.034C269.755 187.034 274.283 187.076 278.808 187.023L278.828 155.681L265.203 155.633ZM114.226 162.209C113.476 162.629 113.2 163.571 113.604 164.329C114.009 165.087 114.946 165.382 115.712 164.992C116.22 164.733 116.55 164.22 116.572 163.649C116.595 163.079 116.308 162.54 115.821 162.242C115.335 161.943 114.725 161.931 114.226 162.209ZM97.3676 162.464L97.3257 171.202C97.3205 172.692 97.1838 174.325 97.4101 175.794C97.5156 176.478 97.6752 177.139 98.194 177.628C98.8837 178.278 99.8018 178.408 100.714 178.329C101.289 178.28 101.843 178.102 102.377 177.89C102.579 177.316 102.233 176.624 102.05 176.048C101.435 176.103 100.824 176.218 100.23 176.015C100.141 175.925 100.028 175.854 99.9622 175.745C99.6047 175.158 99.8148 168.611 99.8194 167.36L99.84 162.475L97.3676 162.464ZM105.181 162.451L105.139 171.301C105.133 172.891 104.975 174.662 105.255 176.224C105.349 176.746 105.55 177.16 105.931 177.533C106.651 178.238 107.698 178.39 108.665 178.328C109.298 178.288 109.883 178.108 110.469 177.877C110.692 177.421 110.354 176.733 110.192 176.26L110.059 175.877C109.521 175.995 108.86 176.206 108.342 175.911C108.057 175.748 107.92 175.528 107.861 175.21C107.629 173.943 107.773 172.438 107.774 171.142C107.776 168.249 107.815 165.351 107.765 162.458L105.181 162.451ZM164.948 163.084C162.66 163.304 160.614 163.96 159.056 165.78C157.681 167.387 157.099 169.536 157.334 171.625C157.547 173.645 158.576 175.491 160.182 176.735C161.866 178.028 164.1 178.479 166.186 178.292C168.546 178.019 170.525 177.337 172.03 175.372C173.316 173.692 173.826 171.464 173.519 169.381C173.262 167.505 172.25 165.816 170.716 164.706C169.075 163.493 166.97 162.977 164.948 163.084ZM72.4686 163.503C70.9291 163.778 69.4546 164.252 68.5085 165.592C67.9093 166.44 67.4375 167.651 67.6624 168.702C67.8798 169.719 68.7377 170.458 69.5971 170.96C71.1985 171.894 76.3664 172.359 76.8627 173.88C76.9719 174.215 76.8237 174.609 76.643 174.894C76.2036 175.586 75.5165 175.9 74.7311 176.047C72.364 176.49 70.3802 175.784 68.3611 174.616L67.5471 176.973C69.7171 178.102 71.663 178.396 74.092 178.345C75.8989 178.095 77.5772 177.769 78.7722 176.243C79.4061 175.433 79.57 174.38 79.4278 173.376C79.3018 172.488 78.7384 171.801 78.0108 171.311C76.299 170.161 70.4203 169.719 70.2324 167.977C70.1787 167.479 70.4614 166.919 70.799 166.566C71.5399 165.791 72.8733 165.536 73.9018 165.56C75.4122 165.594 76.7979 166.106 78.1343 166.769L78.9165 164.75C77.0248 163.575 74.6661 163.201 72.4686 163.503ZM127.305 166.694C125.772 166.826 124.898 167.334 123.563 168.09C123.496 167.726 123.493 167.4 123.494 167.033C123.056 166.619 121.667 166.805 121.049 166.819C121.043 170.609 120.967 174.413 121.039 178.201L123.528 178.205C123.509 175.923 122.871 171.392 124.553 169.721C124.691 169.585 124.834 169.461 124.981 169.336C125.89 168.975 126.992 168.7 127.939 169.097C128.579 169.365 129.002 169.913 129.246 170.548C129.935 172.333 129.529 176.207 129.536 178.227L132.181 178.234C132.187 175.539 132.808 170.03 130.837 168.002C129.858 166.994 128.642 166.766 127.305 166.694ZM86.7677 166.813C85.0932 167.297 83.7123 168.077 82.8549 169.668C82.0915 171.085 81.951 172.9 82.4604 174.424C82.9633 175.908 84.0551 177.12 85.479 177.775C87.2371 178.603 89.3383 178.586 91.1259 177.86C91.7745 177.596 92.3379 177.214 92.9111 176.821C92.5582 176.256 92.248 175.64 91.7011 175.243C91.3756 175.31 91.5051 175.233 91.2987 175.451C89.9766 176.15 88.485 176.398 87.0287 175.953C86.2037 175.701 85.4854 175.193 85.1224 174.394C85.0218 174.173 84.9874 173.958 84.9521 173.72L85.0804 173.421C87.0605 173.014 91.3649 173.309 93.5896 173.321C93.6297 171.474 93.4768 169.801 92.1165 168.4C91.0822 167.334 89.5387 166.76 88.0639 166.769C87.6314 166.775 87.1993 166.789 86.7677 166.813ZM113.657 166.757L113.567 178.203L116.191 178.199C116.314 174.402 116.308 170.576 116.243 166.778L113.657 166.757ZM177.573 166.911L177.57 178.246L180.047 178.242L180.109 172.654C180.172 171.646 180.273 170.787 181.047 170.053C181.889 169.256 183.139 169.127 184.239 169.055L184.232 166.923C182.401 166.926 181.846 167.355 180.229 168.087C180.15 167.741 180.145 167.407 180.136 167.055C179.561 166.715 178.267 166.894 177.573 166.911ZM28.2949 187.385C22.1337 187.893 17.5454 193.291 18.036 199.454C18.5267 205.617 23.9111 210.22 30.0752 209.748C36.2647 209.273 40.8915 203.861 40.3989 197.673C39.9063 191.485 34.4815 186.874 28.2949 187.385ZM265.187 188.205L265.181 220.22L274.046 220.224C275.573 220.225 277.394 220.411 278.878 220.085L278.964 188.233L265.187 188.205ZM86.1 188.384C85.3163 188.598 84.8553 189.407 85.0697 190.191C85.2842 190.974 86.0933 191.436 86.877 191.221C87.6606 191.007 88.1219 190.198 87.9075 189.414C87.693 188.63 86.8836 188.169 86.1 188.384ZM106.335 188.476C105.93 188.89 105.538 189.317 105.551 189.937C105.558 190.312 105.656 190.613 105.959 190.854C106.482 191.269 107.047 191.129 107.639 191.019C108.071 190.676 108.439 190.372 108.488 189.778C108.518 189.41 108.374 189.106 108.108 188.857C107.606 188.386 107.084 188.398 106.446 188.461C106.409 188.465 106.372 188.471 106.335 188.476ZM154.609 189.445C152.474 194.243 150.275 199.024 148.258 203.873L150.681 203.882C151.148 202.661 151.678 201.505 152.287 200.35C153.801 200.357 155.316 200.379 156.829 200.367L159.195 200.363C159.733 201.451 160.294 202.533 160.795 203.638L163.281 203.629C161.223 198.874 159.206 194.089 156.919 189.438L154.609 189.445ZM74.2819 189.822C72.0634 189.98 70.1301 190.596 68.6117 192.33C67.2461 193.89 66.7336 195.874 66.9221 197.912C67.0976 199.808 67.9295 201.572 69.3965 202.808C71.1878 204.316 73.5564 204.684 75.8197 204.428C77.7171 204.213 79.2399 203.466 80.639 202.174C80.6347 200.584 80.6089 198.99 80.632 197.401C79.9501 197.364 78.9728 197.179 78.3849 197.558C78.269 197.863 78.26 198.074 78.2713 198.399C78.2802 199.087 78.48 200.809 78.0169 201.336C77.3613 202.082 75.5639 202.337 74.6305 202.318C73.2118 202.288 71.8145 201.734 70.8499 200.676C69.8902 199.623 69.4783 198.209 69.55 196.802C69.6208 195.405 70.2033 194.108 71.2812 193.202C72.4392 192.227 73.746 191.827 75.25 192.002C76.7774 192.179 77.9759 192.871 79.1281 193.847C79.6521 193.375 80.1973 192.915 80.6913 192.411C79.6851 191.033 78.3155 190.205 76.6254 189.931C75.8654 189.809 75.0497 189.779 74.2819 189.822ZM132.906 192.71C131.278 192.865 129.811 193.299 128.713 194.603C127.748 195.749 127.356 197.338 127.522 198.813C127.683 200.233 128.363 201.524 129.529 202.371C130.762 203.268 132.416 203.543 133.901 203.276C135.155 203.05 136.023 202.513 137.014 201.767C136.932 203.075 136.891 204.265 135.856 205.223C134.997 206.017 133.809 206.193 132.682 206.098C131.258 205.978 129.964 205.46 128.725 204.776C128.22 205.143 127.882 206.1 127.597 206.659C129.976 208.011 132.946 208.611 135.628 207.843C136.864 207.489 137.919 206.759 138.514 205.599C139.686 203.32 139.126 195.766 139.148 192.89C138.57 192.891 137.77 192.791 137.239 193.02C137.102 193.341 137.037 193.619 136.973 193.96C136.331 194.018 135.048 193.074 134.351 192.874C133.897 192.744 133.377 192.736 132.906 192.71ZM118.426 192.815L118.238 192.87C117.648 193.047 117.247 193.245 116.741 193.582C116.39 193.816 116.098 194.053 115.658 194.032C115.502 193.773 115.478 193.541 115.435 193.245C114.919 192.763 114.516 192.859 113.843 192.882L113.098 192.912L113.101 204.178L115.575 204.202C115.562 201.945 114.986 197.632 116.591 195.906C116.859 195.618 117.207 195.43 117.547 195.241C118.496 195.041 119.514 194.852 120.376 195.421C121.125 195.916 121.441 196.777 121.564 197.63C121.863 199.699 121.579 202.002 121.582 204.1L124.086 204.083C124.102 201.383 124.717 196.067 122.857 194.077C121.914 193.068 120.627 192.789 119.299 192.788C119.008 192.786 118.717 192.795 118.426 192.815ZM184.826 192.824C183.517 193.109 182.532 193.573 181.426 194.316L182.376 195.866C183.683 195.251 185.251 194.468 186.72 194.974C187.374 195.199 187.871 195.618 188.145 196.26C188.301 196.625 188.344 196.934 188.268 197.325C186.961 197.956 182.028 196.834 181.273 199.629C181.049 200.457 181.395 201.663 181.829 202.373C181.857 202.419 181.889 202.461 181.919 202.505C182.86 203.373 183.955 203.977 185.273 203.928C186.494 203.882 187.646 202.851 188.563 202.861C188.705 203.137 188.692 203.357 188.693 203.662C189.122 203.93 190.322 203.807 190.849 203.797C190.874 201.184 191.518 195.826 189.594 193.929C188.634 192.983 187.346 192.719 186.042 192.762C185.638 192.776 185.229 192.789 184.826 192.824ZM85.0952 192.86C85.0891 196.708 85.0463 200.559 85.081 204.406L87.6496 204.396C87.6805 200.6 87.6881 196.805 87.6713 193.009L85.0952 192.86ZM90.3081 192.948C92.0997 196.75 93.7436 200.62 95.5694 204.406L97.8986 204.386C99.3639 201.295 100.748 198.166 102.05 195.002L102.867 192.929L100.572 192.877C99.3948 195.629 98.349 198.879 96.7036 201.375C95.4127 198.598 94.1246 195.782 92.986 192.938L90.3081 192.948ZM105.712 192.936L105.706 204.39L108.235 204.397L108.214 192.954L105.712 192.936ZM162.568 192.964C163.952 196.468 165.243 199.999 166.588 203.517L168.445 203.641C169.276 201.277 170.082 198.894 171.071 196.59C171.972 198.914 172.818 201.26 173.609 203.624L175.563 203.634C176.707 200.927 177.781 198.19 178.783 195.427C179.084 194.608 179.394 193.793 179.667 192.965L177.435 192.933C176.488 195.438 175.369 197.975 174.627 200.546C174.124 199.086 172.532 193.406 171.44 192.744C171.247 192.627 171.143 192.71 170.938 192.758C169.488 193.949 168.41 198.236 167.621 200.111C166.726 197.744 165.873 195.361 165.065 192.964L162.568 192.964ZM193.248 192.917C193.985 194.652 198.253 203.06 197.822 204.215C197.693 204.56 197.486 204.788 197.127 204.912C196.355 205.177 195.386 205.024 194.685 204.635C194.477 204.518 194.272 204.395 194.071 204.266C193.652 204.809 193.245 205.369 192.807 205.896C194.247 206.651 195.909 207.339 197.546 206.797C198.809 206.378 199.604 205.291 200.149 204.131C200.572 203.235 200.924 202.295 201.291 201.375C202.529 198.581 203.826 195.799 204.88 192.929L202.731 192.946C201.572 195.573 200.432 198.207 199.311 200.85C197.891 198.287 196.93 195.508 195.621 192.897L193.248 192.917Z" fill="#1C1741"/>
<path d="M263.997 121.524L264.062 71.1482L277.74 71.1843L277.665 121.544L263.997 121.524Z" fill="#6556FE"/>
<path d="M29.6515 108.526C23.6318 109.509 17.9544 105.427 16.9702 99.4074C15.9859 93.3877 20.0674 87.7099 26.0869 86.7248C32.1074 85.7396 37.7866 89.8221 38.7712 95.8427C39.7557 101.864 35.6724 107.542 29.6515 108.526ZM26.984 92.5809C25.1753 92.911 23.6834 94.1875 23.0774 95.9233C22.4713 97.6591 22.8446 99.5866 24.0549 100.971C25.2651 102.355 27.1257 102.982 28.9269 102.613C31.6704 102.051 33.4501 99.3854 32.9177 96.6359C32.3852 93.8866 29.7391 92.0782 26.984 92.5809Z" fill="#6556FE"/>
<path d="M182.447 96.0916C181.813 95.2788 181.297 94.4558 181.162 93.4158C181.047 92.5379 181.249 91.6597 181.801 90.9587C182.661 89.8684 183.911 89.5319 185.221 89.3758C185.776 89.3709 186.382 89.418 186.916 89.5753C187.849 89.8505 188.775 90.3818 189.217 91.2839C189.557 91.9783 189.571 92.8044 189.322 93.5299C188.784 95.1027 187.446 95.808 186.052 96.4816C187.132 97.619 188.335 98.6475 189.496 99.7C189.958 98.7345 190.289 97.7023 190.647 96.6943L192.835 96.712C192.363 98.2576 191.72 99.6049 190.935 101.017C191.601 101.648 194.019 103.447 194.149 104.234L193.796 104.322L191.346 104.293C190.767 103.714 190.161 103.159 189.567 102.597C189.286 102.821 189 103.038 188.707 103.245C187.122 104.371 185.073 104.74 183.172 104.386C181.821 104.134 180.464 103.481 179.696 102.298C179.165 101.493 178.985 100.507 179.196 99.5667C179.592 97.8407 181.042 96.9423 182.447 96.0916ZM184.78 91.0761C184.246 91.3094 183.745 91.5363 183.502 92.1066C183.275 92.6402 183.334 93.3608 183.585 93.8754C183.875 94.4711 184.352 94.7807 184.95 95.0117C185.154 94.9793 185.364 94.9527 185.567 94.9108C186.3 94.4798 186.961 93.978 187.18 93.1108C187.294 92.6616 187.269 92.2185 187.001 91.8222C186.706 91.3831 186.188 91.1313 185.669 91.0848C185.375 91.0582 185.075 91.0692 184.78 91.0761ZM183.922 97.395C182.934 97.9916 181.874 98.6206 181.572 99.8263C181.433 100.381 181.525 100.96 181.858 101.429C182.31 102.066 183.101 102.406 183.853 102.52C184.504 102.619 185.146 102.556 185.796 102.492C186.673 102.24 187.396 101.904 188.183 101.45L183.922 97.395Z" fill="black"/>
<path d="M89.2995 104.315C87.4695 104.398 85.5403 103.991 84.023 102.932C82.5176 101.885 81.5073 100.266 81.2283 98.4538C80.9237 96.5255 81.409 94.4653 82.6228 92.9264C84.0354 91.1353 86.0149 90.4731 88.1884 90.2401C90.0372 90.1493 91.919 90.5144 93.438 91.6195C94.9412 92.7133 95.8841 94.3873 96.1353 96.2211C96.4073 98.1653 95.8621 100.136 94.6287 101.663C93.2351 103.384 91.4288 104.077 89.2995 104.315ZM87.7337 92.2398C84.9543 92.7503 83.1217 95.4256 83.6492 98.2017C84.1768 100.978 86.8633 102.794 89.636 102.249C92.385 101.71 94.1824 99.0516 93.6592 96.2994C93.1363 93.5473 90.489 91.7337 87.7337 92.2398Z" fill="black"/>
<path d="M120.876 100.807C121.134 101.053 121.402 101.3 121.698 101.501C123.082 102.435 125.282 102.688 126.898 102.275C127.532 102.113 128.432 101.64 128.707 101C128.796 100.792 128.855 100.607 128.78 100.389C128.244 98.8254 123.99 98.2337 122.551 97.5104C121.569 97.0167 120.629 96.2441 120.31 95.1517C120.044 94.2394 120.285 93.1788 120.783 92.3865C121.654 91.0008 123.221 90.5278 124.732 90.2188C126.872 90.02 128.608 90.4998 130.502 91.4809C130.211 92.1139 129.881 92.7126 129.536 93.317C128.69 92.8181 127.924 92.4961 126.945 92.3408C125.881 92.172 124.305 92.0836 123.42 92.7811C122.951 93.1502 122.646 93.6147 122.567 94.207C123.007 96.1623 127.976 96.5213 129.63 97.7799C130.335 98.3161 130.9 99.0627 130.979 99.9686C131.068 100.986 130.527 102.276 129.841 103.012C128.746 104.188 126.935 104.319 125.428 104.384C123.455 104.349 121.704 103.959 120.003 102.946C120.217 102.189 120.538 101.513 120.876 100.807Z" fill="black"/>
<path d="M132.196 104.301C132.955 102.113 134.068 99.9607 135.004 97.8358C136.111 95.3235 137.126 92.6647 138.42 90.249L140.729 90.2496C141.339 91.8478 142.162 93.4177 142.866 94.9813C144.249 98.0653 145.612 101.158 146.954 104.26C146.167 104.288 145.376 104.279 144.588 104.284C144.114 103.16 143.656 102.029 143.215 100.891L140.898 100.899L136.019 100.893C135.539 102.04 135.028 103.173 134.487 104.292C133.729 104.33 132.955 104.302 132.196 104.301ZM139.444 92.726C138.49 94.8208 137.428 96.953 136.664 99.1238L139.633 99.1377L142.395 99.1334C141.821 97.8045 140.264 93.5299 139.444 92.726Z" fill="black"/>
<path d="M149.544 104.212C149.524 99.5548 149.527 94.8978 149.555 90.241L151.782 90.2629C151.843 94.2552 151.819 98.2529 151.835 102.246C154.185 102.367 156.573 102.304 158.927 102.32L158.937 104.25C155.808 104.276 152.674 104.225 149.544 104.212Z" fill="black"/>
<path d="M69.1936 104.275L69.1632 90.3201L79.187 90.3256L79.17 92.2331L71.517 92.216C71.5 93.7197 71.5266 95.2275 71.5318 96.7315L78.36 96.7508L78.3889 98.6899C76.0912 98.6462 73.7928 98.6376 71.4948 98.6639L71.4855 104.265C70.7233 104.285 69.9564 104.272 69.1936 104.275Z" fill="black"/>
<path d="M99.6772 104.192L99.6978 90.356C102.342 90.3343 105.764 89.9175 108.238 90.8731C109.412 91.3264 110.437 92.1164 110.912 93.3117C111.423 94.6009 111.25 96.2604 110.702 97.5114C110.188 98.683 109.326 99.24 108.182 99.7106C109.246 101.083 110.395 102.541 111.226 104.066L111.149 104.173L109.87 104.206C109.696 104.209 109.45 104.23 109.275 104.191C108.457 104.009 106.703 100.857 106.205 100.111L102.03 100.139L102.029 104.206L99.6772 104.192ZM102.101 92.3398L102.102 98.1743C104.194 98.1959 106.347 98.5041 108.164 97.2816C108.68 96.5281 109.137 95.4759 108.958 94.5367C108.835 93.8852 108.332 93.3573 107.791 93.011C106.242 92.0201 103.881 92.2733 102.101 92.3398Z" fill="black"/>
<path d="M161.382 104.206L161.408 90.3496L171.391 90.3927L171.368 92.2152C168.83 92.1933 166.29 92.2198 163.753 92.2941L163.738 96.3075C165.973 96.2901 168.209 96.2904 170.444 96.3081L170.44 98.2063C168.252 98.2164 166.06 98.174 163.872 98.1557L163.716 98.298C163.464 99.5224 163.645 101.041 163.655 102.301L171.625 102.323L171.619 104.239C168.208 104.263 164.793 104.219 161.382 104.206Z" fill="black"/>
<path d="M201.107 104.299L201.113 90.3647L210.666 90.3769L210.663 92.2676C208.252 92.2515 205.841 92.2833 203.432 92.3633C203.397 93.804 203.421 95.2513 203.418 96.6929C204.493 96.6886 209.437 96.4481 210.039 96.8843L210.021 98.5958L203.371 98.5724C203.312 100.477 203.357 102.395 203.36 104.302L201.107 104.299Z" fill="black"/>
<path d="M213.716 104.158L213.748 90.3482C216.243 90.3248 219.231 90.008 221.653 90.624C222.887 90.9373 224.015 91.5741 224.633 92.7258C225.24 93.8586 225.309 95.5201 224.891 96.7252C224.407 98.1208 223.288 98.7351 222.049 99.3569C223.119 101.058 224.452 102.647 225.625 104.285L223.846 104.295C223.665 104.28 223.497 104.273 223.318 104.233C222.555 104.063 220.231 100.516 219.64 99.6997L215.895 99.7269C215.849 101.209 215.893 102.701 215.902 104.184L213.716 104.158ZM215.879 92.2341C215.864 94.0997 215.859 95.9659 215.863 97.8318C217.886 97.8618 220.301 98.2194 222.071 97.0736C222.59 96.3388 223.091 95.229 222.927 94.3012C222.824 93.7175 222.404 93.2469 221.917 92.9368C220.304 91.9077 217.73 92.2141 215.879 92.2341Z" fill="black"/>
<path d="M228.519 104.221L228.559 90.324C231.842 90.3616 235.125 90.3775 238.408 90.372L238.412 92.3769C235.905 92.3994 233.397 92.4038 230.89 92.3893L230.878 96.2879L237.571 96.2902L237.586 98.2524L231.086 98.2738C230.652 98.7588 230.9 101.538 230.906 102.286L238.691 102.291L238.7 104.209L228.519 104.221Z" fill="black"/>
<path d="M241.691 104.206C241.478 99.5936 241.678 94.8963 241.711 90.2739C244.895 90.3994 248.103 90.3234 251.29 90.3234L251.288 92.2791C248.848 92.2624 246.407 92.2589 243.967 92.2682L243.964 96.2697L250.569 96.2775L250.6 98.2307C248.438 98.3096 246.259 98.2633 244.095 98.2691C243.661 98.925 243.942 101.377 243.952 102.234C246.485 102.217 249.018 102.233 251.551 102.284C251.596 102.913 251.585 103.554 251.598 104.185L241.691 104.206Z" fill="black"/>
<path d="M28.9268 102.613C27.1256 102.982 25.265 102.355 24.0548 100.971C22.8445 99.5866 22.4712 97.6592 23.0773 95.9234C23.6833 94.1875 25.1752 92.911 26.984 92.5809C29.739 92.0782 32.3851 93.8866 32.9176 96.6359C33.45 99.3855 31.6703 102.051 28.9268 102.613ZM27.3265 93.4458C25.0503 93.7696 23.4533 95.8577 23.7371 98.139C24.0208 100.421 26.0805 102.054 28.3667 101.81C29.8815 101.649 31.1916 100.682 31.7928 99.2825C32.3941 97.8829 32.1932 96.2673 31.2673 95.0576C30.3414 93.8476 28.8348 93.2313 27.3265 93.4458Z" fill="black"/>
<path d="M29.6437 158.813C23.682 159.795 18.0516 155.762 17.0634 149.801C16.0752 143.84 20.1028 138.206 26.0627 137.212C32.0308 136.216 37.6751 140.251 38.6648 146.22C39.6543 152.189 35.614 157.83 29.6437 158.813ZM27.6602 142.962C24.9157 143.108 22.7978 145.432 22.9064 148.178C23.0151 150.924 25.3099 153.074 28.0574 153.003C29.8683 152.956 31.514 151.938 32.3644 150.338C33.2145 148.739 33.1382 146.805 32.1641 145.278C31.1899 143.75 29.4692 142.865 27.6602 142.962Z" fill="#6556FE"/>
<path d="M69.4906 142.649C69.4623 141.395 69.1883 139.336 69.6941 138.221C71.6673 138.18 74.9834 137.796 76.5287 139.28C76.8158 139.556 76.9438 139.883 76.9311 140.283C76.9103 140.943 76.3741 141.648 75.9188 142.082C74.0194 143.02 71.5522 142.688 69.4906 142.649Z" fill="#080717"/>
<path d="M141.818 147.906C140.953 147.977 140.077 147.963 139.276 147.592C138.377 147.176 137.693 146.448 137.395 145.496C137.14 144.68 137.213 143.747 137.629 142.997C138.208 141.955 139.116 141.539 140.219 141.242C140.991 141.188 141.783 141.242 142.5 141.557C143.39 141.948 144.112 142.693 144.41 143.625C144.675 144.45 144.595 145.346 144.189 146.111C143.667 147.089 142.838 147.577 141.818 147.906Z" fill="#080717"/>
<path d="M28.0573 153.003C25.3098 153.074 23.015 150.924 22.9063 148.178C22.7977 145.432 24.9156 143.108 27.6601 142.962C29.4691 142.865 31.1898 143.75 32.164 145.278C33.1381 146.805 33.2144 148.739 32.3643 150.338C31.5139 151.938 29.8682 152.956 28.0573 153.003ZM27.2484 143.965C25.0044 144.341 23.4934 146.469 23.8783 148.712C24.2631 150.955 26.3973 152.457 28.6383 152.063C30.8669 151.672 32.3594 149.552 31.9767 147.322C31.5939 145.092 29.48 143.591 27.2484 143.965Z" fill="black"/>
<path d="M69.5109 148.848C69.4878 147.895 69.1964 145.554 69.6173 144.773C69.7092 144.603 69.8763 144.635 70.0497 144.603C71.3219 144.583 72.6048 144.538 73.8766 144.58C74.9129 144.614 76.4849 144.724 77.1748 145.61C77.5 146.027 77.6217 146.555 77.5344 147.077C77.4272 147.719 76.9716 148.077 76.4869 148.457C74.5126 149.246 71.6399 148.872 69.5109 148.848Z" fill="#080717"/>
<path d="M102.742 145.833C103.341 145.653 104.122 145.598 104.708 145.835L103.804 148.061C103.405 147.341 103.081 146.582 102.742 145.833Z" fill="black"/>
<path d="M50.928 148.522C49.1228 148.538 41.6866 148.946 40.463 148.266L40.437 148.053C40.7249 147.728 40.7622 147.734 41.1906 147.638C42.7946 147.641 50.8652 147.29 51.6532 147.932L51.6434 148.082C51.3728 148.423 51.3529 148.416 50.928 148.522Z" fill="black"/>
<path d="M138.996 149.869C141.379 150.065 142.847 149.659 144.739 148.135C144.59 148.993 144.481 149.859 144.16 150.672C143.048 149.851 140.544 150.463 139.139 150.189L138.996 149.869Z" fill="black"/>
<path d="M165.228 176.263C162.26 176.773 159.437 174.792 158.906 171.828C158.376 168.863 160.337 166.026 163.297 165.475C166.287 164.918 169.159 166.903 169.695 169.896C170.231 172.89 168.226 175.748 165.228 176.263Z" fill="#080717"/>
<path d="M83.5441 171.963C83.6432 171.564 83.7499 171.17 83.9187 170.793C84.3812 169.761 85.1108 169.351 86.1326 168.968C86.9238 168.918 87.5632 168.898 88.2827 169.275C89.0498 169.678 89.7589 170.223 90.0061 171.08C89.9404 171.407 89.9084 171.57 89.6251 171.793C89.2305 172.103 88.2627 171.985 87.7742 171.976L83.5441 171.963Z" fill="#080717"/>
<path d="M141.311 175.315C140.573 175.413 139.818 175.405 139.12 175.119C138.311 174.786 137.65 174.149 137.338 173.327C137.027 172.512 137.069 171.604 137.453 170.82C137.949 169.805 138.726 169.365 139.744 168.981C140.435 168.934 141.123 168.901 141.78 169.163C142.675 169.513 143.383 170.222 143.734 171.117C144.036 171.913 144.019 172.812 143.636 173.578C143.141 174.571 142.327 174.99 141.311 175.315Z" fill="#080717"/>
<path d="M143.667 178.319C143.643 178.254 143.621 178.189 143.594 178.126C143.117 177.043 139.81 178.265 138.695 177.732C138.479 177.629 138.49 177.503 138.409 177.297C140.367 177.469 141.983 177.489 143.583 176.156C143.707 176.053 143.82 175.945 143.935 175.832C143.929 176.7 143.949 177.483 143.667 178.319Z" fill="black"/>
<path d="M28.9224 209.898C22.7583 210.371 17.3739 205.767 16.8832 199.604C16.3926 193.442 20.9809 188.044 27.1421 187.535C33.3287 187.025 38.7535 191.636 39.2461 197.824C39.7387 204.012 35.1119 209.424 28.9224 209.898ZM26.9692 193.741C24.1951 194.331 22.4201 197.053 22.9994 199.829C23.5788 202.605 26.2942 204.39 29.0724 203.82C31.8649 203.248 33.6608 200.516 33.0784 197.725C32.4962 194.935 29.7573 193.149 26.9692 193.741Z" fill="#6556FE"/>
<path d="M264.028 220.37L264.034 188.355L277.812 188.383L277.725 220.236C276.241 220.561 274.421 220.375 272.893 220.374L264.028 220.37Z" fill="#6556FE"/>
<path d="M151.98 198.484C152.707 196.44 153.673 194.439 154.531 192.444C155.254 192.953 156.818 197.252 157.289 198.426L154.854 198.494L151.98 198.484Z" fill="#080717"/>
<path d="M29.0723 203.82C26.2941 204.39 23.5787 202.605 22.9993 199.829C22.42 197.053 24.1951 194.331 26.9691 193.741C29.7573 193.149 32.4961 194.935 33.0783 197.726C33.6608 200.516 31.8648 203.248 29.0723 203.82ZM27.3412 194.573C25.0335 194.943 23.4576 197.107 23.8141 199.417C24.1705 201.727 26.3255 203.315 28.6374 202.972C30.9681 202.626 32.5724 200.449 32.2131 198.121C31.8538 195.792 29.6679 194.2 27.3412 194.573Z" fill="black"/>
<path d="M133.152 201.413C131.381 201.913 129.537 200.895 129.015 199.13C128.494 197.365 129.488 195.509 131.247 194.965C132.404 194.607 133.664 194.9 134.545 195.73C135.427 196.561 135.793 197.802 135.505 198.978C135.217 200.154 134.318 201.085 133.152 201.413Z" fill="#080717"/>
<path d="M185.686 202.129C185.144 202.204 184.62 202.256 184.08 202.13C183.35 201.959 182.769 201.548 182.379 200.915C182.348 200.658 182.278 200.489 182.396 200.246C182.676 199.666 183.256 199.513 183.822 199.328C184.816 199.296 186.536 199.026 187.366 199.573C187.499 199.919 187.542 199.991 187.396 200.359C187.035 201.272 186.549 201.726 185.686 202.129Z" fill="#080717"/>
<path d="M21.3407 208.893C23.3962 210.032 25.3128 210.697 27.6856 210.766L27.6923 220.635C26.4977 219.792 24.2682 215.231 23.6406 213.673C23.1909 212.556 22.9196 211.146 22.1067 210.235C21.6954 209.774 21.498 209.5 21.3407 208.893Z" fill="#F8F7FE"/>
</g>
<defs>
<clipPath id="clip0_3_697">
<rect width="296" height="296" fill="white" transform="translate(0.666626)"/>
</clipPath>
</defs>
</svg>
