<svg width="296" height="245" viewBox="0 0 296 245" fill="none" xmlns="http://www.w3.org/2000/svg">
<g clip-path="url(#clip0_3_1021)">
<path d="M49.0539 55.0469C49.2577 54.9908 49.6072 54.9463 49.7823 54.8465C50.4891 54.4445 54.0021 50.5005 54.9632 49.5844C57.8784 46.8063 61.0081 44.1258 64.1863 41.6526C70.9327 36.4026 78.4755 31.5336 86.1247 27.688C119.402 10.8726 158.107 8.39387 193.257 20.827C198.791 22.7769 204.184 25.1038 209.399 27.7913C210.973 28.611 212.531 29.4634 214.07 30.3479C215.51 31.1871 217.113 32.4118 218.695 32.909C218.734 32.9214 218.775 32.9321 218.815 32.9437C218.783 43.0889 223.248 52.5205 230.355 59.6652C231.118 60.4324 232.052 61.1776 232.74 61.9953C234.83 63.7251 237.494 66.4163 240.159 67.1051C241.437 70.7814 242.671 74.3302 243.335 78.1846C242.267 77.2012 240.853 76.2204 240.007 75.0468C239.169 73.883 238.851 72.2177 238.339 70.891C237.128 67.754 234.687 64.7143 232.278 62.3919C228.26 58.798 223.378 56.1736 218.018 55.3281C213.088 54.5505 206.907 55.0044 201.815 55.0081L172.578 55.0009L65.1923 55.0269C66.2858 53.9782 70.4671 50.9939 70.674 49.6911L70.5072 49.4841C70.3772 49.4535 70.3344 49.4373 70.1896 49.4344C69.2504 49.4142 64.3149 54.0886 63.2896 55.0555L49.0539 55.0469ZM138.631 22.8961C136.473 23.0582 127.15 23.5922 125.912 24.4871L125.751 24.7598C125.861 25.1013 125.91 25.1966 126.273 25.3478C126.721 25.5347 127.342 25.3544 127.798 25.2729C129.577 25.0028 140.098 24.091 140.806 23.7381L140.917 23.5075C140.691 23.2347 140.273 22.9298 139.92 22.8551C139.529 22.7725 139.028 22.8607 138.631 22.8961ZM117.152 26.329C114.968 26.8359 102.276 30.3988 101.146 31.7111L101.096 32.0011C101.304 32.2971 101.351 32.35 101.675 32.5052L102.286 32.3424C105.379 31.0795 108.645 29.9218 111.857 29.0009C113.639 28.4896 115.508 28.166 117.261 27.5709C117.691 27.4249 118.033 27.2853 118.385 26.9956L118.467 26.7495C118.244 26.4526 118.19 26.3236 117.794 26.27C117.603 26.2442 117.345 26.3024 117.152 26.329ZM92.7945 35.0906C90.6433 36.1881 79.6081 41.6887 78.8374 43.223C78.8984 43.641 78.9742 43.6572 79.2838 43.9561L79.6003 43.9636C82.4042 42.1472 85.2815 40.4463 88.2245 38.8648C89.8848 37.9722 91.7348 37.2027 93.3149 36.1907C93.6221 35.9939 93.6545 35.9762 93.7343 35.6369C93.558 35.3374 93.4585 35.1961 93.0865 35.1111C92.9914 35.0891 92.892 35.0972 92.7945 35.0906Z" fill="#F8F7FE"/>
<path d="M218.815 32.9436C219.18 27.8537 220.021 23.0182 221.742 18.2056C222.113 17.1704 222.465 16.0078 223.109 15.1138C224.537 15.7115 225.904 16.532 227.231 17.3249C234.335 21.5674 240.463 27.7367 243.654 35.4564C245.862 40.8682 246.65 46.7541 245.945 52.5561C245.279 57.6538 243.612 62.506 241.225 67.0463C242.141 69.6025 243.087 72.1413 243.698 74.7923C246.039 84.9456 245.358 96.1138 245.537 106.496C246.781 103.962 248.035 101.469 249.616 99.1221C250.665 97.5643 251.917 96.1228 252.929 94.5512C250.673 86.8439 252.811 77.3574 256.597 70.43C257.337 69.0989 258.113 67.7886 258.925 66.4999C265.305 57.6986 271.096 54.7467 281.153 51.5493C283.086 50.9348 285.303 49.941 287.289 49.6488C287.514 49.6155 287.699 49.6329 287.918 49.6869C289.187 51.5869 288.106 62.4141 287.55 65.196C285.563 75.3583 279.605 84.3082 270.997 90.0629C270.667 90.2794 270.335 90.4918 270.001 90.7005C264.84 93.6201 259.748 95.3692 253.769 95.2964C250.838 98.9429 246.657 104.859 245.672 109.455C245.394 110.755 245.573 112.441 245.573 113.777L245.575 122.813C245.568 134.29 245.298 145.831 245.603 157.299C246.577 155.567 247.575 153.766 248.364 151.943C247.207 145.364 249.358 138.436 253.132 133.027C257.054 127.406 262.68 123.524 269.168 121.422C270.235 121.076 271.333 120.674 272.437 120.471C272.801 120.404 273.109 120.393 273.474 120.439C274.03 120.902 274.062 121.782 274.124 122.474C274.814 130.14 272.865 137.898 267.841 143.846C263.71 148.736 257.008 152.176 250.618 152.641C250.18 152.67 249.741 152.689 249.302 152.698C248.271 154.614 246.192 157.79 245.793 159.834C245.388 161.907 245.615 164.288 245.609 166.407L245.577 179.181L245.516 204.065C245.503 208.921 245.391 213.803 245.546 218.655C247.045 217.079 248.539 215.61 250.254 214.261C251.731 208.224 256.474 203.009 261.697 199.851C266.243 197.102 270.961 196.035 276.226 195.956C280.24 196.249 284.07 197.1 287.739 198.781C285.654 205.6 279.618 211.928 273.418 215.236C269.952 217.084 266.591 217.94 262.695 218.208C258.427 218.016 254.412 217.258 250.68 215.063C248.765 216.843 247.01 218.617 245.558 220.808L245.529 240.05C245.524 242.481 245.853 253.872 245.218 255.179L245.012 255.316C244.805 255.229 244.676 255.244 244.596 255.014C244.152 253.747 244.463 245.265 244.465 243.218L244.441 208.105C244.454 202.118 244.626 196.087 244.444 190.105C242.95 188.114 242.009 185.762 240.389 183.847L240.414 219.674L240.48 231.587C240.485 234.561 240.616 237.603 240.135 240.548C239.552 244.114 238.067 247.603 236.152 250.652C232.344 256.588 226.428 260.862 219.596 262.613C213.361 263.609 206.87 263.135 200.568 263.127L172.465 263.154L92.1841 263.158L61.8123 263.084C57.2301 263.085 52.6013 262.953 48.0237 263.1C40.3537 263.053 33.6489 260.948 28.0201 255.548C24.1344 251.793 21.4279 246.987 20.2317 241.717C19.0952 236.873 19.4993 231.724 19.5056 226.779C19.5144 219.87 19.6092 212.946 19.4862 206.039C19.6086 202.365 19.5083 198.659 19.5081 194.982L19.5145 172.989C19.5542 157.589 19.8707 142.147 19.6414 126.752C19.3762 126.418 19.0463 126.435 18.6415 126.339C18.3865 126.055 18.4235 126.031 18.4196 125.643C18.7676 125.155 19.1439 125.192 19.6164 124.859C19.7864 122.788 19.6698 120.62 19.6726 118.538L19.6642 106.616C19.9329 100.852 19.7026 94.9827 19.6928 89.2096C19.6878 86.2218 19.5616 83.1728 19.8615 80.1975C20.5295 74.0144 23.2208 68.2251 27.5173 63.7287C33.616 57.4416 40.4763 55.1589 49.0539 55.0467L63.2897 55.0554C64.315 54.0885 69.2504 49.414 70.1896 49.4343C70.3344 49.4372 70.3772 49.4534 70.5073 49.484L70.6741 49.691C70.4671 50.9938 66.2858 53.9781 65.1923 55.0268L172.578 55.0008L201.815 55.008C206.907 55.0042 213.089 54.5504 218.018 55.328C223.378 56.1735 228.26 58.7979 232.278 62.3918C234.687 64.7141 237.128 67.7539 238.339 70.8908C238.851 72.2176 239.169 73.8829 240.007 75.0467C240.853 76.2203 242.267 77.201 243.335 78.1844C242.671 74.3301 241.437 70.7813 240.159 67.105C237.494 66.4161 234.83 63.7249 232.74 61.9952C232.052 61.1774 231.118 60.4322 230.355 59.6651C223.248 52.5203 218.783 43.0888 218.815 32.9436ZM223.545 16.5839C219.634 26.5507 218.339 36.5852 222.703 46.6827C225.621 53.4346 232.568 61.7183 239.005 65.3353C236.732 61.2046 228.639 45.4328 229.771 41.0399C229.814 40.8757 229.86 40.7453 229.98 40.6231C230.33 40.8373 230.481 41.1943 230.592 41.577C230.712 41.9938 230.756 42.4624 230.818 42.8919C232.165 49.7592 236.889 60.0868 240.616 65.9383C245.103 57.3251 246.439 47.577 243.51 38.2345C240.541 28.7662 232.918 21.358 224.24 16.9008C224.011 16.7835 223.783 16.6812 223.545 16.5839ZM286.943 50.8929C273.365 55.1652 264.539 57.4798 257.414 71.1848C254.055 77.6442 252.124 85.9842 253.684 93.2056C256.367 85.8446 259.364 79.4473 264.942 73.7757C265.516 73.192 266.379 72.0124 267.145 71.725C267.347 71.6493 267.559 71.597 267.746 71.7141C267.933 71.8308 268.033 71.9603 268.167 72.1303C260.897 79.1135 257.847 84.9997 254.418 94.2667C262.552 94.2552 270.281 90.3433 275.958 84.6589C284.321 76.2862 287.43 66.1057 287.376 54.4744C287.371 53.3545 287.434 52.0737 287.098 50.9969L286.943 50.8929ZM35.2671 68.9492C34.719 69.4076 34.4843 69.7005 34.4222 70.4243C34.219 72.7879 34.2164 96.585 34.6341 97.8251C34.9431 98.1691 35.2602 98.3107 35.7195 98.3422C36.1302 98.3702 36.6861 98.2931 36.9853 97.9858C37.2856 97.6776 37.3975 97.1354 37.4455 96.7252C37.5701 95.6614 37.4469 94.5419 37.4489 93.4677C37.4541 90.7407 37.4325 88.0048 37.4877 85.2783L55.0546 85.2607L55.0309 92.9943C55.0268 94.337 54.8965 95.8282 55.1063 97.1501C55.1618 97.4993 55.2425 97.8479 55.5206 98.0945C55.8718 98.4055 56.4609 98.4541 56.9014 98.3465C57.0656 98.3064 57.1945 98.239 57.3442 98.1691C57.5839 97.7545 57.7434 97.3903 57.7909 96.9093C57.9917 94.8714 57.8912 92.7431 57.9036 90.6922L57.9293 79.2438C57.9256 77.3074 58.1681 71.4814 57.7692 69.9436C57.6642 69.5397 57.3078 69.2067 56.93 69.0538C56.4953 68.8781 55.9793 68.8945 55.5813 69.155C55.1702 69.4238 55.0572 69.8961 55.0069 70.3523C54.8716 71.5851 55.0098 72.8937 55.013 74.1373L55.0118 82.3946L37.4825 82.4166C37.4851 80.5611 37.8395 70.1991 37.0677 69.3602C36.6347 68.8896 35.8533 68.9104 35.2671 68.9492ZM87.246 69.5102C86.661 70.0256 86.5575 70.2413 86.5046 71.0241C86.2337 75.0123 86.4554 79.1644 86.4589 83.1673C86.4627 87.5824 86.2788 92.0745 86.4569 96.4815C86.4765 96.9619 86.489 97.3923 86.7078 97.8306C87.2021 98.2986 87.71 98.2945 88.3554 98.2829C88.6899 98.0407 89.0564 97.8282 89.1472 97.3973C89.4842 95.7918 89.2325 91.0096 89.231 88.9881C89.227 83.2783 89.455 77.014 89.1599 71.3692C89.1348 70.8891 89.1689 70.2572 88.8133 69.8912C88.4023 69.468 87.786 69.5105 87.246 69.5102ZM240.031 76.4203C240.585 80.5536 240.469 84.7392 240.475 88.9014L240.367 109.003L240.365 181.719C241.832 183.722 242.993 185.953 244.474 187.932C244.657 186.281 244.545 184.553 244.543 182.89L244.54 174.42L244.529 146.467L244.445 105.109C244.424 99.6811 244.413 94.267 244.214 88.8427C244.107 85.9446 244.073 82.8363 243.527 79.9807C242.459 78.8126 241.311 77.3389 240.031 76.4203ZM71.7794 78.3897C69.1397 78.6568 66.9192 79.5742 65.2062 81.6668C63.3917 83.8836 62.7384 86.9089 63.0307 89.7206C63.3015 92.3242 64.5075 94.7876 66.5708 96.4353C68.8952 98.2913 71.8688 98.718 74.7562 98.3832C76.9436 98.1294 79.3355 97.2573 80.7413 95.4837C81.0315 95.1174 81.3792 94.5682 81.3561 94.0843C81.3393 93.7331 81.1237 93.4802 80.8482 93.2851C80.5233 93.055 80.1062 92.9763 79.7191 92.9789C78.971 93.5024 78.4071 94.2115 77.6908 94.7723C75.5933 95.9814 73.1886 96.4387 70.8163 95.7774C69.0351 95.2805 67.4609 94.1664 66.5772 92.5208C66.0563 91.551 65.891 90.5627 65.7713 89.4874C68.0303 89.5061 80.1154 89.9129 81.579 89.3203C82.0527 88.8029 82.0776 88.2429 82.0423 87.5665C81.9091 84.9945 80.832 82.1804 78.8638 80.4648C76.9516 78.7975 74.2715 78.1743 71.7794 78.3897ZM105.016 78.3859C102.101 78.7007 100.319 79.9954 98.4992 82.2116C98.4096 82.3206 98.3238 82.4331 98.2376 82.5446C98.2882 81.4196 98.5232 80.057 97.6809 79.1461C97.4708 78.9187 97.186 78.7692 96.875 78.7475C96.5145 78.7224 96.1954 78.9059 95.9462 79.1519C95.58 79.5135 95.5647 80.0599 95.5309 80.5438C95.2155 85.0656 95.5089 90.4713 95.5115 95.0845C95.5129 97.7953 95.1701 100.771 95.4566 103.448C95.5051 103.901 95.5413 104.441 95.9442 104.73C96.3266 105.005 97.051 105.065 97.4817 104.899C97.7801 104.784 97.972 104.363 98.0587 104.075C98.6004 102.279 98.2553 98.903 98.253 96.9108L98.2654 93.9976C99.3997 95.9392 100.768 97.3166 103.016 97.9034C105.43 98.5336 108.274 98.2766 110.446 97.0172C112.638 95.7461 114.066 93.4874 114.675 91.0651C115.4 88.1843 114.987 84.8797 113.443 82.3264C112.289 80.418 110.438 79.1464 108.286 78.6319C107.224 78.3781 106.104 78.3241 105.016 78.3859ZM134.849 78.5394C132.23 78.7186 130.036 79.4286 128.296 81.4789C126.786 83.2572 126.215 85.57 126.438 87.8608C126.638 89.9143 127.574 91.7678 129.193 93.0654C131.169 94.6483 133.624 95.0772 136.085 94.7703C138.148 94.513 139.873 93.6157 141.177 91.9785C141.339 91.7724 141.491 91.5591 141.634 91.3391C141.65 93.3877 141.848 95.9621 140.265 97.5268C138.941 98.8356 136.883 99.1446 135.092 99.0816C133.643 99.0305 132.26 98.7226 130.99 97.9997C130.273 97.5759 129.396 96.994 128.521 97.2328C128.196 97.3212 128.181 97.4846 128.071 97.7638C128.179 98.5599 128.567 99.0527 129.203 99.5349C131.525 101.295 135.143 101.499 137.91 101.049C139.848 100.734 141.807 99.9852 142.995 98.3356C143.631 97.4522 143.975 96.4139 144.152 95.3487C144.632 92.4641 144.349 89.3902 144.383 86.4756C144.406 84.4452 144.783 82.0232 144.383 80.0602C144.295 79.6251 144.134 79.2051 143.766 78.9371C143.561 78.7886 143.371 78.7897 143.124 78.8241C142.708 78.8825 142.12 79.3751 141.943 79.7439C141.671 80.3105 141.753 81.1696 141.761 81.7809C139.894 79.7569 138.197 78.6692 135.354 78.5411C135.185 78.5333 135.019 78.5354 134.849 78.5394ZM158.522 78.6695C155.763 79.223 154.374 80.7186 152.848 82.9398C152.837 81.9483 153.123 79.9561 152.322 79.2464C152.041 78.9973 151.561 78.8689 151.185 78.9175C150.802 78.9666 150.516 79.1242 150.308 79.4583C150.084 79.8185 150.093 80.3495 150.072 80.7632C149.973 82.6892 149.89 96.894 150.218 97.7791C150.317 98.0491 150.533 98.2601 150.805 98.3526C151.097 98.4526 151.411 98.4896 151.717 98.5194C152.328 98.0945 152.516 97.7372 152.635 97.0064C153.382 92.3991 151.288 85.9059 155.661 82.5551C156.74 81.7237 158.111 81.3667 159.458 81.5653C160.477 81.7052 161.713 82.3576 162.654 81.8032C162.855 81.2916 162.895 80.7328 162.66 80.2223C162.36 79.5693 161.693 79.1979 161.041 78.9756C160.216 78.6941 159.387 78.6377 158.522 78.6695ZM171.379 79.1065C166.03 79.8806 162.309 84.8294 163.052 90.1837C163.795 95.5377 168.721 99.2871 174.08 98.5758C179.483 97.8589 183.271 92.8815 182.522 87.4827C181.773 82.0842 176.774 78.3258 171.379 79.1065ZM184.705 78.9097C184.33 79.304 184.063 79.5751 184.069 80.1587C184.074 80.6848 184.222 81.247 184.385 81.7457C184.975 83.5552 185.765 85.3038 186.385 87.1052C187.507 90.3673 188.494 93.845 189.895 96.9929C190.148 97.56 190.462 98.1474 190.937 98.5619C191.265 98.8486 191.683 99.0409 192.128 98.9463C192.759 98.8122 193.203 98.1893 193.487 97.6563C194.199 96.3217 194.609 94.6963 195.098 93.2663C196.232 89.9458 197.29 86.525 198.543 83.2505C199.562 86.401 200.597 89.5463 201.649 92.6864C202.199 94.3297 202.666 96.1812 203.464 97.7112C203.704 98.1714 204.078 98.7605 204.57 98.9888C204.952 99.1663 205.231 99.1738 205.623 99.0177C206.181 98.7955 206.613 98.0959 206.869 97.5875C207.622 96.0916 208.107 94.3289 208.686 92.7526L212.165 83.2627C212.484 82.3978 213.239 80.9062 212.922 79.9795C212.811 79.6555 212.542 79.3728 212.224 79.2462C211.857 79.0999 211.474 79.1248 211.122 79.2967C210.755 79.4757 210.54 79.8174 210.355 80.1665C209.627 81.5448 209.197 83.1809 208.692 84.6536C207.513 88.0949 206.442 91.6623 205.057 95.027C204.059 91.7796 203.038 88.5392 201.995 85.3058C201.494 83.7417 201.088 82.0015 200.406 80.5143C200.217 80.1003 199.99 79.5858 199.577 79.3488C199.111 79.0811 198.591 79.0094 198.074 79.1638C197.552 79.3196 197.289 79.6419 197.058 80.1142C196.309 81.648 195.852 83.3968 195.284 85.0104C194.145 88.2051 192.988 91.3931 191.813 94.5743C190.65 91.2211 189.383 87.8984 188.241 84.5403C187.723 83.0147 187.392 81.3089 186.701 79.8619C186.527 79.4965 186.256 79.1487 185.865 78.9987C185.515 78.8643 185.074 78.9025 184.705 78.9097ZM212.933 112.853C212.551 113.042 212.083 113.212 211.903 113.624C211.45 114.654 211.722 123.464 211.674 125.319C210.438 123.442 209.018 122.224 206.767 121.748C204.365 121.241 201.72 121.805 199.686 123.165C197.406 124.689 195.946 127.143 195.423 129.811C194.84 132.779 195.36 135.957 197.095 138.462C197.572 139.15 198.155 139.726 198.77 140.29C201.04 141.893 203.48 142.619 206.266 142.124C208.738 141.684 210.37 140.366 211.894 138.482C211.861 139.358 211.605 140.835 212.275 141.532C212.527 141.795 212.893 141.966 213.258 141.956C213.768 141.942 214.162 141.685 214.447 141.275C214.702 140.906 214.69 140.319 214.708 139.886C214.937 134.444 214.742 128.925 214.744 123.476C214.744 121.646 215.027 115.223 214.62 113.879C214.481 113.421 213.964 113.078 213.526 112.946C213.335 112.888 213.13 112.873 212.933 112.853ZM218.918 113.207C218.387 113.66 218.14 113.856 218.087 114.588C217.852 117.831 218.016 121.209 218.028 124.462C218.037 126.955 217.827 129.702 218.186 132.168C218.22 132.4 218.306 132.57 218.465 132.746C218.952 133.281 219.644 133.317 220.318 133.282C220.427 133.276 220.536 133.269 220.645 133.26C221.167 132.867 221.467 132.51 221.54 131.844C221.786 129.593 221.591 127.103 221.593 124.83C221.597 121.598 221.775 118.251 221.536 115.03C221.502 114.571 221.495 113.922 221.184 113.571C220.842 113.186 220.371 113.109 219.881 113.112C219.558 113.114 219.236 113.161 218.918 113.207ZM133.789 113.296C133.386 113.563 132.984 113.792 132.88 114.306C132.566 115.857 132.827 119.877 132.826 121.684C132.824 127.555 132.639 133.49 132.839 139.352C132.857 139.892 132.831 140.788 133.136 141.239C133.372 141.588 133.56 141.717 133.958 141.829C134.493 141.771 134.849 141.565 135.174 141.137C135.921 140.154 135.645 138.855 135.61 137.707C135.458 132.741 134.478 125.392 141.11 124.334C142.501 124.111 144.014 124.292 145.179 125.136C146.234 125.901 146.82 127.07 147.002 128.342C147.077 128.861 147.096 129.392 147.121 129.915C147.128 131.479 146.744 140.462 147.431 141.235C147.716 141.555 148.173 141.634 148.579 141.59C149.019 141.546 149.423 141.327 149.698 140.982C150.337 140.177 149.948 128.425 149.632 126.774C149.311 125.1 148.446 123.468 147.009 122.497C145.388 121.402 143.08 121.25 141.198 121.652C138.824 122.16 136.967 123.561 135.606 125.545C135.74 123.873 136.035 114.814 135.311 113.843C134.996 113.42 134.529 113.328 134.031 113.304C133.951 113.301 133.87 113.299 133.789 113.296ZM272.645 121.424C264.477 123.633 257.173 127.886 252.896 135.405C250.421 139.756 248.507 145.303 249.235 150.362C252.072 145.594 254.682 140.829 258.624 136.847C259.338 136.126 260.141 135.249 261.078 134.83L261.331 134.893C261.461 135.235 261.57 135.332 261.474 135.696L261.378 135.75C256.515 139.548 252.638 146.26 249.764 151.625C256.296 151.265 262.415 148.322 266.773 143.444C271.693 137.904 273.598 130.493 273.125 123.211C273.09 122.659 273.099 122.063 272.891 121.544L272.645 121.424ZM162.144 121.611C159.434 121.855 157.056 122.711 155.253 124.839C153.303 127.14 152.629 130.358 152.918 133.309C153.176 135.95 154.324 138.415 156.39 140.12C158.335 141.726 160.544 142.196 163.011 142.105C165.611 141.867 167.854 140.961 169.568 138.919C171.502 136.615 172.169 133.583 171.884 130.63C171.63 127.997 170.478 125.337 168.431 123.61C166.687 122.14 164.389 121.562 162.144 121.611ZM182.351 121.594C179.584 122.047 177.352 123.109 175.669 125.421C173.834 127.943 173.272 131.027 173.796 134.077C174.242 136.676 175.569 139.02 177.756 140.537C179.747 141.918 182.226 142.319 184.603 142.084C187.155 141.701 189.346 140.512 190.898 138.419C192.694 135.997 193.285 132.757 192.816 129.811C192.404 127.218 191.091 124.761 188.933 123.209C186.97 121.796 184.717 121.397 182.351 121.594ZM115.271 122.889C111.786 123.436 110.821 125.478 108.536 127.733C108.545 126.639 108.84 124.349 108.033 123.5C107.778 123.231 107.394 123.16 107.038 123.188C106.598 123.223 106.31 123.359 105.971 123.643C105.756 124.04 105.721 124.426 105.691 124.871C105.48 128.029 105.631 131.305 105.614 134.476C105.599 137.049 105.321 139.961 105.695 142.498C106.13 142.908 106.555 143.226 107.184 143.189C107.474 143.173 107.752 142.996 107.923 142.762C109.938 140.015 106.138 132.38 111.131 127.673C112.256 126.6 113.663 125.87 115.187 125.566C116.301 125.342 117.807 125.723 118.665 124.879C118.815 124.549 118.907 124.301 118.789 123.938C118.648 123.508 118.352 123.21 117.933 123.051C117.11 122.738 116.134 122.824 115.271 122.889ZM36.9772 123.005C36.5745 123.342 36.3733 123.457 36.1788 123.953C36.4037 125.649 37.5365 127.526 38.2655 129.067L41.93 136.781C42.7897 138.587 43.7626 140.405 44.3703 142.314C43.8092 143.704 43.2227 145.343 41.7187 145.962C40.3679 146.517 38.9813 146.003 37.7316 145.442C37.3047 145.833 36.7841 146.197 36.7763 146.832C36.7708 147.264 37.007 147.634 37.3417 147.891C38.3942 148.697 40.3685 148.887 41.6383 148.68C43.2634 148.415 44.4789 147.469 45.3794 146.136C47.3649 143.197 48.6331 139.613 50.2856 136.462C51.6012 133.765 52.8967 131.058 54.1718 128.341C54.7184 127.186 55.459 125.944 55.8504 124.735C55.9628 124.388 55.9296 124.122 55.8567 123.78C55.5729 123.398 55.4252 123.176 54.9118 123.118C54.5155 123.073 54.2415 123.147 53.8761 123.29C52.8976 124.189 47.1166 137.035 46.1437 139.169C45.2531 137.619 44.557 135.936 43.8077 134.312L40.589 127.421C40.0181 126.199 39.5368 124.832 38.8023 123.704C38.6144 123.416 38.4216 123.166 38.0765 123.056C37.7366 122.947 37.3293 122.99 36.9772 123.005ZM66.585 123.027C61.0289 123.951 57.2798 129.211 58.2192 134.765C59.1587 140.318 64.43 144.052 69.9806 143.097C75.5089 142.146 79.2248 136.9 78.2891 131.369C77.3534 125.838 72.1185 122.107 66.585 123.027ZM83.187 123.127C82.5447 123.673 82.4077 123.909 82.3458 124.768C82.2267 126.427 82.36 128.153 82.3597 129.818C82.3591 133.571 81.9065 138.071 84.6676 141.072C86.0123 142.534 87.8935 143.158 89.8395 143.2C92.0832 143.249 94.1012 142.543 95.73 140.963C96.4992 140.218 97.147 139.343 97.7728 138.477C97.7483 139.524 97.393 141.844 98.1203 142.665C98.3671 142.944 98.7981 143.067 99.1649 143.014C99.578 142.954 99.8388 142.793 100.093 142.466C100.9 141.424 100.534 133.144 100.563 131.367C100.578 129.905 101.015 124.643 100.047 123.648C99.6861 123.277 99.2664 123.138 98.7559 123.204C98.414 123.248 98.2316 123.462 98.0792 123.753C97.5927 124.683 97.6997 126.027 97.6968 127.048C97.6838 131.659 98.2579 138.014 92.9865 140.074C91.5664 140.629 89.9453 140.723 88.5329 140.093C87.2408 139.517 86.2332 138.357 85.7496 137.039C84.406 133.379 85.7377 128.597 85.1593 124.894C85.0705 124.327 84.9127 123.627 84.386 123.301C84.0409 123.087 83.5767 123.135 83.187 123.127ZM219.007 138.076C217.97 138.499 217.467 139.677 217.877 140.719C218.287 141.761 219.459 142.279 220.506 141.881C221.194 141.619 221.688 141.008 221.8 140.28C221.912 139.552 221.624 138.821 221.046 138.364C220.468 137.908 219.689 137.798 219.007 138.076ZM20.8352 164.115C20.729 164.284 20.6703 164.418 20.6603 164.621C20.4933 167.974 20.6489 171.416 20.6508 174.776L20.6273 194.595L20.6206 224.386C20.6336 228.315 20.4985 232.264 20.6146 236.189C20.666 237.927 20.8398 239.625 21.2271 241.321C22.8069 248.301 27.0867 254.371 33.1304 258.203C36.6057 260.357 40.5468 261.646 44.6235 261.962C48.6264 262.268 52.7701 262.056 56.7869 262.048L78.3449 262.039L147.743 262.058L195.372 262.038L207.517 262.065C211.469 262.079 215.599 262.381 219.472 261.476C224.146 260.385 228.414 257.818 231.765 254.408C235.278 250.681 237.893 246.274 238.931 241.213C239.669 237.614 239.423 233.79 239.41 230.134L239.372 216.245C239.562 198.868 239.576 181.489 239.415 164.111L103.754 164.076L48.2128 164.046C39.1061 164.051 29.9322 163.805 20.8352 164.115ZM274.188 197.056C267.186 197.596 260.579 200.648 255.957 206.025C253.986 208.318 252.391 210.802 251.49 213.697C255.582 211.516 259.926 209.845 264.425 208.723L264.782 208.843C264.941 209.174 264.945 209.167 264.852 209.521C263.709 210.318 261.332 210.742 259.918 211.247C258 211.938 256.102 212.682 254.225 213.477C253.465 213.849 252.714 214.208 252.01 214.681C257.549 217.248 263.37 218.122 269.201 216.007C277.523 212.99 282.686 207.091 286.467 199.331C282.633 197.865 278.318 196.758 274.188 197.056Z" fill="#1C1741"/>
<path d="M127.798 25.2728C127.342 25.3544 126.721 25.5346 126.273 25.3477C125.91 25.1966 125.861 25.1013 125.751 24.7597L125.912 24.487C127.15 23.5922 136.473 23.0582 138.631 22.896C139.028 22.8606 139.529 22.7725 139.92 22.8551C140.273 22.9297 140.691 23.2346 140.917 23.5075L140.806 23.738C140.098 24.0909 129.577 25.0028 127.798 25.2728Z" fill="#1C1741"/>
<path d="M102.286 32.3423L101.675 32.505C101.351 32.3498 101.304 32.2969 101.096 32.0009L101.146 31.711C102.276 30.3986 114.968 26.8358 117.152 26.3289C117.345 26.3022 117.603 26.244 117.794 26.2699C118.19 26.3235 118.244 26.4524 118.467 26.7494L118.385 26.9955C118.033 27.2852 117.692 27.4247 117.261 27.5708C115.508 28.1659 113.639 28.4894 111.857 29.0007C108.645 29.9217 105.379 31.0794 102.286 32.3423Z" fill="#1C1741"/>
<path d="M79.6003 43.9636L79.2838 43.9561C78.9742 43.6572 78.8985 43.641 78.8375 43.2231C79.6081 41.6887 90.6434 36.1881 92.7946 35.0906C92.892 35.0972 92.9914 35.0891 93.0865 35.1111C93.4585 35.1961 93.558 35.3374 93.7343 35.6369C93.6545 35.9763 93.6221 35.9939 93.3149 36.1907C91.7349 37.2028 89.8849 37.9722 88.2245 38.8649C85.2815 40.4463 82.4042 42.1472 79.6003 43.9636Z" fill="#1C1741"/>
<path d="M241.225 67.0463C243.612 62.506 245.279 57.6538 245.945 52.5562C245.966 52.749 245.958 53.2508 246.038 53.4017C246.399 54.0899 249.738 57.0181 250.536 57.7945C252.469 59.6882 254.354 61.6295 256.191 63.6166C257.031 64.5106 257.849 65.5498 258.75 66.3681C258.804 66.417 258.866 66.456 258.925 66.5C258.113 67.7886 257.337 69.0989 256.597 70.43C252.811 77.3574 250.673 86.8439 252.929 94.5512C251.917 96.1228 250.665 97.5643 249.616 99.1221C248.035 101.469 246.781 103.962 245.537 106.496C245.358 96.1138 246.039 84.9456 243.698 74.7923C243.087 72.1413 242.141 69.6025 241.225 67.0463Z" fill="#F8F7FE"/>
<path d="M240.365 181.719L240.367 109.003L240.475 88.9016C240.469 84.7393 240.585 80.5537 240.031 76.4204C241.311 77.3391 242.459 78.8127 243.526 79.9808C244.073 82.8364 244.107 85.9447 244.214 88.8429C244.413 94.2671 244.424 99.6813 244.445 105.109L244.529 146.467L244.54 174.42L244.543 182.89C244.545 184.553 244.657 186.282 244.474 187.932C242.993 185.953 241.832 183.722 240.365 181.719Z" fill="#F8F7FE"/>
<path d="M65.6553 87.2821C65.871 85.9513 66.2326 84.632 67.0154 83.5139C68.2364 81.7694 70.0716 81.1566 72.0766 80.8349C73.8705 80.688 75.8402 81.2951 77.2066 82.4675C78.1 83.2344 79.5289 85.2038 79.4503 86.4505C79.4254 86.8448 79.3413 86.9124 79.084 87.1815C77.4031 87.5955 75.1007 87.2986 73.3496 87.2815L65.6553 87.2821Z" fill="#1C1741"/>
<path d="M106.283 95.6677C102.271 96.2389 98.5599 93.4405 98.0052 89.4268C97.4508 85.4129 100.264 81.7129 104.28 81.175C108.273 80.6402 111.947 83.434 112.498 87.4245C113.049 91.4147 110.271 95.1 106.283 95.6677Z" fill="#1C1741"/>
<path d="M137.151 92.2806C135.366 92.5896 133.532 92.7162 131.895 91.7779C130.638 91.0572 129.798 89.838 129.44 88.4458C129.023 86.8196 129.246 85.0126 130.146 83.5835C131.026 82.1865 132.256 81.4927 133.813 81.1065C135.157 80.9805 136.469 80.9915 137.747 81.4884C139.333 82.1021 140.607 83.326 141.284 84.886C141.834 86.1724 141.838 87.5347 141.261 88.8127C140.442 90.626 138.95 91.6134 137.151 92.2806Z" fill="#1C1741"/>
<path d="M174.175 96.0788C172.453 96.2707 170.869 96.271 169.306 95.3796C167.698 94.4627 166.647 92.8231 166.222 91.0471C165.701 88.871 166.071 86.2313 167.282 84.3446C168.316 82.7345 169.758 81.9515 171.575 81.5445C173.065 81.4051 174.501 81.508 175.86 82.1966C177.5 83.0276 178.699 84.5585 179.216 86.3137C179.84 88.4366 179.543 91.0439 178.433 92.9616C177.451 94.6589 176.037 95.5987 174.175 96.0788Z" fill="#1C1741"/>
<path d="M253.769 95.2965C259.748 95.3693 264.84 93.6202 270.001 90.7007C271.795 94.9751 274.045 99.0459 275.7 103.384C284.364 126.107 286.712 148.744 282.413 172.731C281.609 177.214 280.592 181.729 279.351 186.111C278.7 188.41 278.016 190.722 277.277 192.994C276.995 193.859 276.268 195.084 276.226 195.956C270.961 196.035 266.243 197.102 261.697 199.851C256.474 203.009 251.731 208.225 250.254 214.261C248.539 215.61 247.045 217.079 245.546 218.655C245.391 213.803 245.503 208.921 245.516 204.065L245.577 179.181L245.609 166.407C245.615 164.288 245.388 161.907 245.793 159.835C246.192 157.79 248.271 154.614 249.302 152.698C249.741 152.689 250.18 152.67 250.618 152.641C257.008 152.176 263.71 148.737 267.841 143.846C272.865 137.898 274.814 130.14 274.124 122.474C274.062 121.782 274.03 120.902 273.474 120.439C273.109 120.393 272.801 120.404 272.437 120.471C271.333 120.674 270.235 121.077 269.168 121.422C262.68 123.524 257.054 127.406 253.132 133.028C249.358 138.436 247.207 145.364 248.364 151.943C247.575 153.766 246.577 155.567 245.603 157.299C245.298 145.831 245.568 134.29 245.575 122.813L245.573 113.777C245.573 112.441 245.394 110.755 245.672 109.455C246.657 104.859 250.838 98.943 253.769 95.2965Z" fill="#F8F7FE"/>
<path d="M19.4862 206.039C19.0915 204.504 19.3218 202.441 19.321 200.837C19.3204 197.611 19.3365 194.385 19.3695 191.16C19.3866 188.891 19.4696 186.588 19.2606 184.327L19.1638 184.708C17.1791 183.075 14.5229 167.369 14.0949 164.269C11.7966 147.622 12.5897 129.075 17.4558 112.942C17.9843 111.19 18.586 108.04 19.6642 106.616L19.6726 118.538C19.6697 120.62 19.7864 122.788 19.6164 124.859C19.1438 125.192 18.7676 125.155 18.4195 125.643C18.4235 126.031 18.3865 126.055 18.6415 126.339C19.0462 126.435 19.3762 126.418 19.6413 126.752C19.8706 142.147 19.5542 157.589 19.5145 172.989L19.5081 194.982C19.5083 198.659 19.6086 202.365 19.4862 206.039Z" fill="#F8F7FE"/>
<path d="M211.674 125.319C211.722 123.464 211.45 114.654 211.903 113.624C212.083 113.212 212.551 113.042 212.933 112.853C213.13 112.873 213.335 112.888 213.526 112.946C213.964 113.078 214.481 113.421 214.62 113.879C215.027 115.223 214.744 121.646 214.744 123.476C214.742 128.925 214.937 134.443 214.708 139.886C214.69 140.319 214.702 140.905 214.447 141.275C214.162 141.685 213.768 141.942 213.258 141.956C212.893 141.966 212.527 141.795 212.275 141.532C211.605 140.835 211.861 139.358 211.894 138.482C210.37 140.366 208.738 141.684 206.266 142.124C203.48 142.619 201.04 141.893 198.77 140.29C198.155 139.726 197.572 139.15 197.095 138.462C195.36 135.957 194.84 132.778 195.423 129.811C195.946 127.143 197.406 124.688 199.686 123.165C201.72 121.805 204.365 121.241 206.767 121.748C209.018 122.224 210.438 123.442 211.674 125.319ZM204.273 124.335C202.26 124.658 200.592 125.472 199.378 127.17C197.994 129.105 197.671 131.698 198.118 133.998C198.468 135.801 199.36 137.461 200.9 138.518C202.272 139.459 204.025 139.8 205.67 139.673C207.623 139.308 209.158 138.571 210.329 136.892C211.709 134.911 212.072 132.354 211.597 130.014C211.215 128.129 210.226 126.339 208.564 125.301C207.295 124.508 205.754 124.217 204.273 124.335Z" fill="#6556FE"/>
<path d="M147.121 129.915C147.096 129.392 147.077 128.861 147.002 128.342C146.819 127.07 146.234 125.901 145.179 125.136C144.014 124.292 142.501 124.111 141.11 124.334C134.478 125.392 135.458 132.741 135.61 137.707C135.645 138.856 135.921 140.154 135.174 141.137C134.849 141.566 134.493 141.771 133.958 141.829C133.56 141.718 133.372 141.588 133.136 141.239C132.831 140.788 132.857 139.892 132.839 139.352C132.639 133.49 132.824 127.555 132.826 121.684C132.827 119.877 132.566 115.857 132.88 114.306C132.984 113.792 133.386 113.563 133.789 113.296C133.87 113.299 133.951 113.301 134.031 113.304C134.529 113.328 134.996 113.42 135.311 113.843C136.035 114.814 135.74 123.873 135.606 125.545C136.967 123.561 138.824 122.16 141.198 121.653C143.08 121.251 145.388 121.402 147.009 122.497C148.446 123.468 149.311 125.101 149.631 126.774C149.948 128.425 150.337 140.177 149.698 140.982C149.422 141.327 149.019 141.546 148.579 141.59C148.173 141.634 147.716 141.555 147.431 141.235C146.744 140.462 147.128 131.479 147.121 129.915Z" fill="#6556FE"/>
<path d="M249.235 150.362C248.507 145.303 250.421 139.756 252.896 135.405C257.173 127.886 264.477 123.633 272.645 121.424L272.891 121.544C273.099 122.063 273.09 122.659 273.125 123.211C273.598 130.493 271.693 137.904 266.773 143.444C262.415 148.322 256.296 151.265 249.764 151.625C252.638 146.26 256.515 139.548 261.378 135.75L261.474 135.696C261.57 135.332 261.461 135.235 261.331 134.893L261.078 134.83C260.141 135.249 259.338 136.126 258.624 136.847C254.682 140.829 252.072 145.594 249.235 150.362Z" fill="#6556FE"/>
<path d="M163.011 142.106C160.544 142.197 158.335 141.726 156.39 140.12C154.324 138.415 153.176 135.951 152.917 133.309C152.629 130.358 153.303 127.14 155.253 124.839C157.056 122.711 159.434 121.855 162.144 121.611C164.389 121.562 166.687 122.14 168.431 123.61C170.478 125.337 171.63 127.998 171.884 130.63C172.168 133.583 171.502 136.615 169.567 138.919C167.854 140.961 165.611 141.867 163.011 142.106ZM161.461 124.178C159.555 124.595 158.064 125.367 156.954 127.042C155.649 129.013 155.367 131.722 155.856 134C156.255 135.856 157.266 137.59 158.9 138.61C160.351 139.515 161.939 139.664 163.6 139.448C165.561 138.926 167.111 137.97 168.131 136.152C169.278 134.107 169.364 131.221 168.692 129.001C168.17 127.28 167.085 125.802 165.481 124.951C164.205 124.274 162.885 124.099 161.461 124.178Z" fill="#6556FE"/>
<path d="M184.603 142.084C182.226 142.319 179.747 141.918 177.756 140.537C175.569 139.02 174.242 136.676 173.796 134.077C173.272 131.027 173.834 127.944 175.669 125.421C177.352 123.109 179.584 122.047 182.351 121.594C184.717 121.397 186.97 121.796 188.933 123.209C191.091 124.761 192.404 127.219 192.816 129.811C193.285 132.757 192.694 135.997 190.898 138.419C189.346 140.512 187.155 141.701 184.603 142.084ZM182.983 124.198C180.975 124.468 179.327 125.095 178.052 126.763C176.596 128.669 176.179 131.284 176.554 133.616C176.856 135.489 177.815 137.299 179.375 138.419C180.588 139.289 182.11 139.656 183.591 139.557C185.49 139.41 187.094 138.841 188.359 137.335C189.901 135.498 190.343 132.853 190.074 130.521C189.852 128.603 189.019 126.739 187.478 125.523C186.213 124.527 184.58 124.093 182.983 124.198Z" fill="#6556FE"/>
<path d="M108.536 127.733C110.821 125.478 111.786 123.436 115.271 122.889C116.134 122.824 117.11 122.738 117.933 123.051C118.352 123.21 118.648 123.508 118.789 123.938C118.907 124.302 118.815 124.549 118.665 124.879C117.807 125.723 116.301 125.342 115.187 125.566C113.663 125.87 112.256 126.6 111.131 127.673C106.138 132.38 109.938 140.015 107.923 142.763C107.752 142.996 107.474 143.173 107.184 143.189C106.555 143.226 106.13 142.908 105.695 142.498C105.321 139.962 105.599 137.049 105.614 134.476C105.631 131.306 105.48 128.029 105.691 124.872C105.721 124.426 105.756 124.041 105.971 123.643C106.31 123.359 106.598 123.223 107.038 123.188C107.394 123.16 107.778 123.231 108.033 123.5C108.84 124.349 108.545 126.639 108.536 127.733Z" fill="#6556FE"/>
<path d="M44.3702 142.314C43.7626 140.406 42.7896 138.587 41.93 136.782L38.2655 129.067C37.5365 127.526 36.4037 125.649 36.1788 123.953C36.3733 123.457 36.5745 123.342 36.9772 123.005C37.3292 122.99 37.7365 122.947 38.0765 123.056C38.4216 123.166 38.6144 123.416 38.8023 123.704C39.5368 124.832 40.0181 126.199 40.589 127.421L43.8077 134.312C44.557 135.936 45.253 137.62 46.1436 139.169C47.1166 137.035 52.8976 124.189 53.876 123.29C54.2414 123.147 54.5155 123.073 54.9118 123.118C55.4251 123.177 55.5728 123.398 55.8567 123.78C55.9295 124.122 55.9628 124.389 55.8503 124.735C55.459 125.945 54.7184 127.186 54.1718 128.341C52.8967 131.058 51.6011 133.765 50.2856 136.462C48.633 139.613 47.3649 143.197 45.3793 146.136C44.4789 147.469 43.2634 148.415 41.6383 148.68C40.3684 148.887 38.3942 148.697 37.3417 147.891C37.0069 147.634 36.7708 147.264 36.7763 146.832C36.7841 146.197 37.3047 145.834 37.7316 145.442C38.9812 146.003 40.3679 146.517 41.7187 145.962C43.2226 145.343 43.8092 143.704 44.3702 142.314Z" fill="#6556FE"/>
<path d="M69.9806 143.097C64.43 144.052 59.1587 140.318 58.2192 134.765C57.2797 129.212 61.0289 123.951 66.585 123.027C72.1185 122.107 77.3534 125.838 78.2891 131.369C79.2248 136.9 75.5089 142.146 69.9806 143.097ZM67.0035 125.792C62.9737 126.485 60.2753 130.322 60.9844 134.349C61.6934 138.375 65.54 141.059 69.5643 140.335C73.5664 139.614 76.2321 135.793 75.5271 131.788C74.8218 127.783 71.0111 125.102 67.0035 125.792Z" fill="#6556FE"/>
<path d="M97.7728 138.477C97.147 139.343 96.4992 140.218 95.73 140.963C94.1011 142.543 92.0832 143.249 89.8395 143.2C87.8935 143.158 86.0123 142.533 84.6676 141.072C81.9064 138.071 82.3591 133.571 82.3597 129.818C82.36 128.153 82.2267 126.427 82.3458 124.768C82.4077 123.909 82.5447 123.673 83.187 123.127C83.5767 123.135 84.0409 123.087 84.386 123.301C84.9127 123.627 85.0705 124.327 85.1593 124.894C85.7377 128.597 84.406 133.379 85.7495 137.039C86.2331 138.357 87.2408 139.517 88.5329 140.093C89.9453 140.723 91.5663 140.629 92.9865 140.074C98.2579 138.014 97.6838 131.659 97.6968 127.048C97.6997 126.027 97.5927 124.683 98.0792 123.753C98.2315 123.462 98.4139 123.248 98.7559 123.204C99.2664 123.138 99.6861 123.277 100.047 123.648C101.015 124.643 100.578 129.905 100.563 131.367C100.534 133.144 100.9 141.424 100.093 142.466C99.8387 142.793 99.578 142.954 99.1649 143.014C98.7981 143.067 98.3671 142.944 98.1203 142.665C97.393 141.844 97.7482 139.524 97.7728 138.477Z" fill="#6556FE"/>
<path d="M163.6 139.448C161.939 139.664 160.351 139.515 158.9 138.61C157.266 137.59 156.255 135.856 155.856 134C155.367 131.722 155.649 129.013 156.954 127.042C158.064 125.367 159.555 124.595 161.461 124.178C162.885 124.099 164.205 124.274 165.481 124.951C167.085 125.802 168.17 127.28 168.692 129.001C169.364 131.221 169.278 134.107 168.131 136.152C167.111 137.97 165.561 138.926 163.6 139.448Z" fill="#1C1741"/>
<path d="M183.591 139.556C182.11 139.656 180.588 139.289 179.375 138.419C177.815 137.299 176.856 135.489 176.554 133.616C176.179 131.284 176.596 128.669 178.052 126.763C179.327 125.095 180.975 124.467 182.983 124.198C184.58 124.093 186.213 124.526 187.478 125.523C189.019 126.739 189.852 128.602 190.074 130.52C190.343 132.853 189.901 135.498 188.359 137.335C187.094 138.841 185.49 139.41 183.591 139.556Z" fill="#1C1741"/>
<path d="M205.67 139.673C204.025 139.8 202.272 139.459 200.9 138.518C199.36 137.461 198.468 135.801 198.118 133.998C197.671 131.698 197.994 129.105 199.378 127.17C200.592 125.472 202.26 124.658 204.273 124.335C205.754 124.217 207.295 124.508 208.564 125.301C210.226 126.339 211.215 128.129 211.597 130.014C212.072 132.354 211.709 134.911 210.329 136.892C209.158 138.571 207.623 139.308 205.67 139.673Z" fill="#1C1741"/>
<path d="M69.5643 140.335C65.54 141.059 61.6935 138.375 60.9844 134.349C60.2753 130.322 62.9737 126.485 67.0035 125.792C71.0111 125.102 74.8218 127.783 75.5271 131.788C76.2322 135.793 73.5664 139.614 69.5643 140.335Z" fill="#1C1741"/>
<path d="M106.799 180.956C109.124 179.381 111.558 178.395 114.354 178.119C117.721 177.956 121.126 178.061 124.497 178.06L142.526 178.056L152.994 178.045C155.111 178.038 157.36 177.892 159.457 178.191C161.019 178.414 162.304 179.112 163.594 179.981C164.809 179.363 166.022 178.856 167.348 178.523C170.656 177.693 174.483 178.066 177.886 178.075L189.854 178.079L202.894 178.053C205.449 178.05 208.099 177.905 210.64 178.179C212.566 178.386 214.344 178.953 216 179.967C219.217 181.938 221.607 185.309 222.47 188.971C223.368 192.881 222.683 196.988 220.566 200.395C218.643 203.479 215.566 205.664 212.021 206.463C208.384 207.312 204.232 206.922 200.507 206.899L186.165 206.863L175.767 206.898C173.552 206.907 171.252 207.034 169.051 206.763C166.869 206.494 165.055 205.755 163.208 204.593C163.057 204.763 162.901 204.929 162.741 205.091C161.775 206.053 160.454 206.64 159.134 206.931C156.11 207.598 148.305 207.219 144.765 207.205L124.897 207.206C121.006 207.216 116.725 207.537 112.884 206.897C111.127 206.604 109.51 205.921 107.955 205.071C106.22 205.883 104.376 206.436 102.48 206.713C99.5046 207.149 96.3156 206.891 93.3059 206.882L77.3627 206.859L58.9922 206.87C55.4948 206.878 51.7679 207.155 48.3084 206.694C46.0141 206.372 43.8384 205.475 41.9831 204.087C38.8621 201.745 36.9211 198.394 36.3956 194.53C35.8845 190.709 36.9037 186.841 39.2313 183.768C41.4634 180.852 44.8931 178.812 48.5466 178.355C51.7393 177.955 55.1846 178.224 58.4117 178.217L78.2992 178.212L93.551 178.198C96.1306 178.196 98.9689 177.958 101.518 178.358C103.56 178.678 105.192 179.712 106.799 180.956ZM126.038 179.097L119.143 178.972C114.205 178.918 110.161 179.208 106.403 182.8C103.76 185.346 102.25 188.847 102.211 192.516C102.141 196.162 103.51 199.516 106.049 202.125C109.027 205.185 112.67 206.295 116.86 206.315C118.66 206.324 120.471 206.318 122.27 206.268C122.406 206.282 122.541 206.297 122.676 206.305C124.87 206.434 127.135 206.317 129.335 206.318L143.269 206.288L152.25 206.249C154.22 206.239 156.352 206.364 158.289 205.998C159.864 205.7 161.093 205.007 162.28 203.964C161.571 203.427 160.9 202.791 160.305 202.132C157.76 199.343 156.44 195.651 156.639 191.882C156.892 186.983 159.133 183.803 162.651 180.633C161.501 179.986 160.237 179.453 158.924 179.276C157.207 179.046 155.406 179.142 153.675 179.145L145.796 179.164C139.215 179.181 132.614 178.987 126.038 179.097ZM170.371 179.134C166.443 179.438 163.408 180.916 160.842 183.947C158.589 186.636 157.488 190.105 157.778 193.601C158.085 197.267 159.925 200.537 162.725 202.894C164.266 204.191 166.19 205.175 168.179 205.535C170.407 205.939 172.72 205.828 174.976 205.827L183.01 205.821C191.871 205.814 200.742 205.924 209.602 205.806C213.379 205.366 216.431 204.003 218.841 200.965C221.145 198.038 222.172 194.307 221.688 190.614C221.29 187.133 219.518 183.956 216.765 181.79C215.061 180.48 213.053 179.623 210.928 179.299C208.682 178.945 206.324 179.068 204.055 179.072L194.162 179.092L178.698 179.1C175.938 179.102 173.126 178.998 170.371 179.134ZM49.3366 179.269C45.654 179.73 42.3693 181.395 40.0797 184.374C37.8915 187.226 36.9338 190.835 37.4197 194.397C37.8868 197.902 39.7368 201.074 42.5575 203.205C44.2731 204.495 46.4477 205.418 48.5784 205.71C51.9757 206.175 55.6315 205.929 59.065 205.926L77.3728 205.91L93.4371 205.934C96.3136 205.938 99.404 206.186 102.241 205.764C103.871 205.508 105.459 205.037 106.964 204.361C104.909 202.514 103.372 200.735 102.243 198.192C101.884 197.214 101.616 196.265 101.396 195.247C101.344 195.9 101.479 197.426 101.085 197.841C100.71 197.898 100.528 197.892 100.173 197.757C99.4106 196.127 101.11 191.928 98.8735 191.074C98.4339 190.907 97.6629 190.983 97.2687 191.238C96.7148 191.598 96.4995 192.126 96.3942 192.754C96.1451 194.242 96.8487 196.523 96.0506 197.771C95.6941 197.977 95.5956 197.979 95.1796 197.989C94.8446 196.987 94.9033 191.079 95.1073 189.91L95.4415 189.706C95.8051 189.817 95.8372 189.854 96.006 190.226C96.1049 190.445 96.1584 190.712 96.2214 190.945C96.9588 191.042 98.7975 188.315 100.608 190.775C100.833 191.08 101.011 191.427 101.194 191.758C101.852 187.535 103.091 184.774 106.005 181.641C104.701 180.567 103.206 179.639 101.508 179.38C98.5775 178.933 95.3591 179.187 92.3959 179.196L77.8012 179.201L59.13 179.192C55.9793 179.19 52.6345 178.97 49.5066 179.249C49.4496 179.255 49.3933 179.263 49.3366 179.269Z" fill="#1C1741"/>
<path d="M126.038 179.097C132.614 178.987 139.215 179.181 145.796 179.164L153.675 179.145C155.406 179.142 157.207 179.046 158.924 179.276C160.237 179.453 161.501 179.987 162.651 180.633C159.133 183.803 156.892 186.984 156.639 191.882C156.44 195.651 157.76 199.343 160.305 202.132C160.9 202.791 161.572 203.427 162.28 203.964C161.093 205.007 159.864 205.7 158.289 205.998C156.352 206.364 154.22 206.239 152.25 206.249L143.269 206.288L129.335 206.318C127.135 206.317 124.87 206.434 122.676 206.305C122.541 206.297 122.406 206.282 122.27 206.268C119.775 204.626 117.44 204.15 115.945 201.263C114.414 198.308 113.506 188.942 114.559 185.847C115.837 182.087 119.765 180.903 123.207 179.967C124.037 179.741 125.086 179.584 125.849 179.197C125.912 179.165 125.975 179.13 126.038 179.097ZM153.787 185.871C153.783 187.764 153.516 196.854 153.891 197.911C154.348 198.01 154.752 198.015 155.218 198.005C155.146 193.995 155.129 189.985 155.165 185.975C154.688 185.888 154.271 185.858 153.787 185.871ZM149.987 186.125C149.731 186.474 149.583 186.678 149.551 187.129C149.729 187.44 149.853 187.584 150.226 187.652C150.488 187.699 150.781 187.684 151.046 187.683C151.314 187.32 151.389 187.229 151.45 186.789C151.271 186.451 151.201 186.319 150.815 186.174C150.598 186.092 150.221 186.126 149.987 186.125ZM119.381 186.453L119.392 198.026C121.042 198.004 124.378 198.367 125.753 197.714C125.967 197.413 126.006 197.424 125.958 197.063C125.014 196.371 122.318 196.775 121.113 196.823L121.1 193.347L121.143 192.741C122.304 192.069 124.38 193.327 125.286 192.208L125.322 191.842C124.5 191.15 122.118 191.416 121.026 191.402L121.022 187.584C122.187 187.563 125.042 187.882 125.891 187.373C126.067 187.036 126.071 187.027 126.005 186.653C125.418 186.174 120.404 186.457 119.381 186.453ZM143.621 189.082C142.855 189.294 142.208 189.37 141.725 190.059L141.674 190.419C141.895 190.696 141.969 190.748 142.355 190.766C143.409 190.818 144.164 189.698 145.236 190.589C145.653 190.935 145.988 191.359 146.035 191.911C145.794 192.361 145.622 192.493 145.125 192.633C143.802 193.006 141.932 193.121 141.142 194.42C140.775 195.025 140.838 195.836 141.049 196.486C141.161 196.832 141.363 197.15 141.55 197.459C142.221 197.899 143.016 198.327 143.849 198.154C144.52 198.014 145.231 197.561 145.839 197.246L145.937 197.38C146.171 197.692 146.322 197.936 146.703 198.077C146.87 198.044 147.057 198.066 147.155 197.909C147.592 197.21 147.361 192.319 147.083 191.406C146.828 190.568 146.282 189.771 145.49 189.365C144.885 189.055 144.286 189.057 143.621 189.082ZM130.798 189.215C129.812 189.493 129.415 190.032 128.802 190.797L128.786 190.581C128.752 190.153 128.777 189.769 128.491 189.424C128.151 189.356 128.164 189.354 127.863 189.529C127.664 189.889 127.59 190.196 127.548 190.606C127.49 191.178 127.465 197.067 127.534 197.315C127.645 197.717 127.771 197.825 128.115 198.042C128.431 198.043 128.537 198.099 128.806 197.916C129.29 196.043 128.125 191.868 130.15 190.743C130.56 190.515 131.031 190.477 131.472 190.645C131.912 190.812 132.197 191.073 132.409 191.5C133.168 193.03 131.818 197.31 133.291 198.046C133.69 197.971 133.692 197.975 133.954 197.665C134.037 197.135 134.002 196.617 133.98 196.083C133.945 194.288 133.724 192.169 135.049 190.736C135.382 190.375 135.678 190.225 136.177 190.196C136.742 190.407 137.019 190.782 137.268 191.316C137.956 192.791 137.697 194.9 137.659 196.507C137.652 196.808 137.568 197.309 137.646 197.598C137.701 197.8 137.762 197.927 137.964 197.988C138.241 198.072 138.444 197.999 138.716 197.936C139.005 197.657 139.121 197.519 139.14 197.104C139.167 196.503 139.049 195.864 139.037 195.258C139 193.541 139.525 191.076 138.137 189.773C137.669 189.334 137.082 189.123 136.442 189.163C135.374 189.228 134.5 189.891 133.669 190.499C133.318 190.344 133.138 190.18 132.864 189.909C132.22 189.274 131.667 189.265 130.798 189.215ZM149.865 189.506C149.518 190.839 149.637 196.219 149.794 197.781C150.202 198.032 150.526 197.983 150.999 198.004C151.297 196.555 151.195 191.203 151.009 189.605C150.605 189.498 150.276 189.492 149.865 189.506Z" fill="#6556FE"/>
<path d="M244.465 243.218C241.676 243.793 238.934 250.641 236.152 250.652C238.067 247.603 239.552 244.114 240.135 240.548C240.616 237.603 240.485 234.561 240.479 231.587L240.414 219.674L240.389 183.847C242.009 185.762 242.95 188.114 244.444 190.105C244.626 196.087 244.453 202.118 244.441 208.105L244.465 243.218Z" fill="#F8F7FE"/>
<path d="M155.218 198.005C154.752 198.015 154.347 198.01 153.891 197.911C153.516 196.854 153.783 187.764 153.787 185.871C154.271 185.858 154.688 185.888 155.165 185.975C155.129 189.985 155.146 193.995 155.218 198.005Z" fill="#1C1741"/>
<path d="M151.046 187.683C150.78 187.684 150.488 187.699 150.226 187.652C149.853 187.585 149.729 187.44 149.551 187.129C149.583 186.678 149.731 186.474 149.987 186.125C150.221 186.127 150.597 186.092 150.815 186.174C151.2 186.319 151.271 186.451 151.45 186.789C151.389 187.229 151.313 187.32 151.046 187.683Z" fill="#1C1741"/>
<path d="M186.327 192.479C186.28 192.022 186.237 191.692 185.919 191.341C185.558 190.941 185.012 190.668 184.466 190.671C181.011 190.692 183.351 196.098 182.137 197.592C181.822 197.723 181.779 197.754 181.448 197.692C180.914 196.94 181.131 187.774 181.175 186.216C181.566 186.18 181.959 186.082 182.306 186.307C182.895 187.251 182.536 189.211 182.55 190.339C183.188 189.951 183.837 189.636 184.588 189.545C185.272 189.462 185.954 189.595 186.501 190.034C187.25 190.637 187.562 191.62 187.648 192.546C187.744 193.575 188.007 196.93 187.404 197.664C186.977 197.688 186.749 197.791 186.407 197.518C186.081 196.484 186.33 193.696 186.327 192.479Z" fill="#1C1741"/>
<path d="M119.392 198.026L119.381 186.453C120.404 186.457 125.418 186.173 126.005 186.653C126.071 187.027 126.067 187.036 125.891 187.373C125.042 187.882 122.187 187.562 121.022 187.584L121.026 191.402C122.118 191.416 124.5 191.15 125.322 191.841L125.286 192.208C124.38 193.327 122.304 192.069 121.143 192.74L121.1 193.347L121.113 196.823C122.318 196.775 125.014 196.371 125.958 197.063C126.006 197.424 125.967 197.413 125.753 197.714C124.378 198.367 121.042 198.004 119.392 198.026Z" fill="#1C1741"/>
<path d="M83.7625 188.313C83.4885 188.435 83.1693 188.398 82.9309 188.216C82.6921 188.034 82.5719 187.736 82.6175 187.439C82.6629 187.143 82.8667 186.895 83.1488 186.792C83.5642 186.642 84.0241 186.847 84.1894 187.257C84.3548 187.666 84.166 188.133 83.7625 188.313Z" fill="#1C1741"/>
<path d="M175.063 193.454L174.53 193.536C173.915 194.21 174.426 195.864 174.39 196.726C174.373 197.147 174.243 197.3 173.956 197.586C173.615 197.662 173.433 197.704 173.098 197.584C172.772 196.779 173.026 188.47 173.054 186.948C174.889 186.885 176.935 186.586 178.52 187.729C179.152 188.186 179.613 188.84 179.694 189.628C179.78 190.466 179.455 191.338 178.913 191.971C177.883 193.176 176.543 193.352 175.063 193.454ZM174.461 188.085C174.317 189.508 174.365 190.946 174.376 192.375C175.52 192.369 176.366 192.284 177.419 191.777C177.884 191.258 178.368 190.61 178.282 189.863C178.226 189.374 177.985 189.014 177.598 188.723C176.635 188.001 175.607 188.005 174.461 188.085Z" fill="#1C1741"/>
<path d="M46.6472 197.887L46.6819 186.957C47.1276 186.942 47.478 186.9 47.8824 187.127C48.2607 189.138 47.9636 194.367 47.9552 196.683C49.3135 196.715 50.7241 196.447 52.0431 196.811C52.4149 197.146 52.3472 197.374 52.4044 197.86C50.4862 197.893 48.5657 197.881 46.6472 197.887Z" fill="#1C1741"/>
<path d="M81.1505 197.562C80.632 197.819 80.0816 198.001 79.4945 197.977C76.6221 197.864 78.2657 192.574 77.7043 191.215C77.5546 190.853 76.89 191.068 76.5458 190.702C76.5215 190.372 76.451 190.289 76.6412 190.004L77.4702 189.926C77.8726 189.371 77.4401 188.656 77.883 188.084C78.2614 188.06 78.5669 188.011 78.9149 188.197C79.2213 188.659 79.0835 189.413 79.0626 189.949L79.7827 189.955C79.992 189.955 80.2435 189.93 80.4467 189.986C80.7852 190.08 80.9109 190.246 81.0549 190.543L80.8589 190.815C80.3097 191.145 79.6835 191.039 79.0647 191.017C79.0505 192.424 78.8716 194.062 79.1407 195.437C79.2361 195.924 79.3581 196.285 79.781 196.574C80.0524 196.62 80.3868 196.647 80.6429 196.742C81.0332 196.889 81.0338 197.205 81.1505 197.562Z" fill="#1C1741"/>
<path d="M141.55 197.459C141.363 197.15 141.161 196.832 141.049 196.486C140.838 195.836 140.775 195.025 141.142 194.42C141.932 193.121 143.802 193.006 145.125 192.633C145.622 192.493 145.794 192.361 146.035 191.911C145.988 191.359 145.653 190.935 145.236 190.589C144.164 189.699 143.409 190.818 142.355 190.767C141.969 190.748 141.895 190.696 141.674 190.419L141.725 190.059C142.208 189.37 142.855 189.294 143.621 189.082C144.286 189.057 144.884 189.055 145.489 189.365C146.282 189.771 146.828 190.568 147.083 191.406C147.361 192.319 147.592 197.21 147.155 197.909C147.057 198.066 146.87 198.044 146.703 198.077C146.322 197.936 146.171 197.693 145.937 197.38L145.839 197.246C145.231 197.561 144.52 198.014 143.849 198.154C143.016 198.327 142.221 197.899 141.55 197.459ZM144.99 193.71C144.048 193.845 142.973 194.069 142.415 194.946C142.238 195.225 142.142 195.532 142.249 195.855C142.448 196.457 142.945 196.758 143.487 197.02C144.263 196.956 144.873 196.887 145.392 196.243C145.79 195.749 146.241 194.936 146.05 194.274C145.992 194.072 145.88 193.838 145.678 193.758C145.433 193.661 145.245 193.69 144.99 193.71Z" fill="#1C1741"/>
<path d="M128.802 190.797C129.415 190.032 129.812 189.493 130.798 189.215C131.667 189.264 132.22 189.274 132.864 189.909C133.138 190.18 133.318 190.344 133.669 190.499C134.5 189.891 135.374 189.228 136.442 189.162C137.082 189.123 137.669 189.334 138.137 189.773C139.525 191.076 139 193.541 139.037 195.258C139.049 195.864 139.167 196.503 139.14 197.104C139.121 197.519 139.005 197.656 138.716 197.936C138.444 197.999 138.241 198.072 137.964 197.988C137.762 197.927 137.701 197.8 137.646 197.598C137.568 197.309 137.652 196.808 137.659 196.507C137.697 194.9 137.956 192.79 137.268 191.316C137.019 190.782 136.742 190.407 136.177 190.196C135.678 190.224 135.382 190.374 135.049 190.736C133.724 192.169 133.945 194.288 133.98 196.083C134.002 196.617 134.037 197.135 133.954 197.665C133.692 197.974 133.69 197.971 133.291 198.046C131.818 197.31 133.168 193.03 132.409 191.499C132.197 191.073 131.912 190.812 131.472 190.645C131.031 190.477 130.56 190.515 130.15 190.743C128.125 191.868 129.29 196.043 128.806 197.916C128.537 198.098 128.431 198.043 128.115 198.042C127.771 197.825 127.645 197.717 127.534 197.315C127.465 197.067 127.49 191.178 127.548 190.606C127.59 190.196 127.664 189.889 127.863 189.529C128.164 189.354 128.151 189.356 128.491 189.424C128.777 189.769 128.752 190.153 128.786 190.581L128.802 190.797Z" fill="#1C1741"/>
<path d="M150.999 198.004C150.526 197.983 150.202 198.032 149.794 197.782C149.637 196.219 149.518 190.839 149.865 189.507C150.276 189.492 150.605 189.498 151.009 189.605C151.195 191.203 151.297 196.555 150.999 198.004Z" fill="#1C1741"/>
<path d="M193.489 197.801C192.808 197.792 192.169 197.772 191.536 197.492C190.637 197.096 189.959 196.317 189.625 195.4C189.185 194.198 189.239 192.693 189.846 191.556C190.479 190.369 191.352 189.873 192.605 189.501C193.357 189.49 194.041 189.57 194.725 189.908C195.627 190.362 196.3 191.17 196.585 192.139C196.963 193.385 196.878 194.94 196.197 196.071C195.541 197.157 194.687 197.535 193.489 197.801ZM192.966 190.665C192.138 190.868 191.624 191.157 191.182 191.91C190.691 192.745 190.578 193.822 190.854 194.749C191.059 195.433 191.492 196.085 192.138 196.422C192.476 196.598 192.869 196.65 193.241 196.71C194.011 196.534 194.5 196.376 194.937 195.685C195.476 194.832 195.591 193.698 195.337 192.732C195.144 191.996 194.71 191.28 194.018 190.919C193.686 190.746 193.332 190.709 192.966 190.665Z" fill="#1C1741"/>
<path d="M201.332 190.79C201.059 190.915 200.717 191.06 200.489 191.258C199.124 192.446 200.171 195.605 199.933 197.189C199.884 197.515 199.882 197.515 199.602 197.708C199.163 197.696 199.146 197.705 198.808 197.43C198.631 197.029 198.56 196.698 198.534 196.259C198.491 195.55 198.539 190.171 198.654 189.879C198.725 189.7 198.872 189.696 199.037 189.626C199.439 189.75 199.6 189.907 199.871 190.21C199.903 190.245 199.933 190.28 199.963 190.315C200.703 189.962 201.354 189.657 202.169 189.516C202.757 189.581 203.398 189.72 203.893 190.061C204.633 190.573 204.978 191.407 205.079 192.277C205.217 193.468 205.522 196.792 204.812 197.689C204.44 197.811 204.405 197.795 204.027 197.684C203.474 196.926 203.912 194.503 203.893 193.481C203.879 192.672 203.793 191.724 203.12 191.17C202.627 190.766 202.127 190.766 201.517 190.783L201.332 190.79Z" fill="#1C1741"/>
<path d="M212.142 196.512C212.354 196.421 212.521 196.431 212.749 196.423C213.033 196.65 213.021 196.644 213.085 197.004C212.864 197.297 212.776 197.393 212.422 197.536C211.393 197.951 209.6 197.833 208.602 197.363C207.794 196.983 207.233 196.312 206.937 195.476C206.491 194.22 206.621 192.612 207.247 191.439C207.854 190.3 208.605 189.879 209.802 189.498C210.686 189.513 211.478 189.647 212.177 190.229C213.249 191.123 213.348 192.531 213.423 193.819C211.732 193.895 209.805 193.641 208.165 194.016C208.016 194.27 208.001 194.213 208.043 194.544C208.125 195.187 208.417 195.849 208.966 196.22C209.891 196.842 211.112 196.721 212.142 196.512ZM209.437 190.651C208.522 191.337 208.286 191.78 207.95 192.87H210.907C211.38 192.851 211.586 192.904 211.974 192.619C212.082 192.24 212.12 192.128 211.942 191.746C211.717 191.265 211 190.722 210.476 190.637C210.141 190.583 209.774 190.626 209.437 190.651Z" fill="#1C1741"/>
<path d="M57.1557 198.008C56.5036 198 55.8911 197.918 55.2965 197.631C54.366 197.181 53.7023 196.377 53.4141 195.387C53.069 194.202 53.2447 192.817 53.868 191.752C54.5643 190.563 55.4855 190.108 56.7846 189.801C57.5 189.804 58.2004 189.941 58.8271 190.302C59.7148 190.812 60.2924 191.683 60.5274 192.669C60.8193 193.892 60.658 195.242 59.9478 196.298C59.2425 197.345 58.3559 197.75 57.1557 198.008ZM56.3683 190.929C55.5593 191.356 55.117 191.776 54.8158 192.659C54.4964 193.595 54.5181 194.723 54.9895 195.607C55.2968 196.182 55.824 196.674 56.4695 196.83C56.828 196.917 57.167 196.895 57.5301 196.861C58.3805 196.377 58.8736 195.871 59.1537 194.913C59.4122 194.029 59.3743 193.026 58.9263 192.208C58.6213 191.651 58.1365 191.189 57.5151 191.017C57.1318 190.911 56.7623 190.917 56.3683 190.929Z" fill="#1C1741"/>
<path d="M67.2969 196.337L67.4204 196.199L67.7016 196.232C67.971 196.571 67.9887 196.564 67.9794 196.993C67.7658 197.356 67.5817 197.621 67.1758 197.791C66.2554 198.177 64.8046 197.962 63.932 197.535C63 197.08 62.3305 196.259 62.034 195.269C61.6868 194.067 61.8389 192.776 62.456 191.688C63.0989 190.579 63.9302 190.131 65.129 189.79C66.3812 189.75 67.1669 190.015 68.2728 190.574C68.0222 190.993 67.8025 191.333 67.4441 191.667C66.7567 191.239 65.8042 190.717 64.9642 190.917C64.4132 191.048 64.0161 191.501 63.7672 191.986C63.2859 192.923 63.0685 194.09 63.4377 195.102C63.6854 195.782 64.1855 196.325 64.8648 196.588C65.7207 196.92 66.502 196.718 67.2969 196.337Z" fill="#1C1741"/>
<path d="M69.6149 197.215C69.397 196.842 69.2429 196.493 69.1394 196.07C69.0012 195.505 68.9342 194.964 69.29 194.461C70.1774 193.206 72.3755 193.232 73.7488 192.969C73.8876 192.723 73.8873 192.559 73.8506 192.286C73.7815 191.773 73.5557 191.202 73.0831 190.93C72.2934 190.475 71.3377 191.236 70.57 191.419C70.2162 191.503 70.1893 191.464 69.895 191.283C69.7736 190.902 69.7198 190.848 69.8453 190.476C70.3549 190.144 70.929 189.98 71.5005 189.783C72.4758 189.716 73.4918 189.637 74.2937 190.306C75.678 191.462 75.2696 195.798 75.3754 197.653C75.1678 197.96 75.2245 197.891 74.9094 197.977C74.4813 197.857 74.1575 197.438 73.8471 197.134C73.2421 197.58 72.6001 197.945 71.832 197.993C70.9368 198.05 70.2841 197.789 69.6149 197.215ZM71.6473 194.145C71.1513 194.471 70.7284 194.781 70.5966 195.396C70.522 195.746 70.6116 196.074 70.855 196.336C71.24 196.75 71.739 196.814 72.27 196.774C72.4477 196.76 72.6194 196.73 72.7949 196.699C73.4424 196.272 73.8933 195.815 74.0743 195.044C73.9769 194.672 73.9075 194.448 73.5702 194.225C73.0796 193.901 72.2139 194.07 71.6473 194.145Z" fill="#1C1741"/>
<path d="M89.949 197.967C89.2223 198.008 88.5549 197.951 87.9036 197.597C87.011 197.112 86.4115 196.276 86.1389 195.307C85.8021 194.11 85.9296 192.756 86.5658 191.679C87.2122 190.584 88.0609 190.123 89.2535 189.797C90.0019 189.821 90.7503 189.912 91.401 190.312C92.3052 190.869 92.896 191.783 93.1371 192.806C93.4163 193.992 93.2764 195.318 92.598 196.349C91.943 197.343 91.0807 197.734 89.949 197.967ZM89.0382 190.937C88.1346 191.477 87.6828 191.966 87.4278 193.011C87.2041 193.928 87.2755 195.04 87.8218 195.837C88.1496 196.315 88.6211 196.68 89.1986 196.784C89.5903 196.854 89.962 196.837 90.3554 196.799C91.1839 196.304 91.5842 195.791 91.8195 194.841C92.0548 193.892 91.956 192.807 91.3946 191.986C91.0642 191.503 90.5468 191.088 89.9609 190.979C89.6585 190.923 89.344 190.923 89.0382 190.937Z" fill="#1C1741"/>
<path d="M83.7631 197.955L83.0231 197.814C82.7404 197.582 82.7826 197.497 82.7505 197.14C82.6268 195.754 82.4944 191.664 82.793 190.424C82.8482 190.195 82.9849 190.038 83.1338 189.862C83.4665 189.908 83.7029 189.97 84.0059 190.116C84.027 190.255 84.0521 190.394 84.0649 190.535C84.1417 191.377 84.2389 197.197 84.0192 197.652C83.9617 197.771 83.8483 197.854 83.7631 197.955Z" fill="#1C1741"/>
<path d="M143.487 197.02C142.945 196.758 142.448 196.457 142.249 195.855C142.142 195.531 142.238 195.225 142.415 194.946C142.973 194.069 144.048 193.845 144.99 193.71C145.245 193.69 145.433 193.661 145.678 193.758C145.88 193.838 145.992 194.072 146.05 194.274C146.241 194.936 145.79 195.749 145.392 196.243C144.873 196.887 144.263 196.956 143.487 197.02Z" fill="#6556FE"/>
<path d="M251.49 213.697C252.391 210.802 253.986 208.318 255.957 206.025C260.579 200.648 267.186 197.596 274.188 197.056C278.318 196.758 282.633 197.865 286.467 199.331C282.686 207.091 277.523 212.99 269.201 216.007C263.37 218.122 257.549 217.248 252.01 214.681C252.714 214.208 253.465 213.849 254.225 213.477C256.102 212.682 258 211.938 259.918 211.247C261.332 210.742 263.709 210.318 264.852 209.521C264.945 209.167 264.941 209.174 264.782 208.843L264.425 208.723C259.926 209.845 255.582 211.516 251.49 213.697Z" fill="#6556FE"/>
<path d="M250.68 215.063C254.412 217.258 258.427 218.016 262.695 218.208C261.783 220.585 247.916 238.975 246.062 239.905C245.893 239.989 245.712 240.017 245.529 240.05L245.558 220.809C247.01 218.617 248.765 216.843 250.68 215.063Z" fill="#F8F7FE"/>
<path d="M50.2209 247.254C44.1728 247.813 38.8087 243.383 38.2152 237.338C37.6221 231.294 42.0225 225.905 48.0636 225.278C54.1527 224.646 59.5934 229.089 60.1912 235.181C60.7893 241.274 56.3163 246.69 50.2209 247.254ZM54.7349 232.916C52.5044 234.795 50.4801 237.065 48.4301 239.145C47.2103 238.012 45.2886 235.765 43.8063 235.266C43.4594 235.4 43.4334 235.494 43.2039 235.771C43.1747 236.177 43.1871 236.302 43.4594 236.615C43.6863 236.876 43.947 237.116 44.1945 237.358C45.5363 238.665 46.9163 240.263 48.4772 241.301C49.7378 240.362 55.1832 235.066 55.626 233.822C55.5552 233.486 55.5159 233.365 55.2101 233.154C55.0944 233.075 54.8681 232.977 54.7349 232.916Z" fill="#6556FE"/>
<path d="M210.942 246.961C205.088 247.223 200.129 242.694 199.858 236.841C199.588 230.988 204.108 226.022 209.961 225.741C215.826 225.46 220.807 229.994 221.078 235.86C221.35 241.727 216.808 246.7 210.942 246.961ZM215.318 233.851C213.372 235.294 211.612 237.333 209.98 239.12C209.255 238.301 207.04 235.419 206.013 235.456C205.664 235.468 205.595 235.557 205.411 235.811C205.495 236.358 205.808 236.684 206.199 237.074C207.388 238.335 208.566 239.802 209.887 240.913C211.237 239.833 215.465 235.966 216.169 234.612C216.01 234.184 215.721 234.038 215.318 233.851Z" fill="#6556FE"/>
</g>
<defs>
<clipPath id="clip0_3_1021">
<rect width="296" height="296" fill="white"/>
</clipPath>
</defs>
</svg>
