<svg width="48" height="48" viewBox="0 0 48 48" fill="none" xmlns="http://www.w3.org/2000/svg">
<rect width="48" height="48" rx="10" fill="#6556FE"/>
<path d="M20 31C18.05 31 16.3958 30.3208 15.0375 28.9625C13.6792 27.6042 13 25.95 13 24C13 22.05 13.6792 20.3958 15.0375 19.0375C16.3958 17.6792 18.05 17 20 17C20.45 17 20.8875 17.0417 21.3125 17.125C21.7375 17.2083 22.15 17.325 22.55 17.475C22.2667 17.7083 22 17.9625 21.75 18.2375C21.5 18.5125 21.2667 18.8 21.05 19.1C20.8833 19.0667 20.7125 19.0417 20.5375 19.025C20.3625 19.0083 20.1833 19 20 19C18.6167 19 17.4375 19.4875 16.4625 20.4625C15.4875 21.4375 15 22.6167 15 24C15 25.3833 15.4875 26.5625 16.4625 27.5375C17.4375 28.5125 18.6167 29 20 29C20.1833 29 20.3625 28.9917 20.5375 28.975C20.7125 28.9583 20.8833 28.9333 21.05 28.9C21.2667 29.2 21.5 29.4875 21.75 29.7625C22 30.0375 22.2667 30.2917 22.55 30.525C22.15 30.675 21.7375 30.7917 21.3125 30.875C20.8875 30.9583 20.45 31 20 31ZM28 31C27.55 31 27.1125 30.9583 26.6875 30.875C26.2625 30.7917 25.85 30.675 25.45 30.525C25.7333 30.2917 26 30.0375 26.25 29.7625C26.5 29.4875 26.7333 29.2 26.95 28.9C27.1333 28.9333 27.3083 28.9583 27.475 28.975C27.6417 28.9917 27.8167 29 28 29C29.3833 29 30.5625 28.5125 31.5375 27.5375C32.5125 26.5625 33 25.3833 33 24C33 22.6167 32.5125 21.4375 31.5375 20.4625C30.5625 19.4875 29.3833 19 28 19C27.8167 19 27.6417 19.0083 27.475 19.025C27.3083 19.0417 27.1333 19.0667 26.95 19.1C26.7333 18.8 26.5 18.5125 26.25 18.2375C26 17.9625 25.7333 17.7083 25.45 17.475C25.85 17.325 26.2625 17.2083 26.6875 17.125C27.1125 17.0417 27.55 17 28 17C29.95 17 31.6042 17.6792 32.9625 19.0375C34.3208 20.3958 35 22.05 35 24C35 25.95 34.3208 27.6042 32.9625 28.9625C31.6042 30.3208 29.95 31 28 31ZM24 29.75C23.05 29.1 22.3125 28.2667 21.7875 27.25C21.2625 26.2333 21 25.15 21 24C21 22.85 21.2625 21.7667 21.7875 20.75C22.3125 19.7333 23.05 18.9 24 18.25C24.95 18.9 25.6875 19.7333 26.2125 20.75C26.7375 21.7667 27 22.85 27 24C27 25.15 26.7375 26.2333 26.2125 27.25C25.6875 28.2667 24.95 29.1 24 29.75Z" fill="white"/>
</svg>
