<svg width="300" height="278" viewBox="0 0 300 278" fill="none" xmlns="http://www.w3.org/2000/svg">
<g clip-path="url(#clip0_3_884)">
<path d="M122.629 73.2407C122.278 70.6385 122.474 67.7671 122.468 65.1351C122.461 61.9719 122.314 58.7244 122.521 55.5735C122.914 55.6541 123.127 55.6517 123.431 55.9212C123.654 57.6817 123.51 59.5669 123.514 61.3461C123.508 64.9664 123.531 68.5863 123.583 72.2062C126.534 72.4048 130.026 71.9343 132.828 72.3823C133.061 72.6752 132.979 72.8891 132.973 73.2512C129.535 73.3391 126.07 73.2471 122.629 73.2407Z" fill="#1C1741"/>
<path d="M178.499 73.1068C177.887 73.2565 177.299 73.3631 176.666 73.3274C175.911 73.2846 175.208 73.0151 174.713 72.4256C174.287 71.9182 174.219 71.3384 174.133 70.6983C173.808 68.2605 173.991 65.6197 173.999 63.1573C174.006 60.6943 173.891 58.1499 174.103 55.7009L174.817 55.8398C175.74 56.8954 174.347 69.7183 175.348 71.5661C175.886 72.5578 177.476 72.0225 178.391 72.2381C178.636 72.5759 178.546 72.7031 178.499 73.1068Z" fill="#1C1741"/>
<path d="M169.146 66.5342C169.105 64.9337 169.057 63.3824 167.814 62.1888C165.433 59.9034 163.75 62.4484 161.62 62.4499L161.567 62.2483C161.653 62.1247 161.691 62.0626 161.781 61.9536C162.726 60.8093 164.18 60.5702 165.565 60.405C166.362 60.3918 167.219 60.5216 167.935 60.8851C168.897 61.3732 169.492 62.246 169.823 63.2514C170.227 64.4778 170.495 72.3382 169.984 73.1863C169.866 73.3826 169.773 73.3618 169.572 73.423L169.283 73.2505C169.038 72.7158 169.124 72.4038 169.166 71.8246C168.655 72.1879 168.149 72.5365 167.572 72.789C166.207 73.3873 164.487 73.4312 163.117 72.823C162.001 72.3273 161.396 71.5615 160.979 70.4415C160.978 70.1084 160.973 69.7668 161.013 69.4354C161.126 68.4862 161.796 67.549 162.575 67.0249C164.527 65.7097 166.988 66.1132 169.146 66.5342ZM165.297 67.1218C164.227 67.2953 163.206 67.5361 162.505 68.4458C162.145 68.9122 161.968 69.4937 162.063 70.0802C162.173 70.7611 162.626 71.3031 163.2 71.6588C164 72.1545 164.941 72.2447 165.86 72.2095C167.07 71.9072 168.126 71.5158 169.044 70.6299C169.085 69.5482 169.106 68.4748 169.083 67.3923C167.813 67.1968 166.586 67.0269 165.297 67.1218Z" fill="#1C1741"/>
<path d="M140.872 73.2765C139.687 73.3858 138.618 73.2516 137.537 72.7246C136.023 71.986 134.919 70.6005 134.419 69.0039C133.871 67.2519 134.012 65.2668 134.9 63.6481C135.841 61.9313 137.314 61.0404 139.138 60.5127C140.395 60.4477 141.606 60.673 142.717 61.2847C144.148 62.0728 145.158 63.3824 145.609 64.9483C146.116 66.7108 145.954 68.7176 145.033 70.3181C144.062 72.0068 142.672 72.7539 140.872 73.2765ZM139.085 61.5376C137.588 62.0283 136.475 62.8137 135.771 64.2633C135.065 65.7162 134.977 67.5144 135.562 69.0214C136.069 70.3257 137.031 71.4414 138.352 71.9567C139.212 72.2924 140.153 72.2939 141.055 72.1319C142.603 71.5366 143.754 70.7611 144.443 69.1747C145.042 67.7626 145.051 66.1691 144.467 64.7505C143.94 63.4498 142.961 62.3951 141.657 61.8554C140.805 61.5027 139.992 61.4667 139.085 61.5376Z" fill="#1C1741"/>
<path d="M155.73 72.0053C156.216 71.8061 156.637 71.6165 157.049 71.2834C157.521 70.9025 157.898 70.5472 158.517 70.5501L158.68 70.715C158.713 70.9567 158.759 71.0268 158.646 71.2629C158.239 72.1113 156.526 72.8458 155.667 73.0872C154.253 73.4842 152.849 73.3087 151.581 72.5751C150.178 71.7715 149.167 70.4256 148.787 68.8538C148.32 67.0002 148.534 64.7795 149.565 63.1538C150.535 61.6251 151.938 60.8941 153.655 60.527C154.341 60.4811 155.025 60.5364 155.681 60.7459C156.637 61.0512 157.941 61.7496 158.385 62.7003C158.518 62.9851 158.51 62.9789 158.388 63.2836L158.053 63.3952C157.477 63.3551 156.758 62.4319 156.289 62.0769C155.616 61.5677 154.549 61.4552 153.737 61.5545C152.539 61.701 151.383 62.3355 150.665 63.3141C149.799 64.4936 149.509 66.627 149.725 68.0396C149.923 69.3281 150.495 70.6228 151.585 71.3924C152.857 72.2912 154.271 72.2663 155.73 72.0053Z" fill="#1C1741"/>
<path d="M141.055 72.1318C140.153 72.2938 139.212 72.2924 138.352 71.9566C137.031 71.4413 136.069 70.3257 135.562 69.0214C134.977 67.5144 135.065 65.7161 135.771 64.2633C136.475 62.8137 137.588 62.0282 139.085 61.5375C139.992 61.4666 140.805 61.5026 141.657 61.8554C142.961 62.395 143.94 63.4497 144.467 64.7505C145.051 66.169 145.042 67.7625 144.443 69.1746C143.754 70.761 142.603 71.5365 141.055 72.1318Z" fill="#F8F7FE"/>
<path d="M165.86 72.2095C164.941 72.2447 164 72.1544 163.2 71.6587C162.626 71.3031 162.173 70.7611 162.063 70.0802C161.968 69.4937 162.145 68.9122 162.505 68.4457C163.206 67.5361 164.227 67.2953 165.297 67.1218C166.586 67.0269 167.813 67.1968 169.083 67.3922C169.106 68.4748 169.085 69.5482 169.044 70.6298C168.126 71.5158 167.07 71.9072 165.86 72.2095Z" fill="#F8F7FE"/>
<path d="M25.4319 96.9729C26.2404 94.9104 26.9952 92.8154 27.9494 90.815C30.9172 84.5933 35.8239 77.3959 42.3445 74.5863C45.3451 73.2935 48.9553 73.0394 52.018 74.2635C58.2251 76.7437 62.6548 84.1383 65.1196 90.0176C71.6311 105.55 72.5759 124.625 71.5288 141.277C71.1708 146.967 70.4859 152.58 69.815 158.238C64.3139 159.018 53.2661 161.141 48.5929 163.892C49.1296 162.758 48.924 151.171 48.9412 148.987C49.9121 147.41 59.1776 132.658 59.2728 131.937C59.3185 131.59 59.2666 131.547 59.0718 131.279L58.8146 131.283C57.5891 132.411 54.7511 137.737 53.6909 139.47C52.1349 141.961 50.5581 144.438 48.9606 146.902C49.0702 133.278 48.7696 119.649 48.9916 106.025C49.4416 105.385 55.3458 95.1929 55.3798 95.0774C55.4103 94.9749 55.391 94.8642 55.3962 94.7575C55.098 94.519 55.1009 94.5202 54.7192 94.5255C53.2034 95.8471 50.4225 101.766 49.0083 103.915L48.9181 104.05C48.9181 102.561 49.1232 89.7949 48.8715 89.2172C48.7198 88.8686 48.566 88.9131 48.2419 88.805L48.0477 88.9321C47.6443 90.2177 47.944 98.0719 47.949 100.1L47.9504 121.516C45.9858 118.252 44.3745 114.48 42.866 110.984C42.1728 109.378 41.5778 107.643 40.732 106.112C40.5008 105.694 40.277 105.292 39.8487 105.054L39.7101 105.144C39.5504 105.705 39.7511 106.377 39.933 106.913C40.4586 108.461 41.2804 109.922 41.9633 111.406C43.2222 114.195 44.5127 116.97 45.8343 119.73C46.4413 120.973 47.3873 122.465 47.7506 123.779C48.0972 125.034 48.1412 147.405 47.9387 148.114C47.8907 148.282 47.6847 148.535 47.5892 148.693C46.9262 145.958 46.7425 143.095 46.1686 140.328C44.2139 130.903 41.6882 121.666 38.078 112.727C36.837 109.654 35.528 106.532 33.7291 103.739C31.7557 100.675 29.127 97.7646 25.4319 96.9729Z" fill="#6556FE"/>
<path d="M216.056 158.528C215.584 156.758 214.489 155.007 213.828 153.277C211.979 148.432 210.344 143.267 209.275 138.194C206.761 126.267 207.609 114.948 215.757 105.231C218.78 101.628 222.311 98.5056 225.073 94.671C227.839 90.8313 228.91 86.1113 231.485 82.233C232.437 80.7998 233.75 79.559 235.503 79.2602C240.268 78.4481 241.935 83.6284 243.576 86.9369C244.258 88.313 245.096 89.7465 246.115 90.9028C248.63 93.7549 252.055 95.6011 255.168 97.707C252.987 100.019 251.063 102.406 249.414 105.134C247.42 108.432 245.953 112.048 244.713 115.688C240.432 128.265 239.539 141.395 239.925 154.596C239.993 156.92 240.048 159.252 240.232 161.57C238.771 161.154 237.213 160.744 235.709 160.519L235.572 122.058C235.564 119.525 235.896 108.101 235.322 106.439C234.992 106.317 235.022 106.367 234.712 106.481C234.259 107.231 234.557 126.369 234.558 128.782C233.863 127.279 228.872 117.296 227.929 116.85C227.593 117.189 227.606 117.596 227.74 118.036C227.995 118.872 228.768 119.883 229.191 120.675C230.718 123.534 233.118 127.577 234.222 130.469C234.449 131.063 234.573 131.654 234.621 132.289C234.831 135.074 234.628 138.017 234.602 140.815C234.57 145.541 234.562 150.267 234.577 154.993C233.309 152.849 231.823 150.803 230.465 148.713C229.36 147.011 227.569 143.694 226.221 142.408C225.894 142.431 225.908 142.434 225.677 142.669C225.644 143.004 225.687 143.241 225.84 143.545C226.536 144.924 227.619 146.259 228.48 147.55C230.504 150.586 232.491 153.606 234.648 156.554L234.603 160.269C230.398 159.577 226.211 159.141 221.962 158.849C220.058 158.718 217.908 158.883 216.056 158.528Z" fill="#6556FE"/>
<path d="M169.094 91.0041C169.084 90.0602 168.845 88.0451 169.443 87.2661C169.535 87.2939 169.713 87.3417 169.791 87.3918C170.297 87.7155 170.117 90.3619 170.128 91.0214C171.037 91.0006 172.024 90.9071 172.923 91.065C173.314 91.1339 173.709 91.1796 173.947 91.5051C173.075 92.1812 171.21 91.9721 170.143 91.9519C170.066 94.1433 169.871 98.9386 170.33 100.907C170.445 101.4 170.597 101.777 171.058 102.03C172.003 102.548 173.173 102.086 174.124 101.818L174.231 101.938C174.27 102.124 174.381 102.316 174.252 102.478C173.951 102.855 173.263 103.05 172.798 103.087C171.928 103.157 170.811 103.182 170.144 102.545C168.415 100.893 169.058 94.3023 169.078 91.9182C168.777 91.9199 168.477 91.9167 168.176 91.9082C167.678 91.8903 167.417 91.8112 167.075 91.4418L167.214 91.2062C167.826 90.8878 168.426 90.9757 169.094 91.0041Z" fill="#1C1741"/>
<path d="M122.716 102.222C123.558 101.973 124.006 101.499 124.751 101.132C125.068 100.977 125.099 100.99 125.417 101.096C125.628 101.389 125.634 101.39 125.616 101.749C125.013 102.371 123.948 102.917 123.125 103.143C121.577 103.568 119.668 103.516 118.259 102.674C116.874 101.846 115.879 100.291 115.483 98.7521C115.032 97.0024 115.236 95.1019 116.191 93.5524C117.114 92.0562 118.422 91.2497 120.1 90.8431C120.182 90.8363 120.263 90.8284 120.345 90.8231C121.757 90.7285 123.244 91.202 124.284 92.169C125.761 93.5416 126.04 95.4348 126.1 97.3396C122.811 97.381 119.521 97.3525 116.234 97.2541C116.531 98.9173 116.984 100.461 118.422 101.513C119.722 102.464 121.195 102.489 122.716 102.222ZM120.829 91.7369C119.108 92.0138 117.883 92.9149 116.876 94.3174C116.528 94.8025 116.312 95.1966 116.305 95.7983C116.465 96.1095 116.486 96.1874 116.78 96.3652C118.078 96.4229 119.37 96.3351 120.667 96.3652C122.188 96.3869 123.716 96.4399 125.237 96.3928C124.819 94.7973 124.276 93.2674 122.79 92.3554C122.171 91.9751 121.544 91.8119 120.829 91.7369Z" fill="#1C1741"/>
<path d="M148.012 102.162C148.835 101.862 149.549 101.414 150.344 101.094C150.731 100.939 150.831 101.087 151.174 101.277C151.144 101.345 151.122 101.418 151.083 101.482C150.575 102.328 149.083 102.875 148.167 103.116C146.497 103.556 144.65 103.529 143.139 102.613C141.674 101.732 140.633 100.29 140.259 98.6212C139.873 96.8273 140.246 94.9538 141.289 93.4444C142.322 91.9731 143.708 91.195 145.446 90.8534C146.824 90.7963 148.166 91.1636 149.246 92.0396C150.921 93.399 151.379 95.2796 151.549 97.3204C150 97.3239 142.015 97.069 141.317 97.6456C141.21 97.8846 141.191 98.0516 141.236 98.3059C141.472 99.6433 142.608 100.985 143.709 101.72C145.089 102.64 146.467 102.503 148.012 102.162ZM144.922 91.8703C143.339 92.5708 142.121 93.5344 141.504 95.2139C141.359 95.6065 141.275 96.0199 141.191 96.4283C143.07 96.4719 144.949 96.4851 146.828 96.4681C148.085 96.4813 149.384 96.5639 150.635 96.452C150.196 94.8176 149.612 93.3011 148.056 92.4126C147.041 91.8331 146.058 91.7801 144.922 91.8703Z" fill="#1C1741"/>
<path d="M181.411 103.166C180.291 103.202 179.181 103.175 178.094 102.871C177.215 102.626 176.329 102.159 175.865 101.343C176.224 100.857 178.873 102.065 179.513 102.184C180.203 102.312 181.088 102.198 181.783 102.071C182.658 101.912 183.223 101.647 183.711 100.878C183.999 100.425 184.258 99.8 184.076 99.2612C183.488 97.5242 179.128 97.4304 177.57 96.5846C176.973 96.2606 176.409 95.784 176.234 95.1007C176.024 94.2834 176.204 93.263 176.665 92.561C177.399 91.443 178.664 91.0812 179.9 90.8527C181.008 90.7475 182.232 90.877 183.291 91.2227C183.785 91.3836 184.66 91.6965 184.86 92.2235C184.998 92.5874 184.995 92.6773 184.842 93.0063C184.15 93.159 181.566 91.3877 179.106 91.8875C178.447 92.0217 177.92 92.3703 177.585 92.9591C177.308 93.4437 177.066 94.2397 177.274 94.7902C178.046 96.8325 181.965 96.2902 183.644 97.298C184.306 97.6956 184.84 98.4192 185.022 99.1698C185.209 99.9412 185.016 100.712 184.602 101.375C183.858 102.568 182.702 102.897 181.411 103.166Z" fill="#1C1741"/>
<path d="M138.343 92.6145C136.867 96.1293 135.5 99.9643 133.674 103.302C133.373 103.454 133.42 103.402 133.123 103.305C132.296 102.437 129.929 96.3651 129.209 94.7881C128.777 93.8418 127.914 92.6186 127.655 91.6636C127.549 91.2745 127.708 91.1717 127.924 90.8726C127.992 90.8931 128.062 90.9098 128.13 90.9341C128.412 91.0363 128.538 91.1163 128.713 91.3627C129.365 92.2756 129.793 93.606 130.243 94.6337C131.284 96.9909 132.304 99.3575 133.302 101.733C134.135 99.9622 137.273 91.5977 138.438 90.8726L138.586 90.9306C138.789 91.5051 138.546 92.079 138.343 92.6145Z" fill="#1C1741"/>
<path d="M163.023 94.9338C162.934 94.6013 162.822 94.3007 162.673 93.9896C162.249 93.1022 161.599 92.2933 160.628 91.9892C159.643 91.6801 158.282 91.8585 157.396 92.382C154.048 94.3596 156.192 100.136 155.269 102.747C155.222 102.88 155.143 103.067 155.013 103.13L154.784 103.002C154.579 102.547 154.494 102.168 154.456 101.669C154.365 100.464 154.484 99.1906 154.489 97.976C154.497 95.6785 154.29 93.1555 154.622 90.8952C154.776 90.9348 155.065 90.9843 155.211 91.0693C155.755 91.3845 155.514 92.2233 155.665 92.7802C156.842 91.9074 157.635 90.9644 159.21 90.8317C160.49 90.7236 161.779 91.3107 162.698 92.1802C164.644 94.0221 164.191 97.9206 164.182 100.413C164.179 101.241 164.223 102.545 163.599 103.166L163.4 103.019C162.672 100.948 163.092 97.2547 163.023 94.9338Z" fill="#1C1741"/>
<path d="M255.168 97.7072C259.642 93.6367 264.86 91.3017 270.992 91.5988C277.715 91.9246 283.338 95.434 287.759 100.351C293.76 107.025 297.34 116.919 298.79 125.705C299.273 128.628 299.312 131.789 300 134.646V157.548C299.326 160.708 299.37 164.067 298.846 167.27C297.164 177.529 294.902 188.624 291.571 198.475C293.903 202.208 295.904 206.14 297.548 210.224C298.389 212.367 298.963 214.796 300 216.834V220.675C297.018 210.516 293.168 201.19 286.67 192.72C271.312 172.698 248.16 161.581 223.24 159.741C218.133 159.364 213.055 159.306 207.937 159.288C205.405 159.28 202.672 159.542 200.174 159.192C199.93 159.158 199.96 159.109 199.822 158.922L199.922 158.575C200.026 158.513 200.12 158.424 200.236 158.388C200.543 158.293 214.594 158.514 216.056 158.528C217.908 158.883 220.058 158.718 221.962 158.849C226.211 159.141 230.398 159.577 234.603 160.269L235.709 160.519C237.213 160.744 238.771 161.154 240.232 161.57C240.048 159.252 239.993 156.92 239.925 154.596C239.539 141.395 240.432 128.266 244.713 115.688C245.953 112.048 247.42 108.432 249.414 105.135C251.063 102.406 252.987 100.02 255.168 97.7072ZM271.186 110.637C270.862 115.207 271.134 119.963 271.138 124.55L271.162 150.339L265.337 139.513C264.351 137.701 263.445 135.501 262.093 133.936L261.83 133.905C261.698 134.086 261.6 134.127 261.632 134.368C261.77 135.4 262.789 136.847 263.298 137.79C264.698 140.384 270.615 150.634 271.04 152.787C271.751 156.387 270.454 174.419 271.454 175.935L271.789 176.101L272.057 175.988C272.56 174.409 271.965 171.715 272.246 169.892C272.535 168.017 277.655 160.711 278.971 158.576C279.842 157.211 284.776 149.974 284.881 148.825L284.648 148.668C283.991 148.796 283.656 149.451 283.309 149.965C280.658 153.897 278.179 157.964 275.665 161.985C274.519 163.818 273.427 165.755 272.169 167.508C272.036 159.664 272.188 151.809 272.154 143.963C272.145 141.769 271.783 134.942 272.174 133.256C272.387 132.337 273.244 131.254 273.741 130.42C274.7 128.809 279.482 121.271 279.293 119.991L278.987 119.793C278.622 119.881 278.502 119.996 278.303 120.32C277.535 121.568 276.913 122.947 276.175 124.222C274.767 126.655 273.199 129.076 272.033 131.636L272.094 117.19C272.096 115.413 272.369 112.555 271.966 110.95C271.702 110.765 271.499 110.707 271.186 110.637Z" fill="#1C1741"/>
<path d="M120.666 96.3654C119.37 96.3352 118.078 96.4231 116.78 96.3654C116.486 96.1876 116.465 96.1096 116.305 95.7985C116.312 95.1967 116.528 94.8027 116.876 94.3175C117.883 92.9151 119.108 92.0139 120.828 91.7371C121.544 91.8121 122.171 91.9752 122.79 92.3555C124.276 93.2675 124.819 94.7974 125.236 96.3929C123.716 96.4401 122.188 96.3871 120.666 96.3654Z" fill="#F8F7FE"/>
<path d="M141.191 96.4284C141.275 96.02 141.359 95.6066 141.504 95.214C142.121 93.5344 143.339 92.5709 144.922 91.8704C146.058 91.7801 147.041 91.8332 148.056 92.4126C149.612 93.3012 150.196 94.8176 150.635 96.4521C149.384 96.564 148.085 96.4814 146.828 96.4682C144.949 96.4852 143.07 96.472 141.191 96.4284Z" fill="#F8F7FE"/>
<path d="M0 164.729C0.50037 162.665 0.399103 159.263 0.540659 157.031C1.49893 141.92 5.98154 109.653 17.6894 99.4947C19.9253 97.5547 22.4999 96.7435 25.4319 96.9729C29.1271 97.7645 31.7558 100.675 33.7292 103.739C35.528 106.532 36.837 109.654 38.078 112.727C41.6883 121.665 44.214 130.903 46.1687 140.328C46.7426 143.095 46.9263 145.958 47.5893 148.693C47.7823 149.667 47.9294 150.624 47.9774 151.617C48.0592 153.303 47.8107 163.249 48.4916 163.872L48.593 163.892C53.2661 161.141 64.314 159.018 69.815 158.238C72.0891 157.906 86.5532 156.42 88.3793 156.932C88.5677 157.208 88.5797 157.121 88.5258 157.489C87.8886 157.874 73.6242 158.582 71.4536 158.874C40.8226 162.996 18.6568 179.409 5.39253 207.219C3.60199 210.974 2.29953 214.817 0.847664 218.703L0 217.056V164.729ZM24.0699 112.555C23.7777 116.473 24.0169 120.533 24.0322 124.468C24.0629 132.399 24.1407 140.363 23.9939 148.291C21.7414 145.027 19.7378 141.596 17.7525 138.166C16.7487 136.431 15.7737 134.414 14.5761 132.813C14.2567 132.386 14.1233 132.247 13.6174 132.097L13.4394 132.166C13.316 132.605 13.557 133.011 13.7656 133.387C16.95 139.134 20.5991 144.694 24.0072 150.314L24.1006 168.896C24.1088 172.07 23.9672 175.283 24.1223 178.452C22.4455 175.694 16.149 165.029 14.5704 163.718C14.2552 163.789 14.2062 163.803 13.974 164.025C14.3607 165.456 18.3904 170.958 19.4751 172.68C20.6471 174.542 21.6738 176.506 22.8985 178.332C23.1891 178.765 23.4702 179.154 23.8741 179.492C24.0659 179.195 24.1494 179.036 24.1675 178.68L24.3499 178.538L24.7592 178.695C25.372 177.881 24.993 167.042 25.0324 165.153C28.3124 160.83 31.3506 156.369 34.4827 151.942C35.659 150.28 37.8636 147.583 38.7832 145.955C38.9133 145.724 38.9643 145.483 38.9139 145.221C38.9045 145.172 38.8852 145.126 38.8708 145.078L38.6517 144.964C37.6925 145.337 26.6455 161.405 25.0149 163.6C24.9128 153.095 24.9243 142.59 25.0492 132.085C26.1686 130.248 32.2107 120.459 31.9834 119.288C31.427 119.379 31.0688 119.894 30.7541 120.335C30.1201 121.225 29.649 122.267 29.1188 123.222C27.8483 125.51 26.5185 128 24.9567 130.101C25.0803 126.66 24.9532 123.193 24.9453 119.749C24.9402 117.521 25.1444 115.107 24.8819 112.901C24.6263 112.672 24.3985 112.633 24.0699 112.555Z" fill="#1C1741"/>
<path d="M105.939 149.635C103.656 148.103 101.366 146.576 99.3876 144.654L99.4008 144.225L99.1808 144.253L99.2511 144.476L99.3894 144.215C99.8783 144.242 100.463 144.589 100.866 144.842C101.485 145.232 102.001 145.794 102.593 146.226C104.125 147.343 105.734 148.419 107.336 149.432C109.11 150.553 111.013 151.554 112.881 152.508C118.298 155.273 125.463 157.266 131.504 158.022C145.71 159.802 162.186 156.3 174.732 149.501C178.92 147.23 182.81 144.371 186.562 141.451C186.864 141.688 186.91 141.669 186.971 142.041C186.172 143.386 182.241 145.822 180.797 146.801C181.166 148.632 182.437 153.547 181.592 155.106C181.394 155.241 181.309 155.351 181.057 155.358C179.314 155.408 175.951 151.77 174.638 150.546C172.509 151.384 170.44 152.563 168.341 153.504C168.58 155.772 168.745 158.272 168.568 160.545C168.505 161.358 168.391 162.214 167.744 162.774C167.472 162.844 167.369 162.906 167.087 162.834C165.284 162.373 162.746 157.444 161.84 155.744C159.595 156.356 157.344 156.947 155.089 157.517C154.831 159.078 154.128 164.953 152.831 165.747C152.506 165.946 152.236 165.916 151.898 165.777C150.392 165.154 148.536 160.282 147.901 158.692C145.539 159.099 143.089 159.135 140.696 159.258C140.28 160.834 139.018 165.802 137.499 166.555C137.177 166.715 136.901 166.775 136.567 166.602C135.083 165.834 134.109 160.735 133.714 159.114C131.16 158.919 128.623 158.535 126.126 157.963C124.979 160.049 123.724 162.564 121.971 164.205C121.574 164.577 121.29 164.707 120.747 164.682C119.166 163.718 119.452 157.752 118.894 155.955L118.603 155.822C116.07 154.879 113.579 153.827 111.137 152.667C109.78 154.33 108.568 155.8 106.688 156.873C106.146 156.893 105.383 156.99 104.86 156.846C104.485 156.743 104.342 156.62 104.192 156.263C103.65 154.967 105.364 150.874 105.939 149.635ZM167.239 153.961C165.711 154.563 164.118 155.13 162.523 155.529C163.436 157.096 164.319 158.733 165.431 160.17C166.03 160.901 166.676 161.526 167.373 162.161C167.639 160.58 168.17 155.412 167.514 154.007L167.239 153.961ZM119.854 156.236C120.084 158.801 120.221 161.387 120.875 163.888C121.69 163.204 122.344 162.496 122.981 161.643C123.875 160.455 124.555 159.131 125.267 157.83C123.437 157.37 121.608 156.941 119.854 156.236ZM153.446 157.8C151.863 158.125 150.289 158.361 148.687 158.566C149.443 160.429 150.253 162.194 151.31 163.911C151.673 164.404 152.023 164.914 152.411 165.387C153.033 163.785 154.513 159.439 154.067 157.835C153.795 157.757 153.715 157.763 153.446 157.8Z" fill="#1C1741"/>
<path d="M162.523 155.529C164.118 155.13 165.711 154.563 167.239 153.961L167.514 154.007C168.17 155.412 167.639 160.58 167.373 162.16C166.676 161.526 166.03 160.9 165.431 160.17C164.319 158.733 163.436 157.096 162.523 155.529Z" fill="#6556FE"/>
<path d="M120.875 163.888C120.221 161.387 120.084 158.801 119.854 156.236C121.608 156.941 123.437 157.37 125.267 157.83C124.555 159.131 123.875 160.455 122.981 161.643C122.344 162.496 121.69 163.204 120.875 163.888Z" fill="#6556FE"/>
<path d="M148.687 158.566C150.289 158.36 151.863 158.125 153.446 157.8C153.715 157.763 153.795 157.757 154.067 157.835C154.513 159.439 153.033 163.784 152.411 165.387C152.023 164.914 151.673 164.404 151.311 163.911C150.253 162.194 149.443 160.429 148.687 158.566Z" fill="#6556FE"/>
<path d="M111.329 166.44C110.46 165.872 109.576 165.38 108.653 164.904C109.115 164.446 109.523 164.058 109.821 163.468L109.797 163.138L109.611 163.086C108.789 163.753 107.971 164.669 107.055 165.172C106.733 165.78 106.437 166.431 106.042 166.993L105.868 166.617L105.719 166.684C104.02 168.646 102.277 172.295 100.246 173.652C101.527 174.773 102.717 175.526 104.299 176.159C104.494 173.855 104.279 171.266 105.088 169.078C105.554 169.812 104.993 176.25 105.029 177.674C107.529 177.94 110.16 177.612 112.681 177.653C112.568 175.625 112.276 173.347 112.577 171.339C112.935 172.467 113.215 173.599 113.308 174.783L113.21 175.176C112.963 174.886 113.082 173.558 112.879 173.495C112.605 174.926 113.113 176.349 112.859 177.71C112.055 178.248 104.986 177.705 104.8 177.827C104.47 178.043 105.125 178.248 104.366 178.386L103.915 178.23C103.969 177.993 104.157 177.512 104.041 177.299C103.662 176.6 102.192 176.158 101.501 175.782C100.066 174.999 99.2344 173.14 97.7605 172.46C97.2378 172.658 96.9563 173.114 96.4805 173.393C95.1411 174.179 93.0006 174.628 91.9726 175.797C91.8554 176.753 91.9673 177.751 91.1127 178.396C89.9119 179.302 88.0002 179.205 86.5656 179.234L85.4778 179.284C84.1462 179.245 83.2082 177.962 82.0867 177.415C81.7694 177.261 81.7489 177.235 81.409 177.361L81.2397 177.927L80.9792 177.807C81.0302 176.291 81.8256 173.744 82.8425 172.624L83.0628 172.652C83.4384 173.848 81.7307 175.162 82.0134 176.107L82.2953 175.992C83.0813 176.36 83.4838 177.498 84.2775 177.999C85.0287 178.474 85.9541 178.523 86.7994 178.322C86.884 178.098 86.906 178.044 87.0879 177.874C87.1495 178.189 87.1225 178.212 87.3469 178.469C87.4835 178.255 87.5133 178.077 87.7665 178.009L87.922 178.312C88.2481 178.364 88.5323 178.371 88.8619 178.332C90.155 178.181 90.7471 177.452 91.5068 176.501L90.4703 175.264C92.6215 174.421 95.3751 173.324 97.0386 171.676L96.8362 171.624L96.7621 171.475L97.0706 171.086L97.3644 171.071C98.0069 171.399 98.4923 172.029 99.0006 172.537C99.395 172.931 99.6677 173.244 100.248 173.244L100.472 173.009C99.7908 172.249 98.7569 171.875 98.3192 170.867L98.4835 170.591C98.7493 170.658 98.9271 171.039 99.0882 171.262C99.1764 171.12 99.1442 170.916 99.078 170.764C98.93 170.422 98.7405 170.334 98.4311 170.188C98.0394 170.35 98.0625 170.51 97.8967 170.877L97.6653 170.76L97.5496 170.339C97.6457 170.134 97.6448 170.023 97.8613 169.916C98.1698 169.765 98.5694 169.73 98.8937 169.862C99.4351 170.082 99.6346 170.695 99.8113 171.199C100.002 171.743 100.182 171.943 100.631 172.326C100.68 172.368 100.729 172.408 100.779 172.449C102.296 169.968 103.804 167.588 105.827 165.474C103.798 164.171 103.881 162.997 102.921 161.038L102.835 160.867C103.273 160.323 103.726 159.831 104.258 159.379C104.945 158.793 105.815 158.387 106.736 158.485C107.606 158.577 108.77 159.404 109.043 160.256C109.161 160.625 109.142 161.118 109.316 161.456C109.545 161.901 110.187 162.067 110.454 162.52C110.744 163.014 110.676 163.939 110.424 164.428C110.333 164.606 110.218 164.784 110.12 164.962C111.05 165.996 112.362 166.07 113.041 167.491L112.841 167.524C112.687 167.323 112.533 167.112 112.357 166.929C111.976 166.532 111.877 166.456 111.329 166.44ZM105.575 159.495C104.929 159.939 104.146 160.362 104.034 161.224C103.919 162.1 104.741 162.898 105.273 163.487L105.253 163.544L104.561 163.529C104.701 163.892 105.217 164.232 105.568 164.406C105.939 164.59 106.423 164.505 106.821 164.462C107.549 163.957 108.279 163.267 108.46 162.366C108.589 161.722 108.362 161.204 108.107 160.625C107.432 160.172 107.18 159.973 106.347 159.904L106.09 160.033C105.8 159.864 105.751 159.77 105.575 159.495Z" fill="#1C1741"/>
<path d="M83.6728 166.329C82.7757 165.69 82.1482 164.936 81.9232 163.826C81.7658 163.051 81.8854 162.226 82.3453 161.572C82.9096 160.768 83.6707 160.479 84.5991 160.293C85.0767 160.316 85.6178 160.313 86.0704 160.479C86.7747 160.736 87.3976 161.309 87.7049 161.992C88.0658 162.796 88.0468 163.745 87.6982 164.549C87.1732 165.759 86.4158 165.989 85.2624 166.42C86.6581 169.117 88.1426 171.796 87.7576 174.956L87.7398 174.856L87.5821 174.918C87.2218 173.977 87.0826 172.885 86.8093 171.908C86.4437 170.602 85.2759 167.33 84.3179 166.416C84.1064 166.655 84.1576 166.548 84.0744 166.766C83.7179 167.7 82.6111 168.346 81.9202 169.054C79.3758 171.664 79.1736 175.752 78.5874 179.163C78.3692 180.621 78.5168 184.214 78.0003 185.145C77.8858 185.352 77.7703 185.435 77.5201 185.452C77.1296 185.48 76.8314 185.321 76.5264 185.101C76.3989 184.782 76.2779 184.61 76.3251 184.261C76.6512 184.277 76.9248 184.373 77.2354 184.465L77.4782 184.301C77.5181 184.117 77.5371 184.066 77.5406 183.86C77.5471 183.489 77.4097 183.18 77.1445 182.929C76.8009 182.925 76.7795 182.956 76.4936 183.155L76.515 183.366C76.8038 183.527 77.0965 183.68 77.393 183.827C77.17 183.995 76.9556 183.969 76.6828 184.004C76.2864 183.846 76.2243 183.818 75.9677 183.482C75.9191 183.068 75.927 183.008 76.0992 182.629C76.3738 182.399 76.5208 182.298 76.8809 182.24C77.0742 182.209 77.3016 182.207 77.4343 182.026C77.5954 181.807 77.6698 180.459 77.7226 180.108C78.1849 177.038 78.5391 172.059 80.3329 169.518C81.2142 168.269 82.5117 167.306 83.6728 166.329ZM83.7741 161.312C83.0971 161.709 82.7734 162.072 82.5595 162.84C82.3951 163.429 82.4889 164.006 82.8237 164.519C83.1774 165.06 83.7982 165.459 84.4357 165.567C85.1162 165.682 85.8864 165.469 86.5116 165.209C86.7492 164.411 86.7404 162.899 86.3145 162.164C86.1914 161.951 86.1627 161.89 85.9207 161.828L85.7511 162.705L85.5519 162.7L85.3904 162.457C85.4766 162.158 85.5642 161.861 85.6606 161.566C85.1159 161.126 84.4365 161.255 83.7741 161.312Z" fill="#1C1741"/>
<path d="M191.89 170.432C195.952 168.193 197.412 165.998 199.437 161.934C199.881 162.208 201.715 165.559 202.294 166.297C203.741 168.139 205.35 169.329 207.404 170.429C205.167 171.46 203.154 171.619 200.721 171.507C200.92 171.864 201.129 172.216 201.347 172.562C204.25 177.153 206.358 179.311 211.713 180.539C208.184 183.619 203.743 183.489 199.329 183.574C195.032 183.547 190.388 183.375 187.09 180.232C187.692 180.11 188.297 179.988 188.892 179.836C193.405 178.685 196.184 175.328 198.413 171.493C195.974 171.638 194.083 171.693 191.89 170.432Z" fill="#6556FE"/>
<path d="M111.329 166.44C111.877 166.456 111.976 166.532 112.357 166.929C112.533 167.113 112.687 167.323 112.841 167.524L113.041 167.491C115.552 170.074 116.463 174.938 116.428 178.4C116.403 180.917 115.691 183.121 114.747 185.425C115.346 189.027 115.845 192.582 116.012 196.234C115.439 196.295 114.81 196.309 114.273 196.528L114.118 196.732L113.726 196.638C113.338 196.313 112.067 196.444 111.541 196.457C111.5 197.709 111.486 198.744 110.523 199.668C110.392 199.796 110.255 199.917 110.112 200.031L109.847 199.734C110.188 199.265 110.493 198.789 110.765 198.276C111.118 197.608 111.173 197.051 110.958 196.329L110.748 196.429C110.164 196.404 109.577 196.391 108.994 196.344C108.961 192.9 108.993 189.457 109.09 186.014C109.127 184.352 109.32 182.549 109.213 180.898C109.188 180.499 109.167 180.246 108.905 179.931C108.673 179.978 108.633 179.933 108.507 180.099C107.97 180.804 107.607 193.935 107.142 196.413C106.582 196.416 106.039 196.329 105.544 196.601C105.453 196.855 105.407 197.074 105.377 197.341C105.321 197.023 105.331 196.787 105.121 196.532L104.696 196.712C104.615 196.67 104.533 196.631 104.454 196.587C104.414 196.565 104.382 196.533 104.342 196.512C104.069 196.367 103.628 196.335 103.341 196.439C103.134 196.514 103.094 196.706 103.024 196.904C102.833 197.45 102.778 197.858 102.451 198.357C102.326 198.3 102.413 198.327 102.178 198.351L101.893 198.813L101.804 198.755L101.972 198.658L101.838 198.609C102.03 198.222 102.341 197.72 102.365 197.284C102.368 197.218 102.367 197.151 102.368 197.084L102.18 196.536C101.777 196.22 101.174 196.288 100.68 196.277C101.02 193.457 101.556 190.649 102.032 187.849C102.577 184.638 103.061 181.377 103.915 178.23L104.366 178.386C105.125 178.248 104.47 178.043 104.8 177.827C104.986 177.705 112.055 178.248 112.859 177.71C113.113 176.349 112.605 174.926 112.879 173.495C113.082 173.558 112.963 174.886 113.21 175.176L113.308 174.783C113.714 176.084 114.242 182.183 114.477 184.021C114.994 182.671 115.373 181.309 115.531 179.869C116.077 174.875 114.416 170.301 111.329 166.44Z" fill="#1C1741"/>
<path d="M105.719 166.684L105.868 166.617L106.041 166.993C106.202 167.56 106.492 167.908 107.012 168.223C107.805 168.705 108.866 168.597 109.712 168.33C110.457 168.095 110.931 167.518 111.457 166.972C111.913 168.415 112.139 169.903 112.576 171.339C112.276 173.347 112.568 175.625 112.681 177.653C110.16 177.612 107.529 177.94 105.029 177.674C104.993 176.25 105.554 169.812 105.088 169.078C105.186 168.751 105.367 168.415 105.503 168.1C105.744 167.544 105.811 167.292 105.719 166.684Z" fill="#6556FE"/>
<path d="M177.162 171.299C176.808 173.568 176.164 175.819 175.594 178.044C174.215 183.428 172.757 189.248 170.221 194.228C169.617 195.414 168.655 197.104 167.297 197.484C166.691 197.654 166.142 197.519 165.611 197.205C161.213 194.601 157.942 184.899 156.573 180.091C155.595 176.658 154.92 173.175 154.058 169.718C154.353 169.199 156.831 169.854 157.424 169.941C161.65 170.559 173.581 170.968 177.355 169.849C177.399 169.835 177.443 169.821 177.487 169.807C177.319 170.313 177.21 170.768 177.162 171.299Z" fill="#1C1741"/>
<path d="M177.487 169.807L177.71 169.928C178.138 171.386 178.603 172.854 178.95 174.333C179.014 176.577 179.685 179.054 180.073 181.28C181.062 186.959 181.85 193.002 183.578 198.504C180.929 198.407 178.25 198.485 175.597 198.482C175.608 196.263 175.915 193.99 176.09 191.775C176.337 188.565 176.549 185.352 176.727 182.137C176.842 180.291 177.189 177.993 176.828 176.178C176.798 174.603 177.622 172.99 177.349 171.382L177.162 171.299C177.21 170.768 177.319 170.313 177.487 169.807Z" fill="#6556FE"/>
<path d="M153.282 172.011L153.823 169.619C153.748 172.774 154.878 175.627 155.483 178.675C155.357 180.134 155.658 181.686 155.748 183.148C156.062 188.264 156.657 193.365 156.948 198.478L149.515 198.447C150.952 189.984 152.93 180.689 153.439 172.12L153.282 172.011Z" fill="#6556FE"/>
<path d="M153.282 172.011L153.439 172.12C152.93 180.689 150.952 189.984 149.515 198.447C147.117 198.444 144.699 198.506 142.306 198.373C148.927 188.996 149.805 182.472 153.282 172.011Z" fill="#1C1741"/>
<path d="M52.7238 180.048C52.7388 178.412 52.2246 176.191 52.8984 174.685C53.066 174.513 53.1888 174.403 53.4337 174.346C54.5991 174.075 55.8108 175.41 56.7088 175.984L56.7847 175.866L56.5723 175.399L56.678 175.204C57.8396 174.52 59.0098 173.955 60.3173 173.611C60.658 173.619 61.0184 173.614 61.3102 173.821C62.4765 174.645 62.0502 178.403 62.2099 179.793L62.2345 179.997C63.1699 180.031 64.1988 179.905 65.1196 180.033C65.5189 180.088 65.5983 180.214 65.8532 180.494L65.7826 180.741C64.6696 181.373 60.2479 181.057 58.7282 181.059C58.6409 184.709 58.73 188.38 58.7429 192.032C59.4905 192.056 60.2812 192.103 61.0163 192.246C62.3086 192.497 63.2109 193.084 63.8871 194.232C64.1707 194.713 64.4039 195.5 64.2442 196.05C64.1751 196.29 64.0764 196.28 63.8769 196.391C63.5566 196.074 63.5177 195.714 63.3932 195.284C63.2517 194.795 63.1011 194.423 62.7419 194.043C61.747 192.992 60.0636 192.987 58.7241 192.926C58.7224 193.866 58.9069 195.405 58.2387 196.114L57.9911 196.066C57.6642 195.135 58.1145 193.842 57.7418 193.01C57.7228 192.968 57.6932 192.931 57.6688 192.891C57.1825 192.925 56.7009 192.973 56.221 193.061C53.3279 193.592 54.3583 194.499 53.0886 196.308L52.8938 196.291C52.7256 196.038 52.6901 195.784 52.6617 195.487C52.5888 194.723 52.8961 194.175 53.3865 193.605C54.5013 192.308 56.255 192.108 57.8549 191.986L57.8476 181.073C56.8315 181.061 51.7274 181.256 51.1049 181.038C50.707 180.898 50.6865 180.835 50.5181 180.478L50.6215 180.213C51.2552 179.93 52.0403 180.037 52.7238 180.048ZM57.2895 175.759C57.2443 176.922 56.8128 178.675 57.4802 179.67C57.9369 179.998 58.3146 180.02 58.8533 179.92C58.9266 179.907 58.9995 179.891 59.0725 179.876C59.5137 178.672 59.5125 177.566 59.349 176.312C58.6603 176.07 58.0148 175.876 57.2895 175.759Z" fill="#1C1741"/>
<path d="M183.578 198.504C181.85 193.002 181.062 186.959 180.073 181.281C179.685 179.054 179.014 176.577 178.95 174.333C180.621 178.786 181.882 183.335 183.863 187.68C185.598 191.485 187.862 194.917 190.028 198.471C187.879 198.512 185.727 198.58 183.578 198.504Z" fill="#1C1741"/>
<path d="M85.1329 177.27C85.7696 176.518 86.3737 175.854 87.2019 175.307C87.8895 175.305 88.5018 175.527 89.0827 175.878L89.129 176.102L88.8873 176.296C88.5762 176.32 88.2996 176.329 88.0075 176.448C87.7852 176.538 87.6633 176.525 87.428 176.504L87.1275 176.592C87.0779 176.574 87.0305 176.549 86.9792 176.537C86.6195 176.449 86.2272 176.598 85.9198 176.782C85.6562 176.94 85.3963 177.11 85.1329 177.27Z" fill="#1C1741"/>
<path d="M176.828 176.178C177.189 177.993 176.842 180.291 176.727 182.137C176.549 185.352 176.337 188.565 176.09 191.776C175.915 193.99 175.608 196.263 175.597 198.482C172.934 198.49 170.272 198.482 167.61 198.46C167.701 198.409 167.792 198.356 167.881 198.301C172.368 195.543 175.665 181.244 176.828 176.178Z" fill="#1C1741"/>
<path d="M79.9489 198.668C80.6827 197.319 80.5093 180.88 80.9792 177.807L81.2397 177.927C81.2104 178.744 81.0173 179.709 81.658 180.328C81.7972 180.463 81.8634 180.518 82.0494 180.509C81.9624 180.812 81.8921 181.132 81.7655 181.421C81.3431 182.214 81.6832 183.385 81.9232 184.213C82.1526 185.004 82.5475 186.052 83.1446 186.635L83.4648 186.749L83.6789 186.613C83.7088 186.328 83.6912 186.156 83.6054 185.883L83.7932 185.884L84.0384 185.629C84.0659 185.714 84.0926 185.798 84.1213 185.883C84.2772 186.343 84.4137 186.571 84.8611 186.791C85.1593 186.686 85.1734 186.736 85.3538 186.452C85.176 184.811 84.772 182.256 84.0071 180.808C83.8483 180.507 83.8963 180.674 83.8553 180.366C84.5608 179.877 85.5238 179.967 86.274 179.539C86.0473 179.327 85.7781 179.339 85.4778 179.285L86.5655 179.234C90.1623 183.698 89.9121 191.763 91.4438 197.196C91.9166 198.872 93.2628 200.183 93.7656 201.836L93.7278 202.076C92.0819 202.43 89.8606 202.506 88.2167 202.18C87.9824 201.93 87.9282 201.791 87.9443 201.44C87.9879 200.49 88.5484 199.376 88.887 198.49C88.2674 196.72 86.3195 188.377 85.8862 187.858C85.5413 187.702 85.3623 187.681 84.9859 187.716C84.2385 188.793 83.8509 196.792 82.8156 198.924L82.3629 199.377C82.1956 199.193 82.2261 199.185 82.0017 199.09C81.4483 198.857 80.9745 198.953 80.4238 199.123L79.9489 198.668ZM89.7065 198.762C89.1932 199.612 88.887 200.438 88.6623 201.405L92.1753 201.431L92.623 201.364C92.5975 200.569 91.5639 199.7 91.1534 199.015L89.7065 198.762Z" fill="#1C1741"/>
<path d="M156.948 198.478C156.657 193.365 156.062 188.264 155.748 183.148C155.658 181.686 155.358 180.133 155.483 178.675C157.063 184.719 160.082 194.993 165.686 198.252C165.811 198.324 165.935 198.395 166.061 198.465L156.948 198.478Z" fill="#1C1741"/>
<path d="M251.678 189.01C251.679 187.675 251.711 186.333 251.671 184.999C250.568 184.993 249.399 185.067 248.305 184.948C248.37 183.267 248.608 180.636 249.906 179.427C250.27 179.089 250.595 179.002 251.076 178.927C251.463 179.03 251.755 179.169 251.98 179.514C252.758 180.711 251.917 182.406 252.65 183.55C252.749 183.233 252.799 182.937 252.847 182.611C253.254 182.011 253.867 181.641 254.591 181.536C255.112 181.46 255.581 181.501 256.082 181.652C256.205 181.786 256.334 181.843 256.315 182.043C256.258 182.661 255.364 183.525 254.897 183.863C254.744 183.974 254.582 184.07 254.419 184.165L254.431 184.295C255.16 184.229 255.497 183.269 256.23 183.17L256.403 183.369C256.31 184.347 254.571 185.51 253.893 186.217C254.765 185.946 255.91 185.557 256.778 186.022C257.074 186.181 257.108 186.29 257.245 186.58C257.156 187.461 256.383 188.231 255.727 188.769C254.878 189.465 253.883 189.841 252.868 190.218C255.489 190.366 258.134 190.089 260.758 190.206C261.666 193.051 262.031 196.212 262.567 199.154C263.609 204.867 264.594 210.683 265.891 216.341L270.238 216.351L270.266 211.948C269.105 211.288 268.354 210.551 267.988 209.241C267.456 207.336 267.651 204.787 268.676 203.091C269.124 202.35 269.81 201.654 270.684 201.47C271.265 201.347 271.836 201.504 272.322 201.831C273.444 202.587 273.947 204.124 274.153 205.403C274.421 207.077 274.341 209.127 273.276 210.516C272.652 211.33 272.013 211.744 270.999 211.892C271.019 213.373 271.022 214.854 271.005 216.334C272.309 216.315 275.929 215.893 276.951 216.661C276.993 216.692 277.025 216.734 277.062 216.77C276.867 217.053 276.802 217.036 276.475 217.099C275.406 217.307 274.136 217.159 273.048 217.156C270.528 217.173 268.008 217.168 265.488 217.141C260.684 217.111 255.875 217.148 251.072 217.074C245.158 216.984 239.228 216.728 233.311 216.594C232.92 216.342 232.518 216.557 232.084 216.341L232.209 216.034L233.165 215.888C234.703 215.781 236.349 215.933 237.895 215.968C241.075 216.025 244.254 216.108 247.432 216.217C253.3 216.403 259.171 216.347 265.041 216.342C263.888 210.756 262.844 205.123 261.776 199.52C261.24 196.704 260.808 193.847 260.129 191.062C257.177 190.959 254.201 191.04 251.247 191.043C251.717 190.334 251.778 189.849 251.678 189.01ZM251.598 180.872C251.555 180.922 251.513 180.972 251.469 181.02C250.123 182.527 249.027 181.817 249.067 183.77L249.224 183.755L249.356 183.549C250.154 183.523 250.947 183.792 251.716 183.987C251.778 183.019 251.915 181.804 251.598 180.872ZM253.032 184.506L252.432 184.773C252.247 185.432 252.153 186.108 252.402 186.758L252.584 186.846C252.774 186.609 252.916 186.398 253.048 186.123C253.441 185.689 253.841 185.262 254.249 184.842L254.208 184.646C253.889 184.585 253.593 184.568 253.272 184.538C253.192 184.53 253.112 184.516 253.032 184.506ZM270.692 202.174C270.29 202.455 269.889 202.618 269.704 203.079C269.823 203.411 269.967 203.562 270.22 203.804C270.589 203.628 270.617 203.604 270.766 203.197C270.861 202.936 270.846 202.713 270.838 202.439L270.692 202.174ZM271.217 202.225C271.182 202.655 271.162 203 271.266 203.428C271.669 203.794 271.92 203.767 272.457 203.763C272.333 203.302 272.241 202.802 271.833 202.5C271.666 202.376 271.413 202.297 271.217 202.225ZM269.308 203.68C269.075 204.184 268.833 204.61 268.845 205.174C269.138 205.724 269.393 205.824 269.979 206.005C270.112 206.046 270.246 206.086 270.381 206.124C270.49 205.595 270.616 205.161 270.333 204.658C270.141 204.317 269.636 203.889 269.308 203.68ZM272.892 204.285C272.827 204.329 272.762 204.374 272.696 204.417C272.493 204.548 272.363 204.577 272.127 204.606C271.803 204.646 271.493 204.776 271.279 205.036C271.106 205.248 270.995 205.494 271.036 205.763C271.173 205.922 271.278 206.083 271.465 206.183C272.143 206.033 272.833 205.834 273.216 205.19C273.298 205.051 273.345 204.878 273.393 204.725C273.213 204.503 273.173 204.367 272.892 204.285ZM268.644 206.013C268.568 206.588 268.421 207.167 268.633 207.723C268.969 208.075 269.222 208.099 269.672 208.196L270.32 208.341C270.354 207.856 270.496 207.397 270.166 206.987C269.829 206.57 269.098 206.294 268.644 206.013ZM273.341 206.131C272.813 206.413 271.391 206.768 271.222 207.363C271.128 207.694 271.156 208.018 271.169 208.358C271.883 208.333 272.599 208.321 273.312 208.283C273.345 207.609 273.479 206.789 273.341 206.131ZM268.627 208.74C268.836 209.403 268.975 210.139 269.615 210.522C269.802 210.634 269.995 210.699 270.203 210.754C270.226 210.242 270.333 209.626 270.051 209.18C269.601 208.909 269.137 208.841 268.627 208.74ZM273.017 208.791C272.519 208.949 271.261 209.189 271.047 209.725C270.919 210.046 270.981 210.521 271.148 210.82C271.172 210.862 271.205 210.897 271.233 210.936C271.983 210.665 272.683 210.251 273.009 209.477C273.145 209.153 273.152 209.138 273.034 208.804L273.017 208.791Z" fill="#1C1741"/>
<path d="M225.805 182.651C225.718 181.811 225.613 181.214 226.164 180.5C226.542 180.009 227.119 179.609 227.754 179.572C228.37 179.535 228.962 179.859 229.366 180.305C229.905 180.899 229.706 182.248 230.009 182.421C230.32 182.599 231.198 182.585 231.614 182.725L231.359 183.091C230.295 183.422 229.893 182.35 228.975 182.197C228.634 182.14 228.195 182.603 227.72 182.608C227.459 182.329 227.214 182.04 226.969 181.746L226.769 181.785C226.735 181.91 226.657 182.206 226.604 182.317C226.448 182.64 226.114 182.602 225.805 182.651Z" fill="#1C1741"/>
<path d="M81.7655 181.421C81.8921 181.132 81.9624 180.812 82.0494 180.509C82.4136 180.686 82.8258 180.84 82.9939 181.237C83.2743 181.901 83.3136 182.986 83.4677 183.723C83.6036 184.371 83.8289 185.002 84.0384 185.629L83.7931 185.884L83.6053 185.883C83.0622 184.392 82.5961 182.779 81.7655 181.421Z" fill="#1C1741"/>
<path d="M225.805 182.651C226.114 182.602 226.448 182.641 226.604 182.317C226.657 182.206 226.735 181.91 226.77 181.785L226.969 181.746C227.214 182.04 227.459 182.329 227.72 182.608C228.195 182.603 228.634 182.14 228.975 182.197C229.893 182.35 230.295 183.422 231.359 183.091L231.614 182.725C232.194 183.052 232.631 183.4 232.843 184.057C232.989 184.51 232.969 185.031 232.736 185.452C232.482 185.912 232.148 186.087 231.664 186.255C230.329 185.897 225.353 186.029 223.666 186.067C223.457 185.958 223.516 185.997 223.277 185.825C222.828 185.5 222.586 185.061 222.539 184.507C222.497 184.001 222.704 183.485 223.024 183.102C223.421 182.628 223.919 182.448 224.52 182.396C224.977 182.357 225.282 182.42 225.636 182.706L225.805 182.651Z" fill="#1C1741"/>
<path d="M249.782 186.466C250.381 187.026 250.816 189.103 251.575 189.078L251.678 189.011C251.778 189.849 251.717 190.334 251.247 191.043L197.803 190.995C197.201 197.108 196.417 203.198 195.769 209.306C195.531 211.554 195.22 213.828 195.079 216.083C200.564 216.088 206.14 215.817 211.611 216.091C212.523 216.594 213.846 216.465 214.835 216.299L214.802 216.198C215.107 216.124 214.977 216.098 215.198 216.211L215.147 216.528C215.417 216.578 215.681 216.621 215.953 216.657C216.27 216.698 216.126 216.67 216.451 216.771C213.791 216.868 211.107 216.795 208.444 216.8L194.229 216.797C194.311 214.013 194.753 211.194 195.045 208.421C195.68 202.352 196.375 196.29 197.129 190.235L198.768 190.147C198.768 188.434 198.729 186.708 198.787 184.997C198.802 184.565 198.827 184.195 199.152 183.892C199.918 184.676 199.567 188.965 199.576 190.206C207.139 190.434 214.78 190.203 222.351 190.176C225.424 190.344 228.532 190.306 231.609 190.264C235.371 190.227 239.179 190.408 242.932 190.146C242.884 189.158 242.843 188.173 242.855 187.183C245.086 186.942 247.308 186.859 249.549 186.786L249.782 186.466Z" fill="#1C1741"/>
<path d="M223.666 186.067C225.353 186.029 230.329 185.897 231.664 186.255C231.463 187.521 231.577 188.979 231.609 190.264C228.532 190.306 225.424 190.344 222.351 190.176C222.766 190.184 223.168 190.242 223.539 190.025C223.848 189.541 223.922 189.069 223.856 188.505C223.762 187.695 223.719 186.88 223.666 186.067Z" fill="#6556FE"/>
<path d="M242.855 187.183C242.953 186.966 243.076 186.768 243.197 186.562C243.644 186.279 244.036 186.234 244.553 186.192C245.624 186.105 249.007 185.808 249.782 186.466L249.549 186.786C247.308 186.859 245.086 186.942 242.855 187.183Z" fill="#1C1741"/>
<path d="M110.748 196.429L110.957 196.329C111.173 197.051 111.118 197.608 110.765 198.276C110.493 198.789 110.188 199.265 109.847 199.734L110.112 200.031C111.298 200.102 112.518 200.024 113.706 200.004C113.658 198.894 113.542 197.737 113.726 196.638L114.118 196.732C114.463 197.634 114.117 198.839 114.469 199.654C114.631 200.03 114.991 200.048 115.106 200.54C115.077 200.575 115.053 200.616 115.019 200.647C114.753 200.894 114.332 200.948 113.983 200.97C112.992 201.032 107.644 201.244 107.085 200.74C107.758 199.975 109.448 199.875 110.372 198.597C110.762 198.059 110.943 197.333 110.806 196.678C110.788 196.595 110.767 196.512 110.748 196.429Z" fill="#1C1741"/>
<path d="M104.696 196.712L105.121 196.532C105.331 196.787 105.321 197.023 105.377 197.341C105.618 198.378 105.572 199.619 105.639 200.688C103.819 200.869 101.89 200.849 100.061 200.789C99.7371 200.592 99.6958 200.59 99.5543 200.244C99.9158 199.749 100.55 199.535 101.022 199.147C101.599 198.673 102.003 197.732 102.368 197.084C102.367 197.151 102.368 197.218 102.364 197.284C102.341 197.72 102.03 198.222 101.838 198.609L101.972 198.658L101.804 198.755L101.893 198.813L102.178 198.351C102.413 198.327 102.326 198.3 102.451 198.357C102.116 198.986 101.672 199.445 101.19 199.96L104.754 199.957C104.763 198.872 104.776 197.795 104.696 196.712Z" fill="#1C1741"/>
<path d="M77.8702 201.317C78.4802 200.284 79.0629 199.467 79.9488 198.668L80.4237 199.123C79.7317 199.811 79.2539 200.543 78.8312 201.419C80.1923 201.424 81.5572 201.449 82.9181 201.417L82.3629 199.377L82.8155 198.924C83.1164 199.552 83.4583 200.197 83.6417 200.869C83.7615 201.308 83.78 201.635 83.5389 202.039C82.7177 202.436 75.3021 202.335 73.8905 202.283C73.3503 202.263 72.7087 202.278 72.3252 201.863L72.4304 201.61C73.7112 200.93 76.386 201.313 77.8702 201.317Z" fill="#1C1741"/>
<path d="M31.9154 206.352C31.1044 205.415 29.4046 204.262 28.9698 203.135C28.8784 202.898 29.031 202.758 29.1351 202.547C29.3601 202.626 29.5464 202.73 29.7281 202.885C30.6087 203.633 31.3936 204.566 32.2174 205.384C33.2891 206.448 34.4305 207.414 35.605 208.361C45.6421 216.453 57.2162 221.089 69.8481 223.319C80.6358 225.223 93.1822 224.543 103.618 221.206C110.415 219.033 116.949 215.668 122.985 211.891C125.322 210.428 127.591 208.859 129.786 207.19C130.855 206.372 131.91 205.307 133.038 204.598C133.402 204.369 133.769 204.312 134.178 204.404L134.179 204.635C133.409 205.945 130.245 207.917 128.93 209.038C129.643 210.959 131.027 215.437 130.168 217.381C129.854 217.626 129.793 217.656 129.371 217.618C127.631 217.464 124.238 214.232 123.258 212.773C120.77 214.358 118.225 215.761 115.608 217.122C115.731 218.079 115.878 219.02 115.812 219.987C115.567 222.079 115.162 224.281 114.168 226.159C111.969 224.749 110.135 222.295 108.276 220.441C105.93 221.358 103.579 222.132 101.172 222.871C99.8305 225.726 99.1251 228.881 97.8565 231.784C95.5669 229.614 93.5141 227.079 91.4633 224.682C89.0718 224.908 86.6745 225.063 84.2742 225.149C82.8864 228.093 81.0128 231.032 79.3133 233.817C78.0462 230.818 76.7127 227.847 75.3131 224.906C72.8783 224.737 70.432 224.279 68.0203 223.905C65.6891 226.2 63.9621 229.19 61.4859 231.329C60.2572 228.249 59.4919 224.775 58.6851 221.559C56.5376 220.867 54.4327 220.073 52.3221 219.277C50.187 221.11 47.4796 223.723 44.9727 224.933C44.3997 221.734 44.1694 218.405 44.095 215.16C41.9847 214.26 40.1074 212.765 38.2725 211.411C35.8259 213.126 33.0026 214.816 30.2481 215.983C30.6978 212.755 31.2539 209.543 31.9154 206.352ZM44.8034 215.499C44.9783 218.226 45.2015 220.95 45.4728 223.669C46.7346 222.745 48.0292 221.848 49.2542 220.876L51.6 218.935C50.131 218.275 48.6908 217.588 47.2684 216.831C46.456 216.399 45.6451 215.857 44.8034 215.499ZM114.651 217.683C112.82 218.516 110.961 219.358 109.066 220.035C109.833 220.825 110.566 221.647 111.263 222.499C111.919 223.162 112.566 223.841 113.247 224.478C113.799 223.185 115.167 218.995 114.76 217.781L114.651 217.683ZM59.535 221.822C60.1204 224.551 61.0587 227.215 61.8383 229.895C62.7483 228.89 63.6503 227.878 64.5445 226.859C65.4196 225.791 66.331 224.737 67.1422 223.62C64.5679 223.292 62.0314 222.513 59.535 221.822ZM99.8513 223.133C97.4056 223.613 94.9561 224.073 92.5031 224.514C93.4549 225.77 94.4736 226.974 95.5549 228.12C96.2332 228.865 96.941 229.598 97.5829 230.374C97.9517 229.456 100.227 223.734 100.044 223.127L99.8513 223.133Z" fill="#1C1741"/>
<path d="M246.21 211.133C246.287 211.232 246.318 211.284 246.426 211.366C246.765 211.623 247.064 211.612 247.462 211.587C247.508 211.584 247.554 211.58 247.6 211.576C248.019 211.914 247.683 212.124 247.755 212.575C247.821 212.986 248.294 213.418 248.352 213.861C248.403 214.246 248.306 214.358 248.105 214.658C246.646 215.277 242.555 215.479 241.052 214.894C240.703 214.759 240.613 214.635 240.474 214.283C240.445 214.207 240.405 207.659 240.441 207.157C240.465 206.821 240.555 206.453 240.734 206.164C241.001 205.731 241.469 205.537 241.95 205.452C243.011 205.264 244.563 205.298 245.468 205.963C245.997 206.351 246.297 206.932 246.371 207.578C246.426 208.065 246.351 208.434 246.043 208.813L245.812 208.78C245.446 208.298 245.384 207.662 245.26 207.081C245.244 207.121 245.217 207.159 245.21 207.203C245.142 207.637 245.581 210.176 245.766 210.531C245.853 210.698 246.007 210.821 246.127 210.965L246.21 211.133ZM242.588 208.955C242.173 209.04 242.069 208.985 241.836 209.333C241.674 209.576 241.603 209.709 241.607 210.011C241.808 210.387 241.954 210.588 242.372 210.745C242.903 210.945 243.666 210.824 244.226 210.797L244.602 210.731C244.817 210.235 244.645 209.545 244.596 209C243.928 208.982 243.257 208.949 242.588 208.955Z" fill="#1C1741"/>
<path d="M215.488 209.721L215.639 209.615L215.667 209.366C215.036 208.572 214.722 208.159 214.735 207.112C214.946 207.378 214.971 207.426 215.288 207.533C215.561 207.402 215.801 207.255 216.052 207.084C216.413 207.086 216.684 207.117 216.966 207.377C217.276 207.663 217.55 208.25 217.79 208.61L217.394 208.941C217.492 209.208 217.52 209.163 217.757 209.289C217.58 209.981 217.561 210.836 217.008 211.327C216.689 211.611 216.428 211.816 216.208 212.193L214.943 210.91C215.255 212.586 215.63 214.229 215.381 215.943L215.198 216.211C214.977 216.098 215.107 216.124 214.802 216.198L214.835 216.299C213.846 216.465 212.523 216.594 211.611 216.091C211.315 215.467 209.636 215.275 209.072 214.636C208.823 214.353 208.709 213.944 208.776 213.57C208.814 213.362 208.919 213.19 209.103 213.091C209.769 212.731 210.904 213.188 211.594 213.37C210.733 212.8 209.765 212.307 209.373 211.287C209.23 210.912 209.243 210.721 209.392 210.36C210.513 209.857 212.392 211.144 213.455 211.544C212.502 210.776 211.557 209.909 211.33 208.643C211.177 207.792 211.446 206.939 211.97 206.262C212.212 205.949 212.227 205.939 212.601 205.893C213.672 206.507 213.858 207.657 214.482 208.618C214.746 209.025 215.145 209.381 215.488 209.721Z" fill="#1C1741"/>
<path d="M214.735 207.112C215.071 206.54 215.39 206.127 216.069 205.978C216.513 205.881 217.063 205.967 217.432 206.245C217.823 206.54 218.046 206.914 218.096 207.398C218.146 207.886 218.033 208.189 217.79 208.61C217.55 208.25 217.276 207.663 216.966 207.377C216.684 207.117 216.413 207.086 216.052 207.084C215.801 207.255 215.561 207.402 215.288 207.533C214.971 207.426 214.946 207.378 214.735 207.112Z" fill="#1C1741"/>
<path d="M246.656 208.636C246.941 208.35 247.205 208.068 247.639 208.042C248.075 208.016 248.511 208.285 248.783 208.611C249.124 209.02 249.262 209.599 249.19 210.122C249.142 210.475 248.979 210.716 248.695 210.92C248.529 211.039 248.359 211.148 248.18 211.247C248.023 211.145 247.904 211.016 247.771 210.885C247.732 210.425 247.947 210.274 248.206 209.904C248.125 208.96 247.354 209.37 246.83 208.828C246.77 208.766 246.714 208.7 246.656 208.636Z" fill="#1C1741"/>
<path d="M246.127 210.965L246.375 210.723C246.373 210.681 246.371 210.639 246.37 210.597C246.368 210.527 246.368 210.457 246.366 210.387C246.342 209.701 246.392 209.276 246.656 208.636C246.714 208.7 246.77 208.766 246.83 208.828C247.354 209.37 248.125 208.96 248.206 209.904C247.947 210.274 247.732 210.425 247.771 210.885C247.904 211.016 248.023 211.145 248.18 211.247L246.21 211.133L246.127 210.965Z" fill="#1C1741"/>
<path d="M216.208 212.193C216.428 211.816 216.689 211.611 217.008 211.328C217.561 210.837 217.58 209.981 217.757 209.289C218.267 209.787 218.698 210.252 218.639 211.02C218.607 211.439 218.439 211.752 218.125 212.025C217.758 212.345 217.203 212.423 216.743 212.33C216.562 212.294 216.385 212.244 216.208 212.193Z" fill="#1C1741"/>
<path d="M223.733 212.854C223.724 212.561 223.714 212.261 223.787 211.974C223.908 211.502 224.113 211.18 224.561 210.955C225.184 210.643 225.854 210.898 226.467 211.092C226.221 211.308 226.016 211.479 225.727 211.636C225.072 211.99 224.798 212.745 224.051 212.962L223.733 212.854Z" fill="#1C1741"/>
<path d="M226.467 211.092C226.783 211.399 226.935 211.504 227.007 211.959C227.082 212.429 226.888 213.142 226.814 213.614C228.283 211.926 229.978 211.514 232.146 211.375C232.187 211.372 232.228 211.371 232.269 211.37C232.991 211.844 233.904 212.542 234.018 213.479C234.087 214.052 233.741 214.555 233.367 214.949C233.108 215.221 232.811 215.469 232.529 215.716C232.772 215.866 232.887 215.863 233.165 215.888L232.209 216.034L232.084 216.341C232.518 216.557 232.92 216.342 233.311 216.594L226.972 216.625C226.561 216.469 226.236 216.425 225.799 216.406C225.195 216.38 224.916 216.383 224.43 215.999L224.766 215.866L224.832 215.701C224.419 215.356 223.692 214.786 223.507 214.275C223.305 213.715 223.478 213.346 223.733 212.854L224.051 212.962C224.798 212.745 225.072 211.99 225.727 211.636C226.016 211.479 226.221 211.308 226.467 211.092Z" fill="#1C1741"/>
<path d="M45.4729 223.669C45.2016 220.95 44.9784 218.226 44.8035 215.499C45.6452 215.857 46.4561 216.399 47.2685 216.831C48.6909 217.588 50.1311 218.275 51.6001 218.935L49.2542 220.876C48.0293 221.848 46.7347 222.745 45.4729 223.669Z" fill="#7B7DFF"/>
<path d="M215.198 216.211L215.381 215.943C218.358 216.078 221.454 216.128 224.43 215.999C224.916 216.383 225.195 216.38 225.799 216.406C226.236 216.425 226.561 216.468 226.972 216.625C223.557 216.821 219.857 217.058 216.451 216.771C216.126 216.67 216.27 216.698 215.953 216.657C215.681 216.621 215.417 216.578 215.147 216.528L215.198 216.211Z" fill="#1C1741"/>
<path d="M156.579 262.127C156.266 256.942 156.053 251.752 155.941 246.558C156.585 245.479 160.074 239.603 159.941 238.871L159.638 238.686C159.226 238.792 159.126 239.095 158.914 239.453C157.83 241.278 156.938 243.232 155.877 245.077C155.85 240.983 155.847 236.889 155.868 232.795C155.873 231.06 156.037 229.202 155.904 227.482C155.879 227.164 155.863 226.899 155.635 226.659C155.322 226.806 155.28 226.848 155.18 227.194C154.895 228.177 155.128 235.058 155.115 236.642C154.364 235.52 152.601 231.942 151.945 231.305L151.582 231.292C151.414 231.614 151.43 231.631 151.532 231.968C152.203 234.183 154.184 235.986 154.806 238.263C155.419 240.514 154.763 260.099 154.261 262.662C154.2 262.184 154.192 261.701 154.172 261.219C154.064 261.448 154.082 261.346 154.086 261.608C154.093 262.007 154.15 262.323 153.975 262.697C153.392 263.007 152.014 262.667 151.366 262.523C147.938 261.762 144.802 260.076 142.899 257.039C140.94 253.912 141.182 250.141 142.687 246.873C143.345 245.443 144.199 244.105 144.838 242.666C145.451 241.287 145.901 239.793 146.181 238.311C146.834 234.859 145.988 231.275 146.867 227.864C147.479 225.49 149.269 224.701 150.449 222.789C151.721 220.729 151.883 217.689 154.24 216.414C154.738 216.144 155.266 216.08 155.801 216.28C158.995 217.471 159.773 224.02 160.969 226.779C161.911 228.953 163.523 230.407 164.09 232.836C164.781 235.794 164.283 238.924 165.128 241.828C165.702 243.802 167.009 245.417 167.78 247.3C168.879 249.985 168.99 252.96 167.832 255.649C166.542 258.643 163.722 260.745 160.745 261.883C159.481 262.366 157.999 262.782 156.715 262.193C156.669 262.171 156.624 262.149 156.579 262.127Z" fill="#F8F7FE"/>
<path d="M109.066 220.035C110.961 219.359 112.82 218.516 114.651 217.683L114.76 217.782C115.167 218.995 113.799 223.185 113.247 224.478C112.566 223.841 111.919 223.162 111.263 222.499C110.566 221.647 109.833 220.825 109.066 220.035Z" fill="#6556FE"/>
<path d="M61.8384 229.895C61.0588 227.215 60.1204 224.552 59.535 221.823C62.0314 222.513 64.5679 223.292 67.1423 223.62C66.331 224.738 65.4196 225.791 64.5445 226.859C63.6504 227.878 62.7483 228.89 61.8384 229.895Z" fill="#7B7DFF"/>
<path d="M92.5032 224.514C94.9562 224.073 97.4057 223.613 99.8514 223.133L100.044 223.127C100.227 223.734 97.9518 229.456 97.583 230.374C96.9411 229.598 96.2333 228.865 95.555 228.12C94.4737 226.974 93.455 225.77 92.5032 224.514Z" fill="#7B7DFF"/>
<path d="M260.069 230.65C259.98 229.721 260.071 228.784 260.336 227.89C260.71 226.648 261.497 226.007 262.593 225.397C262.869 225.429 263.093 225.511 263.325 225.668C264.817 226.673 266.303 229.312 266.602 231.062C266.72 231.756 266.641 232.408 266.215 232.984C265.589 233.83 264.608 233.968 263.643 234.141L263.659 238.326C264.804 238.332 266.448 238.12 267.504 238.524L267.578 238.954L267.593 238.95C265.978 239.45 263.721 239.183 262.03 239.18C261.365 239.191 260.698 239.208 260.033 239.19C259.376 239.172 258.588 239.207 258.114 238.706L258.169 238.475C258.678 238.161 262.009 238.369 262.797 238.37C262.9 236.896 262.86 235.402 262.867 233.925C261.811 233.934 260.387 234.093 259.422 233.594C259.131 233.443 258.908 233.201 258.852 232.868C258.713 232.047 259.58 231.21 260.069 230.65Z" fill="#1C1741"/>
<path d="M155.941 246.558C156.053 251.751 156.266 256.942 156.579 262.127C156.654 264.133 157.417 277.916 156.815 278.667C156.495 279.067 155.433 279.4 154.937 279.303C154.51 279.22 154.171 278.896 153.991 278.512C153.184 276.785 154.309 265.481 154.261 262.662C154.763 260.098 155.419 240.513 154.806 238.262C154.185 235.986 152.203 234.183 151.532 231.968C151.43 231.631 151.414 231.614 151.582 231.292L151.945 231.305C152.601 231.942 154.364 235.52 155.115 236.642C155.128 235.058 154.895 228.177 155.18 227.194C155.28 226.848 155.322 226.805 155.635 226.659C155.863 226.898 155.879 227.164 155.904 227.482C156.038 229.202 155.873 231.059 155.868 232.795C155.847 236.889 155.85 240.983 155.877 245.076C156.938 243.232 157.83 241.278 158.914 239.453C159.126 239.094 159.226 238.792 159.638 238.685L159.941 238.871C160.074 239.603 156.585 245.478 155.941 246.558Z" fill="#1C1741"/>
<path d="M221.699 252.945C221.616 252.524 221.555 252.454 221.279 252.13C220.128 250.782 218.784 249.526 217.549 248.25C214.888 245.488 212.209 242.745 209.512 240.019C207.125 237.589 204.887 234.846 202.345 232.592C208.466 232.839 214.596 232.75 220.721 232.77L244.016 232.92C246.529 234.472 248.803 237.067 250.969 239.079C254.309 242.184 257.743 245.188 261.094 248.283C262.771 249.831 264.351 251.536 266.067 253.028L236.033 252.999C231.285 252.99 226.434 253.212 221.699 252.945ZM225.684 238.256C224.463 238.269 218.52 238.106 217.96 238.67C218.113 239.017 218.266 239.079 218.606 239.209C219.501 239.549 231.518 239.269 233.62 239.285C234.745 239.282 240.735 239.483 241.244 239.07L241.274 238.721C240.936 238.326 240.478 238.27 239.984 238.225C238.169 238.058 236.237 238.201 234.411 238.218C231.502 238.244 228.592 238.212 225.684 238.256ZM225.247 244.847C224.642 244.834 223.852 244.712 223.317 245.02C223.169 245.325 223.147 245.271 223.209 245.637C224.071 246.026 243.101 245.811 245.581 245.819C246.174 245.842 246.703 245.905 247.254 245.637L247.407 245.387C247.103 244.993 246.633 244.887 246.146 244.819C244.257 244.554 242.026 244.809 240.103 244.811L225.247 244.847Z" fill="#6556FE"/>
<path d="M221.699 252.945C226.434 253.212 231.285 252.99 236.033 252.999L266.067 253.028C266.493 253.139 266.786 253.188 267.076 253.55C267.469 254.713 266.677 267.989 266.613 270.304C266.481 275.12 266.509 279.939 266.417 284.755C266.324 289.588 266.104 294.416 266.099 299.25L300 299.262V300H121.427L122.923 298.992L184.715 298.969C184.632 293.502 184.168 287.99 183.855 282.531C183.442 275.403 183.096 268.27 182.818 261.135C182.672 257.979 182.395 254.818 182.373 251.658C184.801 248.822 187.813 246.266 190.504 243.653C194.126 240.136 197.682 236.336 201.575 233.13C204.489 235.756 207.106 238.793 209.871 241.584L216.574 248.384C218.003 249.847 219.492 251.28 220.782 252.87C220.958 263.462 220.77 274.093 220.766 284.69L220.759 292.854C220.753 294.357 220.645 295.904 220.755 297.401C220.788 297.841 220.811 298.272 221.075 298.641L221.301 298.614C221.889 297.234 221.544 293.104 221.555 291.4L221.593 265.024L221.576 257.571C221.574 256.099 221.492 254.552 221.678 253.091C221.684 253.042 221.692 252.994 221.699 252.945ZM200.551 246.959C197.319 247.388 195.043 250.351 195.462 253.585C195.881 256.819 198.836 259.104 202.071 258.696C205.321 258.285 207.619 255.313 207.199 252.065C206.778 248.816 203.798 246.528 200.551 246.959ZM245.589 268.134C245.123 268.151 244.661 268.104 244.27 268.393C244.004 269.694 244.168 271.25 244.175 272.587L244.235 280.71C244.256 282.868 244.102 285.08 244.262 287.227C249.871 287.599 255.601 287.295 261.227 287.321C261.648 287.31 262.068 287.369 262.436 287.149C262.581 283.301 262.475 279.42 262.467 275.569C262.461 273.158 262.638 270.602 262.386 268.213C260.297 267.977 258.12 268.121 256.017 268.135C252.541 268.168 249.065 268.168 245.589 268.134ZM192.336 268.279C191.909 268.943 191.972 285.033 192.089 287.148C194.956 287.319 197.855 287.252 200.728 287.264C203.934 287.277 207.153 287.353 210.358 287.25C210.388 283.332 210.396 279.413 210.381 275.494C210.393 273.09 210.542 270.628 210.396 268.23C204.388 268.186 198.343 268.191 192.336 268.279ZM228.904 273.115C228.18 273.147 227.451 273.159 226.729 273.212C226.379 277.238 226.635 281.47 226.651 285.517C226.667 289.511 226.473 293.625 226.69 297.606C226.709 297.97 226.744 298.239 226.958 298.544C227.325 298.441 227.259 298.412 227.445 298.105C227.577 295.822 227.505 293.508 227.505 291.222C227.504 285.497 227.366 279.729 227.535 274.008C230.755 273.955 233.975 273.939 237.195 273.961C237.572 273.996 237.797 273.947 238.093 274.203C238.316 276.411 238.156 278.756 238.153 280.979L238.161 293.402C238.162 294.686 237.868 297.319 238.303 298.415L238.532 298.535L238.858 298.412C239.258 296.772 238.973 291.863 238.969 289.903C238.959 284.331 239.109 278.702 238.923 273.137C235.584 273.091 232.244 273.084 228.904 273.115Z" fill="#1C1741"/>
<path d="M25.105 275.188L25.1071 258.797C25.0906 255.608 24.9225 252.362 25.0827 249.182C25.1103 248.633 25.1549 248.075 25.3659 247.562C25.7914 246.528 26.7035 245.988 27.6738 245.541C31.5346 245.237 35.9355 245.493 39.8584 245.493L64.5521 245.508L94.4982 245.543C101.829 245.541 109.204 245.409 116.525 245.829C117.17 248.716 117.945 251.571 118.573 254.464C116.544 254.702 114.502 254.794 112.464 254.903C112.745 259.431 113.596 264.632 114.252 269.156C114.539 271.136 114.903 273.117 115.053 275.113L93.474 275.137C90.1283 275.143 86.6698 274.96 83.3399 275.152C82.863 275.18 82.4332 275.222 82.0459 275.527L82.0345 275.789C82.1888 275.998 82.1616 276.027 82.4443 276.105C83.2693 276.335 87.9876 276.116 89.3344 276.116L112.19 276.113C115.204 276.113 120.416 275.801 123.191 276.307C125.69 276.763 127.565 278.704 128.914 280.722C129.569 281.829 130.072 283.038 130.505 284.246C130.786 285.029 131.256 286.188 130.779 286.969C130.039 288.182 126.445 287.854 125.087 288.078L124.819 288.124C123.912 286.431 122.669 284.915 121.007 283.921C118.993 282.718 116.462 282.286 114.182 282.876C111.412 283.594 109.421 285.577 107.991 287.963L79.2545 287.994C79.5126 282.281 79.3052 276.493 79.3224 270.771C79.3318 267.689 79.7018 257.477 79.0848 255.194C78.9709 254.772 78.8997 254.431 78.4778 254.247C77.5561 253.846 60.4907 253.849 59.3376 254.229C58.921 254.766 58.7991 255.399 58.7124 256.063C58.4329 258.199 58.6125 260.562 58.6122 262.722L58.6166 275.139C47.453 275.011 36.2713 275.204 25.105 275.188ZM34.4713 256.288C33.8487 256.559 33.5528 257.275 33.8015 257.907C34.0503 258.539 34.7549 258.861 35.3953 258.635C35.8309 258.481 36.1476 258.102 36.2215 257.647C36.2953 257.191 36.1142 256.731 35.7495 256.448C35.3847 256.165 34.8946 256.103 34.4713 256.288ZM47.9159 256.31C47.5054 256.52 47.2418 256.937 47.2283 257.398C47.2151 257.859 47.4539 258.291 47.8517 258.524C48.2493 258.757 48.7427 258.755 49.1385 258.518C49.7226 258.169 49.9248 257.419 49.5949 256.823C49.265 256.228 48.5223 256.001 47.9159 256.31ZM103.976 256.433C103.326 256.743 103.051 257.523 103.365 258.172C103.679 258.82 104.46 259.09 105.107 258.773C105.749 258.458 106.015 257.684 105.705 257.041C105.393 256.397 104.621 256.126 103.976 256.433ZM90.0967 256.579C89.6669 256.774 89.3745 257.184 89.3317 257.654C89.2889 258.123 89.5022 258.58 89.8898 258.848C90.2774 259.117 90.7799 259.157 91.2044 258.952C91.8498 258.64 92.1249 257.868 91.8217 257.218C91.5184 256.569 90.7497 256.284 90.0967 256.579ZM37.224 259.589C37.2085 262.474 36.9624 265.613 37.3134 268.466C39.6533 268.542 45.0319 268.802 47.1334 268.4C47.6613 265.956 47.2907 262.185 47.1776 259.645C43.8603 259.571 40.5419 259.552 37.224 259.589ZM93.5144 259.787C92.9924 259.86 92.6818 259.842 92.255 260.163C91.7891 262.048 92.1322 266.73 92.1559 268.882C95.2301 269.014 98.3223 268.946 101.399 268.942C101.883 268.921 102.042 268.965 102.439 268.67C102.764 267.91 102.693 261.343 102.381 260.542C102.23 260.155 101.981 259.927 101.597 259.769C100.843 259.46 94.9011 259.781 93.5144 259.787ZM128.459 286.09C128.324 286.57 128.296 286.557 128.515 287C129.059 287.379 129.661 287.42 130.307 287.346C130.47 286.954 130.575 286.815 130.507 286.388C129.934 285.914 129.167 286.057 128.459 286.09Z" fill="#1C1741"/>
<path d="M202.049 251.448C201.659 251.342 201.379 251.293 201.11 250.964C200.792 250.128 200.96 249.335 201.099 248.473C201.436 248.506 201.5 248.51 201.77 248.708C202.069 249.59 202.027 250.525 202.049 251.448Z" fill="#1C1741"/>
<path d="M280.92 286.181C280.735 283.178 280.754 280.153 280.72 277.145C280.699 275.318 280.503 273.287 280.829 271.49C281.106 269.962 283.682 267.479 283.567 266.215C283.258 266.178 283.371 266.134 283.129 266.326C282.128 267.12 281.329 268.839 280.666 269.945C280.684 267.825 281.097 258.44 280.269 257.184L280.014 257.178C279.285 258.207 279.728 264.319 279.75 265.908C278.764 264.521 277.78 262.568 276.385 261.58L276.238 261.637C276.557 263.017 278.876 266.434 279.768 267.809C279.728 271.805 279.887 275.828 279.746 279.818C279.652 282.478 279.244 285.132 279.066 287.787C278.903 287.76 278.74 287.73 278.581 287.683C277.336 287.314 276.374 285.817 275.834 284.71C272.504 277.886 272.979 261.285 275.431 254.212C276.059 252.398 277.051 250.311 278.893 249.48C279.783 249.078 280.813 248.936 281.73 249.333C283.542 250.119 284.797 252.853 285.462 254.589C288.188 261.699 290.281 274.164 287.126 281.216C286.143 283.414 283.424 285.285 281.204 286.083C281.11 286.117 281.015 286.148 280.92 286.181Z" fill="#F8F7FE"/>
<path d="M199.953 255.924C199.67 255.836 199.619 255.788 199.413 255.591C199.326 254.897 199.952 254.251 200.089 253.575C200.39 252.083 198.568 252.303 198.078 251.288C197.986 251.097 198.125 250.904 198.192 250.72C199.537 251.024 200.216 252 201.128 252.932C200.897 254.149 200.796 254.951 199.953 255.924Z" fill="#1C1741"/>
<path d="M205.711 253.47C205.631 253.494 205.55 253.519 205.468 253.54C204.665 253.738 202.967 253.436 202.331 252.905C201.927 252.568 202.007 252.269 201.978 251.789C203.243 252.374 204.792 252.289 205.711 253.47Z" fill="#1C1741"/>
<path d="M25.1221 276.152C32.8161 276.041 40.527 276.122 48.2224 276.114C51.4287 276.111 54.7339 276.311 57.9282 276.108C58.4412 276.075 58.9998 276.053 59.41 275.736C59.6473 274.057 59.4824 272.225 59.4815 270.523L59.4756 260.215C59.463 258.759 59.2752 257.116 59.4967 255.682C59.5629 255.254 59.6924 255.173 60.0402 254.941C62.2254 254.862 77.1935 254.627 78.0844 255.186C78.332 255.558 78.3367 255.958 78.3622 256.39C78.5889 260.238 78.4058 264.208 78.4357 268.07C78.4867 274.695 78.6583 281.366 78.4371 287.986L47.887 287.999C46.9779 286.076 45.6742 284.581 43.8967 283.429C40.5399 281.777 36.6012 281.674 33.661 284.302C33.242 284.676 32.2843 285.868 31.7488 285.958C30.886 286.103 26.3897 285.879 25.1275 285.871C24.991 282.656 25.0211 279.369 25.1221 276.152ZM73.764 271.697C73.0158 272.295 72.8262 272.897 72.7008 273.839C72.6059 274.551 72.6953 275.512 73.1643 276.094C73.4675 276.469 73.7924 276.63 74.2738 276.659C74.4036 276.667 74.5339 276.664 74.664 276.663C75.4339 275.935 75.7776 275.032 75.7911 273.964C75.7996 273.321 75.5845 272.501 75.0748 272.069C74.7206 271.769 74.2058 271.723 73.764 271.697Z" fill="#1C1741"/>
<path d="M113.475 255.786L117.275 255.554C117.691 255.516 118.093 255.508 118.511 255.516C119.175 256.039 122.526 272.884 122.912 275.097H119.019L116.002 275.096C115.024 268.705 113.987 262.23 113.475 255.786Z" fill="#1C1741"/>
<path d="M280.666 269.945C281.329 268.839 282.128 267.12 283.129 266.326C283.371 266.134 283.258 266.178 283.567 266.215C283.682 267.479 281.106 269.962 280.829 271.49C280.503 273.287 280.699 275.318 280.72 277.145C280.754 280.153 280.735 283.178 280.92 286.181C281.046 289.701 281.153 293.221 281.241 296.742L278.469 296.763C278.689 293.798 279.05 290.758 279.066 287.787C279.243 285.132 279.652 282.478 279.746 279.818C279.886 275.828 279.728 271.805 279.768 267.809C278.876 266.434 276.557 263.017 276.238 261.638L276.385 261.58C277.78 262.568 278.764 264.521 279.75 265.908C279.728 264.319 279.285 258.207 280.014 257.178L280.269 257.184C281.097 258.44 280.684 267.825 280.666 269.945Z" fill="#1C1741"/>
<path d="M201.422 277.057C201.062 277.101 201.055 277.159 200.723 276.969C200.162 275.695 200.498 271.334 200.516 269.725C200.821 269.763 201.04 269.805 201.316 269.943C201.845 271.039 201.484 275.629 201.422 277.057Z" fill="#1C1741"/>
<path d="M253.522 275.607C253.283 275.55 253.202 275.505 253.006 275.372C252.569 274.135 252.619 270.952 253.108 269.692C253.289 269.747 253.451 269.828 253.623 269.908C253.662 269.996 253.721 270.119 253.749 270.217C254.067 271.337 254.095 274.598 253.522 275.607Z" fill="#1C1741"/>
<path d="M261.141 278.46C259.62 278.445 257.654 278.83 256.215 278.321C255.998 277.969 256.068 277.91 256.141 277.496C257.668 277.511 259.52 277.175 260.98 277.637C261.235 277.952 261.161 278.05 261.141 278.46Z" fill="#1C1741"/>
<path d="M198.148 278.501C197.072 278.562 194.509 278.957 193.661 278.35C193.468 278.212 193.5 277.821 193.475 277.595C194.769 277.585 196.854 277.224 198.025 277.769C198.24 278.082 198.192 278.118 198.148 278.501Z" fill="#1C1741"/>
<path d="M209.332 278.494C208.155 278.612 205.467 278.961 204.493 278.403C204.283 278.282 204.26 277.864 204.205 277.636C205.415 277.601 208.323 277.156 209.28 277.878L209.332 278.494Z" fill="#1C1741"/>
<path d="M250.232 278.63C249.067 278.651 247.89 278.699 246.726 278.647C246.208 278.624 245.8 278.601 245.443 278.206L245.518 277.92C245.85 277.627 246.386 277.671 246.809 277.639C247.872 277.589 248.997 277.475 250.056 277.559C250.511 277.594 250.838 277.654 251.141 278.003L251.094 278.377C250.781 278.661 250.643 278.606 250.232 278.63Z" fill="#1C1741"/>
</g>
<defs>
<clipPath id="clip0_3_884">
<rect width="300" height="300" fill="white"/>
</clipPath>
</defs>
</svg>
