<svg width="20" height="21" viewBox="0 0 20 21" fill="none" xmlns="http://www.w3.org/2000/svg">
<path d="M14.1666 9.66669H5.83329C4.91282 9.66669 4.16663 10.4129 4.16663 11.3334V16.3334C4.16663 17.2538 4.91282 18 5.83329 18H14.1666C15.0871 18 15.8333 17.2538 15.8333 16.3334V11.3334C15.8333 10.4129 15.0871 9.66669 14.1666 9.66669Z" stroke="#737373" stroke-width="1.5" stroke-linecap="round" stroke-linejoin="round"/>
<path d="M9.99996 14.6667C10.4602 14.6667 10.8333 14.2936 10.8333 13.8333C10.8333 13.3731 10.4602 13 9.99996 13C9.53972 13 9.16663 13.3731 9.16663 13.8333C9.16663 14.2936 9.53972 14.6667 9.99996 14.6667Z" stroke="#737373" stroke-width="1.5" stroke-linecap="round" stroke-linejoin="round"/>
<path d="M6.66663 9.66667V6.33333C6.66663 5.44928 7.01782 4.60143 7.64294 3.97631C8.26806 3.35119 9.1159 3 9.99996 3C10.884 3 11.7319 3.35119 12.357 3.97631C12.9821 4.60143 13.3333 5.44928 13.3333 6.33333V9.66667" stroke="#737373" stroke-width="1.5" stroke-linecap="round" stroke-linejoin="round"/>
</svg>
