<svg width="14" height="17" viewBox="0 0 14 17" fill="none" xmlns="http://www.w3.org/2000/svg">
<path d="M6.9998 8.4999C7.45813 8.4999 7.85049 8.3367 8.17688 8.01031C8.50327 7.68393 8.66646 7.29156 8.66646 6.83323C8.66646 6.3749 8.50327 5.98254 8.17688 5.65615C7.85049 5.32976 7.45813 5.16656 6.9998 5.16656C6.54146 5.16656 6.1491 5.32976 5.82271 5.65615C5.49632 5.98254 5.33313 6.3749 5.33313 6.83323C5.33313 7.29156 5.49632 7.68393 5.82271 8.01031C6.1491 8.3367 6.54146 8.4999 6.9998 8.4999ZM6.9998 14.6249C8.69424 13.0693 9.95119 11.6561 10.7706 10.3853C11.5901 9.11448 11.9998 7.98601 11.9998 6.9999C11.9998 5.48601 11.5172 4.24643 10.5519 3.28115C9.5866 2.31587 8.40257 1.83323 6.9998 1.83323C5.59702 1.83323 4.41299 2.31587 3.44771 3.28115C2.48244 4.24643 1.9998 5.48601 1.9998 6.9999C1.9998 7.98601 2.40952 9.11448 3.22896 10.3853C4.04841 11.6561 5.30535 13.0693 6.9998 14.6249ZM6.9998 16.8332C4.76369 14.9305 3.09355 13.1631 1.98938 11.5311C0.885213 9.8992 0.33313 8.38879 0.33313 6.9999C0.33313 4.91656 1.00327 3.25684 2.34355 2.02073C3.68382 0.78462 5.23591 0.166565 6.9998 0.166565C8.76369 0.166565 10.3158 0.78462 11.656 2.02073C12.9963 3.25684 13.6665 4.91656 13.6665 6.9999C13.6665 8.38879 13.1144 9.8992 12.0102 11.5311C10.906 13.1631 9.23591 14.9305 6.9998 16.8332Z" fill="#A3A3A3"/>
</svg>
