<svg width="13" height="19" viewBox="0 0 13 19" fill="none" xmlns="http://www.w3.org/2000/svg">
<path d="M1.83329 18.6667C1.37496 18.6667 0.982598 18.5035 0.656209 18.1771C0.32982 17.8507 0.166626 17.4583 0.166626 17V2.00001C0.166626 1.54168 0.32982 1.14932 0.656209 0.822927C0.982598 0.496538 1.37496 0.333344 1.83329 0.333344H10.1666C10.625 0.333344 11.0173 0.496538 11.3437 0.822927C11.6701 1.14932 11.8333 1.54168 11.8333 2.00001V4.58334C12.0833 4.68057 12.2847 4.83334 12.4375 5.04168C12.5902 5.25001 12.6666 5.48612 12.6666 5.75001V7.41668C12.6666 7.68057 12.5902 7.91668 12.4375 8.12501C12.2847 8.33334 12.0833 8.48612 11.8333 8.58334V17C11.8333 17.4583 11.6701 17.8507 11.3437 18.1771C11.0173 18.5035 10.625 18.6667 10.1666 18.6667H1.83329ZM1.83329 17H10.1666V2.00001H1.83329V17ZM4.33329 16.1667H7.66663C7.90274 16.1667 8.10065 16.0868 8.26038 15.9271C8.4201 15.7674 8.49996 15.5695 8.49996 15.3333C8.49996 15.0972 8.4201 14.8993 8.26038 14.7396C8.10065 14.5799 7.90274 14.5 7.66663 14.5H4.33329C4.09718 14.5 3.89927 14.5799 3.73954 14.7396C3.57982 14.8993 3.49996 15.0972 3.49996 15.3333C3.49996 15.5695 3.57982 15.7674 3.73954 15.9271C3.89927 16.0868 4.09718 16.1667 4.33329 16.1667Z" fill="#737373"/>
</svg>
