<svg width="20" height="20" viewBox="0 0 20 20" fill="none" xmlns="http://www.w3.org/2000/svg">
<g clip-path="url(#clip0_64_4062)">
<path d="M5.83366 19.1667C5.37533 19.1667 4.98296 19.0035 4.65658 18.6771C4.33019 18.3507 4.16699 17.9584 4.16699 17.5V2.50004C4.16699 2.04171 4.33019 1.64935 4.65658 1.32296C4.98296 0.996568 5.37533 0.833374 5.83366 0.833374H14.167C14.6253 0.833374 15.0177 0.996568 15.3441 1.32296C15.6705 1.64935 15.8337 2.04171 15.8337 2.50004V5.08337C16.0837 5.1806 16.285 5.33337 16.4378 5.54171C16.5906 5.75004 16.667 5.98615 16.667 6.25004V7.91671C16.667 8.1806 16.5906 8.41671 16.4378 8.62504C16.285 8.83337 16.0837 8.98615 15.8337 9.08337V17.5C15.8337 17.9584 15.6705 18.3507 15.3441 18.6771C15.0177 19.0035 14.6253 19.1667 14.167 19.1667H5.83366ZM5.83366 17.5H14.167V2.50004H5.83366V17.5ZM8.33366 16.6667H11.667C11.9031 16.6667 12.101 16.5868 12.2607 16.4271C12.4205 16.2674 12.5003 16.0695 12.5003 15.8334C12.5003 15.5973 12.4205 15.3993 12.2607 15.2396C12.101 15.0799 11.9031 15 11.667 15H8.33366C8.09755 15 7.89963 15.0799 7.73991 15.2396C7.58019 15.3993 7.50033 15.5973 7.50033 15.8334C7.50033 16.0695 7.58019 16.2674 7.73991 16.4271C7.89963 16.5868 8.09755 16.6667 8.33366 16.6667Z" fill="#737373"/>
</g>
<defs>
<clipPath id="clip0_64_4062">
<rect width="20" height="20" fill="white"/>
</clipPath>
</defs>
</svg>
