<svg width="48" height="48" viewBox="0 0 48 48" fill="none" xmlns="http://www.w3.org/2000/svg">
<rect width="48" height="48" rx="10" fill="#6556FE"/>
<path d="M14 32V29.2C14 28.65 14.1417 28.1333 14.425 27.65C14.7083 27.1667 15.1 26.8 15.6 26.55C16.45 26.1167 17.4083 25.75 18.475 25.45C19.5417 25.15 20.7167 25 22 25C22.5 25 22.9875 25.025 23.4625 25.075C23.9375 25.125 24.4 25.2 24.85 25.3L23.1 27.05C22.9167 27.0167 22.7375 27 22.5625 27H22C20.8167 27 19.7542 27.1417 18.8125 27.425C17.8708 27.7083 17.1 28.0167 16.5 28.35C16.35 28.4333 16.2292 28.55 16.1375 28.7C16.0458 28.85 16 29.0167 16 29.2V30H22.25L24.25 32H14ZM27.55 32.4L24.1 28.95L25.5 27.55L27.55 29.6L32.6 24.55L34 25.95L27.55 32.4ZM22 24C20.9 24 19.9583 23.6083 19.175 22.825C18.3917 22.0417 18 21.1 18 20C18 18.9 18.3917 17.9583 19.175 17.175C19.9583 16.3917 20.9 16 22 16C23.1 16 24.0417 16.3917 24.825 17.175C25.6083 17.9583 26 18.9 26 20C26 21.1 25.6083 22.0417 24.825 22.825C24.0417 23.6083 23.1 24 22 24ZM22 22C22.55 22 23.0208 21.8042 23.4125 21.4125C23.8042 21.0208 24 20.55 24 20C24 19.45 23.8042 18.9792 23.4125 18.5875C23.0208 18.1958 22.55 18 22 18C21.45 18 20.9792 18.1958 20.5875 18.5875C20.1958 18.9792 20 19.45 20 20C20 20.55 20.1958 21.0208 20.5875 21.4125C20.9792 21.8042 21.45 22 22 22Z" fill="white"/>
</svg>
