<svg width="16" height="16" viewBox="0 0 16 16" fill="none" xmlns="http://www.w3.org/2000/svg">
<path d="M4 14.6667C3.44444 14.6667 2.97222 14.4722 2.58333 14.0833C2.19444 13.6945 2 13.2222 2 12.6667V10.6667H4V1.33334L5 2.33334L6 1.33334L7 2.33334L8 1.33334L9 2.33334L10 1.33334L11 2.33334L12 1.33334L13 2.33334L14 1.33334V12.6667C14 13.2222 13.8056 13.6945 13.4167 14.0833C13.0278 14.4722 12.5556 14.6667 12 14.6667H4ZM12 13.3333C12.1889 13.3333 12.3472 13.2695 12.475 13.1417C12.6028 13.0139 12.6667 12.8556 12.6667 12.6667V3.33334H5.33333V10.6667H11.3333V12.6667C11.3333 12.8556 11.3972 13.0139 11.525 13.1417C11.6528 13.2695 11.8111 13.3333 12 13.3333ZM6 6.00001V4.66668H10V6.00001H6ZM6 8.00001V6.66668H10V8.00001H6ZM11.3333 6.00001C11.1444 6.00001 10.9861 5.93612 10.8583 5.80834C10.7306 5.68057 10.6667 5.52223 10.6667 5.33334C10.6667 5.14445 10.7306 4.98612 10.8583 4.85834C10.9861 4.73057 11.1444 4.66668 11.3333 4.66668C11.5222 4.66668 11.6806 4.73057 11.8083 4.85834C11.9361 4.98612 12 5.14445 12 5.33334C12 5.52223 11.9361 5.68057 11.8083 5.80834C11.6806 5.93612 11.5222 6.00001 11.3333 6.00001ZM11.3333 8.00001C11.1444 8.00001 10.9861 7.93612 10.8583 7.80834C10.7306 7.68057 10.6667 7.52223 10.6667 7.33334C10.6667 7.14445 10.7306 6.98612 10.8583 6.85834C10.9861 6.73057 11.1444 6.66668 11.3333 6.66668C11.5222 6.66668 11.6806 6.73057 11.8083 6.85834C11.9361 6.98612 12 7.14445 12 7.33334C12 7.52223 11.9361 7.68057 11.8083 7.80834C11.6806 7.93612 11.5222 8.00001 11.3333 8.00001ZM4 13.3333H10V12H3.33333V12.6667C3.33333 12.8556 3.39722 13.0139 3.525 13.1417C3.65278 13.2695 3.81111 13.3333 4 13.3333Z" fill="#1F1F1F"/>
</svg>
