<svg width="14" height="14" viewBox="0 0 14 14" fill="none" xmlns="http://www.w3.org/2000/svg">
<path d="M9.19967 10.1333L10.133 9.20001L7.66634 6.73334V3.66668H6.33301V7.26668L9.19967 10.1333ZM6.99967 13.6667C6.07745 13.6667 5.21079 13.4917 4.39967 13.1417C3.58856 12.7917 2.88301 12.3167 2.28301 11.7167C1.68301 11.1167 1.20801 10.4111 0.858008 9.60001C0.508008 8.7889 0.333008 7.92223 0.333008 7.00001C0.333008 6.07779 0.508008 5.21112 0.858008 4.40001C1.20801 3.5889 1.68301 2.88334 2.28301 2.28334C2.88301 1.68334 3.58856 1.20834 4.39967 0.858343C5.21079 0.508343 6.07745 0.333344 6.99967 0.333344C7.9219 0.333344 8.78856 0.508343 9.59967 0.858343C10.4108 1.20834 11.1163 1.68334 11.7163 2.28334C12.3163 2.88334 12.7913 3.5889 13.1413 4.40001C13.4913 5.21112 13.6663 6.07779 13.6663 7.00001C13.6663 7.92223 13.4913 8.7889 13.1413 9.60001C12.7913 10.4111 12.3163 11.1167 11.7163 11.7167C11.1163 12.3167 10.4108 12.7917 9.59967 13.1417C8.78856 13.4917 7.9219 13.6667 6.99967 13.6667ZM6.99967 12.3333C8.47745 12.3333 9.73579 11.8139 10.7747 10.775C11.8136 9.73612 12.333 8.47779 12.333 7.00001C12.333 5.52223 11.8136 4.2639 10.7747 3.22501C9.73579 2.18612 8.47745 1.66668 6.99967 1.66668C5.5219 1.66668 4.26356 2.18612 3.22467 3.22501C2.18579 4.2639 1.66634 5.52223 1.66634 7.00001C1.66634 8.47779 2.18579 9.73612 3.22467 10.775C4.26356 11.8139 5.5219 12.3333 6.99967 12.3333Z" fill="#0A0A0A"/>
</svg>
