<svg width="46" height="48" viewBox="0 0 46 48" fill="none" xmlns="http://www.w3.org/2000/svg">
<g filter="url(#filter0_dd_14_7839)">
<rect x="3" y="1" width="40" height="40" rx="20" fill="white"/>
<path d="M18.3333 27C17.9667 27 17.6528 26.8694 17.3917 26.6083C17.1306 26.3472 17 26.0333 17 25.6667V16.3333C17 15.9667 17.1306 15.6528 17.3917 15.3917C17.6528 15.1306 17.9667 15 18.3333 15H23.6667V16.3333H18.3333V25.6667H27.6667V20.3333H29V25.6667C29 26.0333 28.8694 26.3472 28.6083 26.6083C28.3472 26.8694 28.0333 27 27.6667 27H18.3333ZM19 24.3333H27L24.5 21L22.5 23.6667L21 21.6667L19 24.3333ZM26.3333 19V17.6667H25V16.3333H26.3333V15H27.6667V16.3333H29V17.6667H27.6667V19H26.3333Z" fill="#1F1F1F"/>
</g>
<defs>
<filter id="filter0_dd_14_7839" x="0" y="0" width="46" height="48" filterUnits="userSpaceOnUse" color-interpolation-filters="sRGB">
<feFlood flood-opacity="0" result="BackgroundImageFix"/>
<feColorMatrix in="SourceAlpha" type="matrix" values="0 0 0 0 0 0 0 0 0 0 0 0 0 0 0 0 0 0 127 0" result="hardAlpha"/>
<feMorphology radius="1" operator="dilate" in="SourceAlpha" result="effect1_dropShadow_14_7839"/>
<feOffset/>
<feComposite in2="hardAlpha" operator="out"/>
<feColorMatrix type="matrix" values="0 0 0 0 0.898039 0 0 0 0 0.898039 0 0 0 0 0.898039 0 0 0 1 0"/>
<feBlend mode="normal" in2="BackgroundImageFix" result="effect1_dropShadow_14_7839"/>
<feColorMatrix in="SourceAlpha" type="matrix" values="0 0 0 0 0 0 0 0 0 0 0 0 0 0 0 0 0 0 127 0" result="hardAlpha"/>
<feMorphology radius="5" operator="erode" in="SourceAlpha" result="effect2_dropShadow_14_7839"/>
<feOffset dy="4"/>
<feGaussianBlur stdDeviation="4"/>
<feComposite in2="hardAlpha" operator="out"/>
<feColorMatrix type="matrix" values="0 0 0 0 0 0 0 0 0 0 0 0 0 0 0 0 0 0 0.15 0"/>
<feBlend mode="normal" in2="effect1_dropShadow_14_7839" result="effect2_dropShadow_14_7839"/>
<feBlend mode="normal" in="SourceGraphic" in2="effect2_dropShadow_14_7839" result="shape"/>
</filter>
</defs>
</svg>
