<svg width="46" height="48" viewBox="0 0 46 48" fill="none" xmlns="http://www.w3.org/2000/svg">
<g filter="url(#filter0_dd_14_2129)">
<rect x="3" y="1" width="40" height="40" rx="20" fill="white"/>
<path d="M23 27.75L21.9125 26.775C20.65 25.6375 19.6063 24.6563 18.7813 23.8313C17.9563 23.0063 17.3 22.2656 16.8125 21.6094C16.325 20.9531 15.9844 20.35 15.7906 19.8C15.5969 19.25 15.5 18.6875 15.5 18.1125C15.5 16.9375 15.8938 15.9563 16.6813 15.1688C17.4688 14.3813 18.45 13.9875 19.625 13.9875C20.275 13.9875 20.8938 14.125 21.4813 14.4C22.0688 14.675 22.575 15.0625 23 15.5625C23.425 15.0625 23.9313 14.675 24.5188 14.4C25.1063 14.125 25.725 13.9875 26.375 13.9875C27.55 13.9875 28.5313 14.3813 29.3188 15.1688C30.1063 15.9563 30.5 16.9375 30.5 18.1125C30.5 18.6875 30.4031 19.25 30.2094 19.8C30.0156 20.35 29.675 20.9531 29.1875 21.6094C28.7 22.2656 28.0438 23.0063 27.2188 23.8313C26.3938 24.6563 25.35 25.6375 24.0875 26.775L23 27.75ZM23 25.725C24.2 24.65 25.1875 23.7281 25.9625 22.9594C26.7375 22.1906 27.35 21.5219 27.8 20.9531C28.25 20.3844 28.5625 19.8781 28.7375 19.4344C28.9125 18.9906 29 18.55 29 18.1125C29 17.3625 28.75 16.7375 28.25 16.2375C27.75 15.7375 27.125 15.4875 26.375 15.4875C25.7875 15.4875 25.2438 15.6531 24.7438 15.9844C24.2438 16.3156 23.9 16.7375 23.7125 17.25H22.2875C22.1 16.7375 21.7563 16.3156 21.2563 15.9844C20.7563 15.6531 20.2125 15.4875 19.625 15.4875C18.875 15.4875 18.25 15.7375 17.75 16.2375C17.25 16.7375 17 17.3625 17 18.1125C17 18.55 17.0875 18.9906 17.2625 19.4344C17.4375 19.8781 17.75 20.3844 18.2 20.9531C18.65 21.5219 19.2625 22.1906 20.0375 22.9594C20.8125 23.7281 21.8 24.65 23 25.725Z" fill="#1F1F1F"/>
</g>
<defs>
<filter id="filter0_dd_14_2129" x="0" y="0" width="46" height="48" filterUnits="userSpaceOnUse" color-interpolation-filters="sRGB">
<feFlood flood-opacity="0" result="BackgroundImageFix"/>
<feColorMatrix in="SourceAlpha" type="matrix" values="0 0 0 0 0 0 0 0 0 0 0 0 0 0 0 0 0 0 127 0" result="hardAlpha"/>
<feMorphology radius="1" operator="dilate" in="SourceAlpha" result="effect1_dropShadow_14_2129"/>
<feOffset/>
<feComposite in2="hardAlpha" operator="out"/>
<feColorMatrix type="matrix" values="0 0 0 0 0.898039 0 0 0 0 0.898039 0 0 0 0 0.898039 0 0 0 1 0"/>
<feBlend mode="normal" in2="BackgroundImageFix" result="effect1_dropShadow_14_2129"/>
<feColorMatrix in="SourceAlpha" type="matrix" values="0 0 0 0 0 0 0 0 0 0 0 0 0 0 0 0 0 0 127 0" result="hardAlpha"/>
<feMorphology radius="5" operator="erode" in="SourceAlpha" result="effect2_dropShadow_14_2129"/>
<feOffset dy="4"/>
<feGaussianBlur stdDeviation="4"/>
<feComposite in2="hardAlpha" operator="out"/>
<feColorMatrix type="matrix" values="0 0 0 0 0 0 0 0 0 0 0 0 0 0 0 0 0 0 0.15 0"/>
<feBlend mode="normal" in2="effect1_dropShadow_14_2129" result="effect2_dropShadow_14_2129"/>
<feBlend mode="normal" in="SourceGraphic" in2="effect2_dropShadow_14_2129" result="shape"/>
</filter>
</defs>
</svg>
